STARTFONT 2.1
FONT HAN-GB2312
SIZE 16 72 72
FONTBOUNDINGBOX 16 16 0 0
STARTPROPERTIES 1
BITCOUNT 8
ENDPROPERTIES
CHARS 7677
STARTCHAR  00A4
ENCODING  164
SWIDTH  1000 0
DWIDTH  17 0
BBX  13 13 2 -1
BITMAP
00A0400080F0FFE06000608000
00A0F0C0E0604080E0A0F0A000
0000E0A00000000010C0F01000
0060E000000000000010F08000
00F0600000000000000080E000
30FF200000000000000060FF10
40FF200000000000000040FF10
10FF400000000000000080E000
00A0A000000000000000E08000
0010E0600000000000A0C00000
0060FFF080201040C0F0F04000
10E08020C0FFFFFFC010A0C000
00100000002030200000000000
ENDCHAR
STARTCHAR  00A7
ENCODING  167
SWIDTH  1000 0
DWIDTH  16 0
BBX  10 17 3 -2
BITMAP
00000000101000000000
0060E0FFFFFFFFE04000
20FFE060404040C0F000
40FFA00000000040FF10
20FFFF8010000030A010
0060FFFFF0A030000000
00C0F080A0FFFFA01000
30FF4000002080F0C000
40FF200000000060FF10
10F0E06010000040FF10
0040C0FFF0A040C0E000
0000002080F0FFFF6000
30C01000000060E0E000
40FF200000000060FF00
20FF8020202030A0E000
0080F0FFFFFFFFFF6000
00000020203020100000
ENDCHAR
STARTCHAR  00A8
ENCODING  168
SWIDTH  1000 0
DWIDTH  16 0
BBX  6 3 5 13
BITMAP
001000001000
40FF2040FF10
104000104000
ENDCHAR
STARTCHAR  00B0
ENCODING  176
SWIDTH  1000 0
DWIDTH  17 0
BBX  6 6 1 9
BITMAP
000000000000
0080FFF06000
20FF80A0F000
30FF4080FF10
00A0FFFF8000
000030200000
ENDCHAR
STARTCHAR  00B1
ENCODING  177
SWIDTH  1000 0
DWIDTH  17 0
BBX  11 12 3 0
BITMAP
0000000040FF1000000000
0000000040FF1000000000
0000000040FF1000000000
1010101040FF2010101010
FFFFFFFFFFFFFFFFFFFFFF
4040404080FF4040404040
0000000040FF1000000000
0000000040FF1000000000
0000000040FF1000000000
1010101010101010101010
FFFFFFFFFFFFFFFFFFFFFF
4040404040404040404040
ENDCHAR
STARTCHAR  00B7
ENCODING  183
SWIDTH  1000 0
DWIDTH  15 0
BBX  3 3 6 5
BITMAP
001000
40FF20
104000
ENDCHAR
STARTCHAR  00D7
ENCODING  215
SWIDTH  1000 0
DWIDTH  16 0
BBX  10 9 3 2
BITMAP
10A0100000000020A000
00A0E010000020E08000
0000A0C01010E0800000
000000C0C0E0A0000000
00000010F0F010000000
000010C0C0C0C0000000
0000C0C01010C0A00000
00A0E010000010E0A000
10C0100000000010A010
ENDCHAR
STARTCHAR  00E0
ENCODING  224
SWIDTH  1000 0
DWIDTH  17 0
BBX  11 13 3 0
BITMAP
00000000A0FF3000000000
0000000010E0A000000000
0000000000208000000000
0000000000000000000000
0020A0F0FFFFFFE0A0FF10
00E0E04030303060E0FF10
30FF30000000000040FF10
40FF20000000000040FF10
40FF20000000000040FF10
40FF20000000000040FF10
40FF60000000000040FF10
00E0F06040406080E0FF10
0020A0F0FFFFF0E0A0FF10
ENDCHAR
STARTCHAR  00E1
ENCODING  225
SWIDTH  1000 0
DWIDTH  17 0
BBX  11 13 3 0
BITMAP
000000000080E000000000
0000000040FF6000000000
0000000060801000000000
0000000000000000000000
0020A0F0FFFFFFE0A0FF10
00E0E04030303060E0FF10
30FF30000000000040FF10
40FF20000000000040FF10
40FF20000000000040FF10
40FF20000000000040FF10
40FF60000000000040FF10
00E0F06040406080E0FF10
0020A0F0FFFFF0E0A0FF10
ENDCHAR
STARTCHAR  00E8
ENCODING  232
SWIDTH  1000 0
DWIDTH  17 0
BBX  11 13 3 0
BITMAP
00000000C0FF2000000000
0000000010E0A000000000
0000000000308000000000
0000000000000000000000
0020C0F0FFFFFFF0A01000
00E0E06030303040E0A000
30FF40000000000060FF00
40FF30101010101040FF10
40FFFFFFFFFFFFFFFFFF10
40FF404040404040404000
40FF20000000000040FF10
10F0E06040404060E0C000
0030A0F0FFFFFFF0C02000
ENDCHAR
STARTCHAR  00E9
ENCODING  233
SWIDTH  1000 0
DWIDTH  17 0
BBX  11 13 3 0
BITMAP
0000000000A0C000000000
0000000060FF6000000000
0000000060800000000000
0000000000000000000000
0020C0F0FFFFFFF0A01000
00E0E06030303040E0A000
30FF40000000000060FF00
40FF30101010101040FF10
40FFFFFFFFFFFFFFFFFF10
40FF404040404040404000
40FF20000000000040FF10
10F0E06040404060E0C000
0030A0F0FFFFFFF0C02000
ENDCHAR
STARTCHAR  00EA
ENCODING  234
SWIDTH  1000 0
DWIDTH  17 0
BBX  11 13 3 0
BITMAP
00000000C0FFA000000000
00000060FF60FF60000000
0000008060006060000000
0000000000000000000000
0020C0F0FFFFFFF0A01000
00E0E06030303040E0A000
30FF40000000000060FF00
40FF30101010101040FF10
40FFFFFFFFFFFFFFFFFF10
40FF404040404040404000
40FF20000000000040FF10
10F0E06040404060E0C000
0030A0F0FFFFFFF0C02000
ENDCHAR
STARTCHAR  00EC
ENCODING  236
SWIDTH  1000 0
DWIDTH  16 0
BBX  4 13 6 0
BITMAP
00A0F010
0000C080
00001020
00000000
0040FF20
0040FF20
0040FF20
0040FF20
0040FF20
0040FF20
0040FF20
0040FF20
0040FF20
ENDCHAR
STARTCHAR  00ED
ENCODING  237
SWIDTH  1000 0
DWIDTH  16 0
BBX  3 13 7 0
BITMAP
00C0A0
80FF20
202000
000000
40FF20
40FF20
40FF20
40FF20
40FF20
40FF20
40FF20
40FF20
40FF20
ENDCHAR
STARTCHAR  00F2
ENCODING  242
SWIDTH  1000 0
DWIDTH  17 0
BBX  11 13 3 0
BITMAP
00000000C0FF1000000000
0000000020E08000000000
0000000000306000000000
0000000000000000000000
0030C0FFFFFFFFF0A01000
00E0E06040303060E0A000
30FF40000000000060FF00
40FF20000000000040FF10
40FF20000000000040FF10
40FF20000000000040FF10
20FF40000000000080FF00
00C0E06040404080F0A000
0010A0F0FFFFFFE0800000
ENDCHAR
STARTCHAR  00F3
ENCODING  243
SWIDTH  1000 0
DWIDTH  17 0
BBX  11 13 3 0
BITMAP
0000000000A0C000000000
0000000060FF4000000000
0000000080800000000000
0000000000000000000000
0030C0FFFFFFFFF0A01000
00E0E06040303060E0A000
30FF40000000000060FF00
40FF20000000000040FF10
40FF20000000000040FF10
40FF20000000000040FF10
20FF40000000000080FF00
00C0E06040404080F0A000
0010A0F0FFFFFFE0800000
ENDCHAR
STARTCHAR  00F7
ENCODING  247
SWIDTH  1000 0
DWIDTH  17 0
BBX  11 11 3 1
BITMAP
0000000000100000000000
0000000040FF1000000000
0000000010400000000000
0000000000000000000000
1010101010101010101010
FFFFFFFFFFFFFFFFFFFFFF
4040404040404040404040
0000000000000000000000
0000000000100000000000
0000000040FF1000000000
0000000010400000000000
ENDCHAR
STARTCHAR  00F9
ENCODING  249
SWIDTH  1000 0
DWIDTH  16 0
BBX  11 13 3 0
BITMAP
00000030F0800000000000
0000000060F01000000000
0000000000201000000000
30A0100000000030A01000
40FF200000000040FF1000
40FF200000000040FF1000
40FF200000000040FF1000
40FF200000000040FF1000
40FF200000000040FF1000
40FF200000000040FF1000
30FF300000000060FF1000
00E0E060404080F0FF8010
0030C0FFFFF0E060A0FF40
ENDCHAR
STARTCHAR  00FA
ENCODING  250
SWIDTH  1000 0
DWIDTH  16 0
BBX  11 13 3 0
BITMAP
0000000040F02000000000
00000020F0A00000000000
0000001030100000000000
20A0100000000020A01000
40FF200000000040FF1000
40FF200000000040FF1000
40FF200000000040FF1000
40FF200000000040FF1000
40FF200000000040FF1000
40FF200000000040FF1000
30FF300000000060FF1000
00E0C060404080F0FF8010
0030C0FFFFF0E060A0FF40
ENDCHAR
STARTCHAR  00FC
ENCODING  252
SWIDTH  1000 0
DWIDTH  16 0
BBX  11 13 3 0
BITMAP
0000001000001000000000
000040FF1040FF10000000
0000104000104000000000
1040000000000010400000
40FF200000000040FF1000
40FF200000000040FF1000
40FF200000000040FF1000
40FF200000000040FF1000
40FF200000000040FF1000
40FF200000000040FF1000
40FF300000000060FF1000
10E0C060404080F0FF8010
0030C0FFFFF0E060A0FF40
ENDCHAR
STARTCHAR  0101
ENCODING  257
SWIDTH  1000 0
DWIDTH  17 0
BBX  11 12 3 0
BITMAP
000000FFFFFFFFFF000000
0000004040404040000000
0000000010100000001000
0020C0F0FFFFFFE0C0FF10
00E0E04040404060E0FF10
30FF40000000000040FF10
40FF20000000000040FF10
40FF20000000000040FF10
40FF20000000000040FF10
40FF60000000000040FF10
00E0F06040406080E0FF10
0020A0F0FFFFF0E0A0FF10
ENDCHAR
STARTCHAR  0113
ENCODING  275
SWIDTH  1000 0
DWIDTH  17 0
BBX  11 12 3 0
BITMAP
000000FFFFFFFFFF000000
0000004040404040000000
0000000010101000000000
0030C0FFFFFFFFF0A01000
00E0E06040404060E0A000
40FF40000000000060FF00
40FF30101010101040FF10
40FFFFFFFFFFFFFFFFFF10
40FF404040404040404000
40FF20000000000040FF10
10F0E06040404060E0C000
0030A0F0FFFFFFF0C02000
ENDCHAR
STARTCHAR  011B
ENCODING  283
SWIDTH  1000 0
DWIDTH  17 0
BBX  11 13 3 0
BITMAP
000000C0E010E0C0000000
00000020F0E0E010000000
0000000040803000000000
0000000000000000000000
0020C0F0FFFFFFF0A01000
00E0E06030303040E0A000
30FF40000000000060FF00
40FF30101010101040FF10
40FFFFFFFFFFFFFFFFFF10
40FF404040404040404000
40FF20000000000040FF10
10F0E06040404060E0C000
0030A0F0FFFFFFF0C02000
ENDCHAR
STARTCHAR  012B
ENCODING  299
SWIDTH  1000 0
DWIDTH  17 0
BBX  5 12 6 0
BITMAP
FFFFFFFFFF
4040404040
0000000000
0040FF1000
0040FF1000
0040FF1000
0040FF1000
0040FF1000
0040FF1000
0040FF1000
0040FF1000
0040FF1000
ENDCHAR
STARTCHAR  0144
ENCODING  324
SWIDTH  1000 0
DWIDTH  16 0
BBX  10 13 3 0
BITMAP
0000000020F020000000
00000000C0C000000000
00000020803000000000
00000000000000000000
40FF80E0FFFFFFE03000
40FFE060404060E0E000
40FF200000000060FF10
40FF200000000040FF10
40FF200000000040FF10
40FF200000000040FF10
40FF200000000040FF10
40FF200000000040FF10
40FF200000000040FF10
ENDCHAR
STARTCHAR  0148
ENCODING  328
SWIDTH  1000 0
DWIDTH  16 0
BBX  10 13 3 0
BITMAP
000020F06080E0100000
00000080E0F040000000
00000000806000000000
00000000000000000000
40FF80E0FFFFFFE03000
40FFE060404060E0E000
40FF200000000060FF10
40FF200000000040FF10
40FF200000000040FF10
40FF200000000040FF10
40FF200000000040FF10
40FF200000000040FF10
40FF200000000040FF10
ENDCHAR
STARTCHAR  014D
ENCODING  333
SWIDTH  1000 0
DWIDTH  17 0
BBX  11 12 3 0
BITMAP
000000FFFFFFFFFF000000
0000004040404040000000
0000000010101000000000
0030C0FFFFFFFFF0A01000
00E0E06040404060F0A000
30FF40000000000060FF00
40FF20000000000040FF10
40FF20000000000040FF10
40FF20000000000040FF10
20FF40000000000080FF00
00C0E06040404080F0A000
0010A0F0FFFFFFE0800000
ENDCHAR
STARTCHAR  016B
ENCODING  363
SWIDTH  1000 0
DWIDTH  16 0
BBX  11 12 3 0
BITMAP
0000F0FFFFFFFF00000000
0000404040404000000000
0010000000000000100000
40FF200000000040FF1000
40FF200000000040FF1000
40FF200000000040FF1000
40FF200000000040FF1000
40FF200000000040FF1000
40FF200000000040FF1000
40FF300000000060FF1000
10F0C040406080F0FF8010
0030C0FFFFF0E060A0FF40
ENDCHAR
STARTCHAR  01CE
ENCODING  462
SWIDTH  1000 0
DWIDTH  17 0
BBX  11 13 3 0
BITMAP
000000A0C000A0A0000000
00000020F0C0FF30000000
0000000060A06000000000
0000000000000000000000
0020A0F0FFFFFFE0A0FF10
00E0E04030303060E0FF10
30FF30000000000040FF10
40FF20000000000040FF10
40FF20000000000040FF10
40FF20000000000040FF10
40FF60000000000040FF10
00E0F06040406080E0FF10
0020A0F0FFFFF0E0A0FF10
ENDCHAR
STARTCHAR  01D0
ENCODING  464
SWIDTH  1000 0
DWIDTH  16 0
BBX  6 13 5 0
BITMAP
00C0E010F080
0020F0E0E000
000040802000
000000000000
000040FF2000
000040FF2000
000040FF2000
000040FF2000
000040FF2000
000040FF2000
000040FF2000
000040FF2000
000040FF2000
ENDCHAR
STARTCHAR  01D2
ENCODING  466
SWIDTH  1000 0
DWIDTH  17 0
BBX  11 13 3 0
BITMAP
000000E0E010F0A0000000
00000030F0E0E010000000
0000000040803000000000
0000000000000000000000
0030C0FFFFFFFFF0A01000
00E0E06040303060E0A000
30FF40000000000060FF00
40FF20000000000040FF10
40FF20000000000040FF10
40FF20000000000040FF10
20FF40000000000080FF00
00C0E06040404080F0A000
0010A0F0FFFFFFE0800000
ENDCHAR
STARTCHAR  01D4
ENCODING  468
SWIDTH  1000 0
DWIDTH  16 0
BBX  11 13 3 0
BITMAP
000040FF6080F010000000
00000080E0F04000000000
0000001080600000000000
2080100000000020801000
40FF200000000040FF1000
40FF200000000040FF1000
40FF200000000040FF1000
40FF200000000040FF1000
40FF200000000040FF1000
40FF200000000040FF1000
30FF300000000060FF1000
00E0C040404080F0FF6010
0030C0FFFFF0E080A0FF40
ENDCHAR
STARTCHAR  01D6
ENCODING  470
SWIDTH  1000 0
DWIDTH  16 0
BBX  11 16 3 0
BITMAP
0000001010101010000000
000040FFFFFFFFC0000000
0000104040404030000000
0000001000001000000000
000040FF1040FF10000000
0000104000104000000000
1040000000000010400000
40FF200000000040FF1000
40FF200000000040FF1000
40FF200000000040FF1000
40FF200000000040FF1000
40FF200000000040FF1000
40FF200000000040FF1000
40FF300000000060FF1000
10E0C060404080F0FF8010
0030C0FFFFF0E060A0FF40
ENDCHAR
STARTCHAR  01D8
ENCODING  472
SWIDTH  1000 0
DWIDTH  16 0
BBX  11 16 3 0
BITMAP
0000000000603000000000
0000000080F01000000000
0000002080600000000000
000030C01030C010000000
000040FF1040FF10000000
0000000000000000000000
2080100000000020801000
40FF200000000040FF1000
40FF200000000040FF1000
40FF200000000040FF1000
40FF200000000040FF1000
40FF200000000040FF1000
40FF200000000040FF1000
30FF300000000060FF1000
00E0C060404080F0FF8010
0030C0FFFFF0E060A0FF40
ENDCHAR
STARTCHAR  01DA
ENCODING  474
SWIDTH  1000 0
DWIDTH  16 0
BBX  11 16 3 0
BITMAP
0000308010308010000000
000000C0C0E08000000000
0000001080800000000000
000030C01030C010000000
000040FF1040FF10000000
0000000000000000000000
2080100000000020801000
40FF200000000040FF1000
40FF200000000040FF1000
40FF200000000040FF1000
40FF200000000040FF1000
40FF200000000040FF1000
40FF200000000040FF1000
30FF300000000060FF1000
00E0C060404080F0FF8010
0030C0FFFFF0E060A0FF40
ENDCHAR
STARTCHAR  01DC
ENCODING  476
SWIDTH  1000 0
DWIDTH  16 0
BBX  11 16 3 0
BITMAP
0000003080400000000000
00000000A0E00000000000
0000000000802000000000
000030C01030C010000000
000040FF1040FF10000000
0000000000000000000000
2080100000000020801000
40FF200000000040FF1000
40FF200000000040FF1000
40FF200000000040FF1000
40FF200000000040FF1000
40FF200000000040FF1000
40FF200000000040FF1000
30FF300000000060FF1000
00E0C060404080F0FF8010
0030C0FFFFF0E060A0FF40
ENDCHAR
STARTCHAR  0251
ENCODING  593
SWIDTH  1000 0
DWIDTH  17 0
BBX  11 10 3 0
BITMAP
0000000010100000001000
0020C0F0FFFFFFE0C0FF10
00E0E04040404060E0FF10
30FF40000000000040FF10
40FF20000000000040FF10
40FF20000000000040FF10
40FF20000000000040FF10
40FF60000000000040FF10
00E0F06040406080E0FF10
0020A0F0FFFFF0E0A0FF10
ENDCHAR
STARTCHAR  0261
ENCODING  609
SWIDTH  1000 0
DWIDTH  17 0
BBX  11 14 3 -3
BITMAP
0000000010101000001000
0020C0FFFFFFFFF0C0FF10
00E0F06040404060E0FF10
20FF60000000000040FF10
40FF30000000000040FF10
40FF20000000000040FF10
40FF20000000000040FF10
40FF20000000000040FF10
20FF40000000000040FF10
00C0E06040404080E0FF10
0010A0F0FFFFFFE0A0FF10
30C010000000000040FF10
30FF804040404060E0C000
0080E0FFFFFFFFF0C02000
ENDCHAR
STARTCHAR  02C7
ENCODING  711
SWIDTH  1000 0
DWIDTH  16 0
BBX  6 3 5 13
BITMAP
208020208020
00E0C0C0C000
0020F0F02000
ENDCHAR
STARTCHAR  02C9
ENCODING  713
SWIDTH  1000 0
DWIDTH  17 0
BBX  5 3 6 13
BITMAP
1010101010
FFFFFFFFFF
4040404040
ENDCHAR
STARTCHAR  0391
ENCODING  913
SWIDTH  1000 0
DWIDTH  16 0
BBX  14 14 1 0
BITMAP
0000000000101010100000000000
00000000A0FFFFFFFFA000000000
00000000E0A04040A0F000000000
00000020FF40000040FF30000000
00000060F000000000F080000000
000000C0A000000000A0C0000000
000000F0600000000060FF100000
000040FF100000000010FF400000
000080E0101010101010C0A00000
0000E0FFFFFFFFFFFFFFFFE00000
0020FF6040404040404060FF2000
0060F00000000000000000F06000
00A0C00000000000000000C0A000
00F080000000000000000080F000
ENDCHAR
STARTCHAR  0392
ENCODING  914
SWIDTH  1000 0
DWIDTH  16 0
BBX  12 14 2 0
BITMAP
001010101010101000000000
40FFFFFFFFFFFFFFF0A01000
40FF40404040404060F0A000
40FF2000000000000080F000
40FF2000000000000040FF10
40FF2000000000000060FF00
40FF20101010101030E0A000
40FFFFFFFFFFFFFFFFF02000
40FF40404040404060E0C000
40FF2000000000000040FF20
40FF2000000000000000FF40
40FF2000000000000020FF20
40FF60404040404060E0E000
40FFFFFFFFFFFFFFF0C02000
ENDCHAR
STARTCHAR  0393
ENCODING  915
SWIDTH  1000 0
DWIDTH  16 0
BBX  10 14 4 0
BITMAP
00101010101010101000
40FFFFFFFFFFFFFFFF20
40FF4040404040404000
40FF2000000000000000
40FF2000000000000000
40FF2000000000000000
40FF2000000000000000
40FF2000000000000000
40FF2000000000000000
40FF2000000000000000
40FF2000000000000000
40FF2000000000000000
40FF2000000000000000
40FF2000000000000000
ENDCHAR
STARTCHAR  0394
ENCODING  916
SWIDTH  1000 0
DWIDTH  16 0
BBX  12 13 2 0
BITMAP
0000000000E0E00000000000
0000000060FFFF4000000000
00000000E0C0E0C000000000
00000040FF4060FF30000000
000000C0E00000E0A0000000
000030FF60000080FF200000
0000A0E000000010F0800000
0010FF800000000080F01000
0080F0100000000010FF8000
10F0A0000000000000A0E000
60FF2000000000000020FF60
E0E03030303030303030E0E0
FFFFFFFFFFFFFFFFFFFFFFFF
ENDCHAR
STARTCHAR  0395
ENCODING  917
SWIDTH  1000 0
DWIDTH  16 0
BBX  11 14 3 0
BITMAP
0010101010101010101000
40FFFFFFFFFFFFFFFFFF20
40FF404040404040404000
40FF200000000000000000
40FF200000000000000000
40FF200000000000000000
40FF201010101010100000
40FFFFFFFFFFFFFFFF8000
40FF404040404040402000
40FF200000000000000000
40FF200000000000000000
40FF200000000000000000
40FF604040404040404000
40FFFFFFFFFFFFFFFFFF20
ENDCHAR
STARTCHAR  0396
ENCODING  918
SWIDTH  1000 0
DWIDTH  17 0
BBX  11 14 3 0
BITMAP
1010101010101010101010
FFFFFFFFFFFFFFFFFFFFFF
404040404040404040F0E0
0000000000000010C0F020
00000000000000A0F03000
00000000000080FF400000
000000000060FF60000000
0000000060FF8000000000
00000030F0A00000000000
000020F0C0000000000000
0010E0E010000000000000
10C0E02000000000000000
A0FF804040404040404040
FFFFFFFFFFFFFFFFFFFFFF
ENDCHAR
STARTCHAR  0397
ENCODING  919
SWIDTH  1000 0
DWIDTH  16 0
BBX  12 13 2 0
BITMAP
40FF2000000000000040FF10
40FF2000000000000040FF10
40FF2000000000000040FF10
40FF2000000000000040FF10
40FF2000000000000040FF10
40FF2010101010101040FF10
40FFFFFFFFFFFFFFFFFFFF10
40FF4040404040404080FF10
40FF2000000000000040FF10
40FF2000000000000040FF10
40FF2000000000000040FF10
40FF2000000000000040FF10
40FF2000000000000040FF10
ENDCHAR
STARTCHAR  0398
ENCODING  920
SWIDTH  1000 0
DWIDTH  17 0
BBX  13 14 2 0
BITMAP
00000000101010100000000000
0010A0FFFFFFFFFFFFE0800000
00C0F0804040404040A0FF8000
20FF600000000000000080E000
40FF200000000000000040FF10
40FF200000000000000040FF10
40FF200000000000000040FF10
40FF20FFFFFFFFFFFF0040FF10
40FF203030303030300040FF10
40FF200000000000000040FF10
30FF200000000000000040FF10
10FF600000000000000080F000
00A0FFA06040404060A0FF8000
000080E0F0FFFFFFFFE0800000
ENDCHAR
STARTCHAR  0399
ENCODING  921
SWIDTH  1000 0
DWIDTH  16 0
BBX  3 13 7 0
BITMAP
40FF20
40FF20
40FF20
40FF20
40FF20
40FF20
40FF20
40FF20
40FF20
40FF20
40FF20
40FF20
40FF20
ENDCHAR
STARTCHAR  039A
ENCODING  922
SWIDTH  1000 0
DWIDTH  16 0
BBX  12 13 2 0
BITMAP
40FF2000000000000080FF30
40FF20000000000020F08000
40FF200000000000C0E00000
40FF200000000060FF300000
40FF2000000020F080000000
40FF20101030E0E000000000
40FFFFFFFFFFFF4000000000
40FF40404060E0E000000000
40FF2000000030FF80000000
40FF200000000080FF300000
40FF200000000000C0E00000
40FF20000000000020F08000
40FF2000000000000060FF30
ENDCHAR
STARTCHAR  039B
ENCODING  923
SWIDTH  1000 0
DWIDTH  16 0
BBX  14 14 1 0
BITMAP
0000000000101010100000000000
00000000A0FFFFFFFFA000000000
00000000E0A04040A0E000000000
00000020FF40000040FF30000000
00000060F000000000F080000000
000000C0C000000000C0C0000000
000010F0600000000080F0100000
000040FF300000000030FF400000
000080E0000000000000E0800000
0000E0A0000000000000A0E00000
0020FF6000000000000060FF2000
0060FF1000000000000010FF6000
00A0E00000000000000000E0A000
00F080000000000000000080F000
ENDCHAR
STARTCHAR  039C
ENCODING  924
SWIDTH  1000 0
DWIDTH  16 0
BBX  15 13 1 0
BITMAP
40FFF0100000000000000030FFFF10
40FFE0A000000000000000C0E0FF10
40FF60FF30000000000060F060FF10
40FF20A0C00000000000E08040FF10
40FF2020F06000000080F01040FF10
40FF200080E0000010F0600040FF10
40FF200010E08000A0E0000040FF10
40FF20000060F040FF40000040FF10
40FF20000000C0FFC000000040FF10
40FF2000000030802000000040FF10
40FF2000000000000000000040FF10
40FF2000000000000000000040FF10
40FF2000000000000000000040FF10
ENDCHAR
STARTCHAR  039D
ENCODING  925
SWIDTH  1000 0
DWIDTH  17 0
BBX  13 13 2 0
BITMAP
40FFF02000000000000040FF10
40FFE0C000000000000040FF10
40FF40F060000000000040FF10
40FF2060F0200000000040FF10
40FF2000C0E00000000040FF10
40FF200020F08000000040FF10
40FF20000060FF30000040FF10
40FF20000000A0E0100040FF10
40FF2000000010E0A00040FF10
40FF200000000040FF4040FF10
40FF200000000000A0E060FF10
40FF20000000000010E0E0FF10
40FF2000000000000040FFFF10
ENDCHAR
STARTCHAR  039E
ENCODING  926
SWIDTH  1000 0
DWIDTH  17 0
BBX  13 14 2 0
BITMAP
00101010101010101010101000
40FFFFFFFFFFFFFFFFFFFFFF10
40FF404040404040404080FF10
40FF200000000000000040FF10
40FF200000000000000040FF10
20801000000000000000208010
00001010101010101010000000
0000F0FFFFFFFFFFFFFF000000
00003040404040404040000000
00200000000000000000002000
40FF200000000000000040FF10
40FF200000000000000040FF10
40FF6040404040404040A0FF00
40FFFFFFFFFFFFFFFFFFF08000
ENDCHAR
STARTCHAR  039F
ENCODING  927
SWIDTH  1000 0
DWIDTH  17 0
BBX  13 14 2 0
BITMAP
00000000001010101000000000
000080E0FFFFFFFFFFF0800000
00A0FF80404040404080FF8000
10FF8000000000000000A0E000
30FF300000000000000040FF10
40FF200000000000000040FF10
40FF200000000000000040FF10
40FF200000000000000040FF10
40FF200000000000000040FF10
40FF200000000000000040FF10
40FF200000000000000060FF00
20FF6000000000000000A0E000
00C0F0804040404040A0FF6000
0010A0F0FFFFFFFFFFE0600000
ENDCHAR
STARTCHAR  03A0
ENCODING  928
SWIDTH  1000 0
DWIDTH  16 0
BBX  12 14 2 0
BITMAP
101010101010101010101010
FFFFFFFFFFFFFFFFFFFFFFFF
4080FF404040404080FF4040
0040FF100000000040FF1000
0040FF100000000040FF1000
0040FF100000000040FF1000
0040FF100000000040FF1000
0040FF100000000040FF1000
0040FF100000000040FF1000
0040FF100000000040FF1000
0040FF100000000040FF1000
0040FF100000000040FF1000
0040FF100000000040FF1000
0040FF100000000040FF1000
ENDCHAR
STARTCHAR  03A1
ENCODING  929
SWIDTH  1000 0
DWIDTH  17 0
BBX  12 14 3 0
BITMAP
001010101010101000000000
40FFFFFFFFFFFFFFFFC02000
40FF40404040404060E0E000
40FF2000000000000060FF10
40FF2000000000000040FF10
40FF2000000000000040FF10
40FF20101010101020C0E000
40FFFFFFFFFFFFFFFFE03000
40FF40404040404030000000
40FF20000000000000000000
40FF20000000000000000000
40FF20000000000000000000
40FF20000000000000000000
40FF20000000000000000000
ENDCHAR
STARTCHAR  03A3
ENCODING  931
SWIDTH  1000 0
DWIDTH  16 0
BBX  10 14 3 0
BITMAP
10101010101010101010
FFFFFFFFFFFFFFFFFFFF
C0FF8040404040404040
00A0F040000000000000
0000A0F0400000000000
000000A0F04000000000
00000000A0FF60000000
0000000000E0F0200000
00000000A0FF60000000
000000A0F04000000000
0000A0F0400000000000
10C0F030000000000000
C0FF8040404040404040
FFFFFFFFFFFFFFFFFFFF
ENDCHAR
STARTCHAR  03A4
ENCODING  932
SWIDTH  1000 0
DWIDTH  15 0
BBX  11 14 2 0
BITMAP
1010101010101010101010
FFFFFFFFFFFFFFFFFFFFFF
4040404080FF4040404040
0000000040FF1000000000
0000000040FF1000000000
0000000040FF1000000000
0000000040FF1000000000
0000000040FF1000000000
0000000040FF1000000000
0000000040FF1000000000
0000000040FF1000000000
0000000040FF1000000000
0000000040FF1000000000
0000000040FF1000000000
ENDCHAR
STARTCHAR  03A5
ENCODING  933
SWIDTH  1000 0
DWIDTH  16 0
BBX  13 14 2 0
BITMAP
00000010000000001010000000
0080F0FFFFC020E0FFFFF06000
20FF804040E0E0C04040A0F000
40FF20000060FF20000040FF10
40F010000040FF10000040F010
000000000040FF100000000000
000000000040FF100000000000
000000000040FF100000000000
000000000040FF100000000000
000000000040FF100000000000
000000000040FF100000000000
000000000040FF100000000000
000000000040FF100000000000
000000000040FF100000000000
ENDCHAR
STARTCHAR  03A6
ENCODING  934
SWIDTH  1000 0
DWIDTH  15 0
BBX  13 13 1 0
BITMAP
000000001040FF201000000000
0030E0FFFFFFFFFFFFF0A00000
00E0E0604080FF404080FF8000
30FF40000040FF10000080F000
40FF20000040FF10000040FF10
40FF20000040FF10000040FF10
40FF20000040FF10000040FF10
40FF20000040FF10000040FF10
20FF40000040FF10000060FF00
00E0E0301040FF201030E0A000
0030E0FFFFFFFFFFFFFFE02000
000000304080FF404030000000
000000000040FF100000000000
ENDCHAR
STARTCHAR  03A7
ENCODING  935
SWIDTH  1000 0
DWIDTH  16 0
BBX  12 13 2 0
BITMAP
40FF6000000000000060FF40
0080FF300000000030F08000
0000C0E010000010E0C00000
000020F0A00000A0F0200000
00000040FF6060FF40000000
0000000080F0FF8000000000
0000000010FFF01000000000
00000000C0E0F0A000000000
00000080FF4040FF80000000
000040FF80000080FF400000
0020F0A000000000C0E02000
00C0E0100000000010E0C000
80FF3000000000000030FF80
ENDCHAR
STARTCHAR  03A8
ENCODING  936
SWIDTH  1000 0
DWIDTH  17 0
BBX  14 13 1 0
BITMAP
00000000000040FF100000000000
30FFC000000040FF10000010E0F0
1080FF10000040FF10000040FF60
0040FF20000040FF10000040FF10
0040FF20000040FF10000040FF10
0040FF20000040FF10000040FF10
0040FF20000040FF10000040FF10
0040FF20000040FF10000040FF10
0040FF20000040FF10000040FF10
0010FFA0201040FF201020C0E000
000060F0FFFFFFFFFFFFFFE04000
00000010304080FF404030000000
00000000000040FF100000000000
ENDCHAR
STARTCHAR  03A9
ENCODING  937
SWIDTH  1000 0
DWIDTH  16 0
BBX  12 14 2 0
BITMAP
000000000010101000000000
000080E0FFFFFFFFFFC01000
00A0E0604040404060E0A000
20FF4000000000000060F000
40FF2000000000000040FF10
40FF2000000000000040FF10
40FF2000000000000040FF10
40FF2000000000000040FF10
40FF3000000000000060FF10
10F0A0101000001020C0E000
0060FFFFFF1040FFFFFF6000
00002060FF1040FF40100000
10404080FF1040FF60404010
60FFFFFFFF1040FFFFFFFF20
ENDCHAR
STARTCHAR  03B1
ENCODING  945
SWIDTH  1000 0
DWIDTH  16 0
BBX  12 10 2 0
BITMAP
000000001000000000001000
0040E0FFFFF0A0100060FF20
10F0C0404060F0A000E0A000
40FF2000000080F060FF2000
40FF2000000020FFFFA00000
40FF2000000000C0FF300000
40FF2000000000E0FF400000
30FF2000000060FFE0A00000
00E0A0404060FFA060FF6030
0030C0FFFFE0A00000A0FFC0
ENDCHAR
STARTCHAR  03B2
ENCODING  946
SWIDTH  1000 0
DWIDTH  16 0
BBX  9 17 4 -3
BITMAP
000000101000000000
0040E0FFFFFFC03000
10F0E0604060E0E000
40FF3000000060FF10
40FF2000000040FF10
40FF20101010A0E000
40FF20E0FFFFF03000
40FF20304040E0A000
40FF2000000060F000
40FF2000000040FF10
40FF2000000040FF10
40FF2000000060FF10
40FF30404060E0E000
40FF60FFFFFFE03000
40FF20000000000000
40FF20000000000000
40FF20000000000000
ENDCHAR
STARTCHAR  03B3
ENCODING  947
SWIDTH  1000 0
DWIDTH  15 0
BBX  11 14 2 -3
BITMAP
1000000000000000000010
FFF0800000000000A0FFFF
4080FF6000000080F06040
000080F0200030FF600000
000010E0C000E0C0000000
00000040FFC0F020000000
00000000A0FF6000000000
0000000040FF1000000000
0000000040FF1000000000
0000000040FF1000000000
0000000040FF1000000000
0000000040FF1000000000
0000000040FF1000000000
0000000040FF1000000000
ENDCHAR
STARTCHAR  03B4
ENCODING  948
SWIDTH  1000 0
DWIDTH  16 0
BBX  10 14 3 0
BITMAP
00000000101000000000
0010C0FFFFFFFFE04000
0080FF60404040C0E000
00A0E00000000040FF10
0060FF6000000030A010
0000A0FFE06000000000
000020C0FFFFE0400000
0060F0C04020A0FF6000
10F0A000000000A0E000
40FF200000000040FF10
40FF200000000040FF10
40FF300000000040FF00
10F0C040404060C0E000
0040E0FFFFFFFFF06000
ENDCHAR
STARTCHAR  03B5
ENCODING  949
SWIDTH  1000 0
DWIDTH  16 0
BBX  10 10 3 0
BITMAP
00000010101010000000
0060F0FFFFFFFFF06000
20FFE040404040A0F000
40FF800000000040FF10
20FFC020101010104000
0080FFFFFFFFFF200000
20FF8040404040100000
40FF200000000040FF10
30FF8040404040A0F000
0080F0FFFFFFFFE06000
ENDCHAR
STARTCHAR  03B6
ENCODING  950
SWIDTH  1000 0
DWIDTH  17 0
BBX  9 17 4 -3
BITMAP
004080200000000000
00E0C0000000000000
40FF60000000000000
00A0FFFFFFFFFFFF10
00E0C0403030303000
40FF30000000000000
40FF20000000000000
40FF20000000000000
40FF20000000000000
30FF60101000000000
00A0FFFFFFFFE04000
000020404040E0E000
00000000000060FF10
00000000000040FF10
00000000000060FF10
001040404060E0E000
0040FFFFFFFFC02000
ENDCHAR
STARTCHAR  03B7
ENCODING  951
SWIDTH  1000 0
DWIDTH  16 0
BBX  10 14 3 -3
BITMAP
10000000001000000000
C0FFA0A0F0FFFFC03000
3080FFC0404040C0E000
0040FF2000000040FF10
0040FF2000000040FF10
0040FF2000000040FF10
0040FF2000000040FF10
0040FF2000000040FF10
0040FF2000000040FF10
0040FF2000000040FF10
0040FF2000000040FF10
0000000000000040FF10
0000000000000040FF10
0000000000000040FF10
ENDCHAR
STARTCHAR  03B8
ENCODING  952
SWIDTH  1000 0
DWIDTH  16 0
BBX  10 14 3 0
BITMAP
00000000101000000000
0040E0FFFFFFFFC01000
00F0E040404060F0A000
30FF300000000060FF00
40FF200000000040FF10
40FF200000000040FF10
40FF201010101040FF10
40FFFFFFFFFFFFFFFF10
40FF404040404080FF10
40FF200000000040FF10
40FF200000000040FF10
30FF300000000060FF00
00E0E060404060E0C000
0020C0FFFFFFFFC02000
ENDCHAR
STARTCHAR  03B9
ENCODING  953
SWIDTH  1000 0
DWIDTH  16 0
BBX  8 10 5 0
BITMAP
2080100000000000
40FF200000000000
40FF200000000000
40FF200000000000
40FF200000000000
40FF200000000000
40FF200000000000
40FF200000000000
10F0C04040404010
0040E0FFFFFFFF40
ENDCHAR
STARTCHAR  03BA
ENCODING  954
SWIDTH  1000 0
DWIDTH  16 0
BBX  9 9 4 0
BITMAP
40FF2000000060FF40
40FF20000060FF6000
40FF201080FF600000
40FFFFFFFF60000000
40FF4040E0E0000000
40FF200020F0800000
40FF20000080FF3000
40FF20000000E0E000
40FF2000000030FF80
ENDCHAR
STARTCHAR  03BB
ENCODING  955
SWIDTH  1000 0
DWIDTH  16 0
BBX  12 14 2 0
BITMAP
000010100000000000000000
0000FFFFF060000000000000
00004040A0F0100000000000
0000000010FF600000000000
0000000000C0C00000000000
0000000020FFFF3000000000
0000000080F0F08000000000
00000010F080A0E000000000
00000080FF2030FF40000000
000000E0A00000E0A0000000
000060FF30000080FF100000
0000E0C000000010FF600000
0060FF4000000000A0E06020
00E0E0000000000020E0FF80
ENDCHAR
STARTCHAR  03BC
ENCODING  956
SWIDTH  1000 0
DWIDTH  15 0
BBX  10 13 3 -3
BITMAP
40FF2000000040FF1000
40FF2000000040FF1000
40FF2000000040FF1000
40FF2000000040FF1000
40FF2000000040FF1000
40FF2000000040FF1000
40FF2000000040FF1000
40FF3000000060FF1000
40FFE0604060E0FF8020
40FFA0F0FFFFA0A0FF80
40FF2000000000000000
40FF2000000000000000
40FF2000000000000000
ENDCHAR
STARTCHAR  03BD
ENCODING  957
SWIDTH  1000 0
DWIDTH  16 0
BBX  10 11 3 0
BITMAP
10000000000000000010
FFE0400000000000C0A0
40E0C00000000010FF60
0060FF1000000060FF10
0020FF40000000A0C000
0000E080000000F06000
0000A0C0000040FF2000
000060FF1000A0E00000
000020FF4000E0800000
000000E0A060FF300000
000000A0FFFFE0000000
ENDCHAR
STARTCHAR  03BE
ENCODING  958
SWIDTH  1000 0
DWIDTH  16 0
BBX  9 17 4 -3
BITMAP
108040000000000000
80F010000000000000
A0C010101010100000
40FFFFFFFFFFFFC000
A0A040404040403000
C08010101010101000
30F0FFFFFFFFFFC000
60E040404040403000
C06000000000000000
C06000000000000000
A0A010101010000000
40FFFFFFFFFFE04000
002040404040C0F000
00000000000040FF10
00000000000040FF10
003040404040C0F000
00C0FFFFFFFFE04000
ENDCHAR
STARTCHAR  03BF
ENCODING  959
SWIDTH  1000 0
DWIDTH  16 0
BBX  10 10 3 0
BITMAP
00000000101000000000
0020C0FFFFFFF0A01000
00E0E040404060E0A000
30FF400000000060F000
40FF200000000040FF10
40FF200000000040FF10
40FF200000000040FF10
30FF400000000080FF00
00E0E060404060F0A000
0030E0FFFFFFF0C01000
ENDCHAR
STARTCHAR  03C0
ENCODING  960
SWIDTH  1000 0
DWIDTH  16 0
BBX  10 10 3 0
BITMAP
10101010101010101010
FFFFFFFFFFFFFFFFFFFF
4080FF40404080FF4040
0040FF10000040FF1000
0040FF10000040FF1000
0040FF10000040FF1000
0040FF10000040FF1000
0040FF10000040FF1000
40C0F000000020FF8040
FFF0600000000080F0FF
ENDCHAR
STARTCHAR  03C1
ENCODING  961
SWIDTH  1000 0
DWIDTH  16 0
BBX  9 14 4 -3
BITMAP
000000101010000000
0040E0FFFFFFE03000
00E0C0404040E0E000
30FF3000000060FF10
40FF2000000040FF10
40FF2000000040FF10
40FF2000000040FF10
40FF2000000040FF10
40FF2000000060FF00
40FF20404040E0E000
40FF60FFFFFFE03000
40FF20000000000000
40FF20000000000000
40FF20000000000000
ENDCHAR
STARTCHAR  03C3
ENCODING  963
SWIDTH  1000 0
DWIDTH  16 0
BBX  10 10 3 0
BITMAP
00000000101010101010
0030C0FFFFFFFFFFFFC0
10F0E060404040404030
40FF4030FFFFFFC02000
40FF2010404040E0C000
40FF200000000060FF00
40FF200000000040FF10
30FF300000000060FF00
00E0E060404060E0C000
0040E0FFFFFFFFC02000
ENDCHAR
STARTCHAR  03C4
ENCODING  964
SWIDTH  1000 0
DWIDTH  17 0
BBX  8 10 5 0
BITMAP
1010101010101010
FFFFFFFFFFFFFFFF
4080FF4040404040
0040FF1000000000
0040FF1000000000
0040FF1000000000
0040FF1000000000
0040FF2000000000
0010F0A040404030
000040E0FFFFFFA0
ENDCHAR
STARTCHAR  03C5
ENCODING  965
SWIDTH  1000 0
DWIDTH  16 0
BBX  10 10 3 0
BITMAP
00000000000000001000
60FFA00000000040FF10
1080FF1000000040FF10
0040FF2000000040FF10
0040FF2000000040FF10
0040FF2000000040FF10
0040FF2000000040FF10
0040FF3000000060FF10
0010F0C0404060E0E000
000040E0FFFFFFE03000
ENDCHAR
STARTCHAR  03C6
ENCODING  966
SWIDTH  1000 0
DWIDTH  15 0
BBX  11 14 2 -3
BITMAP
0000001000000010000000
0080FFE000A0FFFFF06000
20FF803030FF8040A0F000
40FF200040FF100040FF10
40FF200040FF100040FF10
40FF200040FF100040FF10
40FF200040FF100040FF10
40FF200040FF100040FF10
30FF300040FF100060FF10
00E0C04080FF6040E0E000
0030E0FFFFFFFFFFE03000
0000000040FF1000000000
0000000040FF1000000000
0000000040FF1000000000
ENDCHAR
STARTCHAR  03C7
ENCODING  967
SWIDTH  1000 0
DWIDTH  16 0
BBX  12 14 2 -3
BITMAP
001000000000000000001000
00FFF0A00000000010E0C000
004080FF60000000A0F02000
000000C0E0000040FF600000
00000030FF6010E0C0000000
00000000A0F0A0FF30000000
0000000020FFFF8000000000
0000000000E0FF2000000000
0000000080FFF0A000000000
00000030FF8080FF20000000
000010E0C00010F0A0000000
000080F020000060FF300000
0040FF6000000000E0E04020
10E0C0000000000030E0FF80
ENDCHAR
STARTCHAR  03C8
ENCODING  968
SWIDTH  1000 0
DWIDTH  15 0
BBX  13 13 1 -3
BITMAP
000000000040FF100000000000
30FFA0000040FF100000C0FF00
1080FF100040FF100040FF6000
0040FF200040FF100040FF1000
0040FF200040FF100040FF1000
0040FF200040FF100040FF1000
0040FF200040FF100040FF1000
0040FF200040FF100040FF1000
0010FFA04080FF6060E0E00000
000060E0FFFFFFFFFFE0400000
000000000040FF100000000000
000000000040FF100000000000
000000000040FF100000000000
ENDCHAR
STARTCHAR  03C9
ENCODING  969
SWIDTH  1000 0
DWIDTH  17 0
BBX  13 10 2 0
BITMAP
00000010100000001000000000
0040E0FFFF000030FFFFC03000
10F0C040400000104040E0E000
40FF200000208010000060FF10
40FF20000040FF10000040FF10
40FF20000040FF10000040FF10
40FF20000040FF10000040FF10
30FF20000040FF20000040FF10
10FFA04060E0E0C04040C0F000
0060F0FFFFA010C0FFFFE04000
ENDCHAR
STARTCHAR  0401
ENCODING  1025
SWIDTH  1000 0
DWIDTH  16 0
BBX  10 16 3 0
BITMAP
00000000100010000000
00000040FF60FF100000
00101020402040101000
40FFFFFFFFFFFFFFFFA0
40FF4040404040404020
40FF2000000000000000
40FF2000000000000000
40FF2000000000000000
40FF2010101010101000
40FFFFFFFFFFFFFFF000
40FF4040404040403000
40FF2000000000000000
40FF2000000000000000
40FF2000000000000000
40FF6040404040404030
40FFFFFFFFFFFFFFFFA0
ENDCHAR
STARTCHAR  0410
ENCODING  1040
SWIDTH  1000 0
DWIDTH  16 0
BBX  14 14 1 0
BITMAP
0000000000101010100000000000
00000000A0FFFFFFFFA000000000
00000000E0A04040A0F000000000
00000020FF40000040FF30000000
00000060F000000000F080000000
000000C0A000000000A0C0000000
000010F0600000000060FF100000
000040FF100000000010FF400000
000080E0101010101010C0A00000
0000E0FFFFFFFFFFFFFFFFE00000
0020FF6040404040404060FF2000
0060F00000000000000000F06000
00A0C00000000000000000C0A000
00F080000000000000000080F000
ENDCHAR
STARTCHAR  0411
ENCODING  1041
SWIDTH  1000 0
DWIDTH  16 0
BBX  10 14 3 0
BITMAP
00101010101010100000
40FFFFFFFFFFFFFFA000
40FF4040404040402000
40FF2000000000000000
40FF2000000000000000
40FF2010101000000000
40FFFFFFFFFFFFC02000
40FF4040404060F0C000
40FF200000000060FF10
40FF200000000040FF10
40FF200000000040FF10
40FF200000000060FF00
40FF6040404060F0A000
40FFFFFFFFFFF0A01000
ENDCHAR
STARTCHAR  0412
ENCODING  1042
SWIDTH  1000 0
DWIDTH  16 0
BBX  12 14 2 0
BITMAP
001010101010101000000000
40FFFFFFFFFFFFFFF0A01000
40FF40404040404060F0A000
40FF2000000000000080F000
40FF2000000000000040FF10
40FF2000000000000060FF00
40FF20101010101030E0A000
40FFFFFFFFFFFFFFFFF02000
40FF40404040404060E0A000
40FF2000000000000040FF00
40FF2000000000000000FF10
40FF2000000000000020FF00
40FF60404040404060E0C000
40FFFFFFFFFFFFFFF0A01000
ENDCHAR
STARTCHAR  0413
ENCODING  1043
SWIDTH  1000 0
DWIDTH  16 0
BBX  10 14 4 0
BITMAP
00101010101010101000
40FFFFFFFFFFFFFFFF20
40FF4040404040404000
40FF2000000000000000
40FF2000000000000000
40FF2000000000000000
40FF2000000000000000
40FF2000000000000000
40FF2000000000000000
40FF2000000000000000
40FF2000000000000000
40FF2000000000000000
40FF2000000000000000
40FF2000000000000000
ENDCHAR
STARTCHAR  0414
ENCODING  1044
SWIDTH  1000 0
DWIDTH  16 0
BBX  13 16 1 -2
BITMAP
00000000000010101010100000
000000000000E0FFFFFFFF1000
000000000040FF604080FF1000
0000000000A0E0000040FF1000
0000000010F080000040FF1000
0000000060FF20000040FF1000
00000000C0C000000040FF1000
00000010FF6000000040FF1000
00000060F01000000040FF1000
000000E0A00000000040FF1000
000020FF400000000040FF1000
000080F0000000000040FF1000
1040E0C0404040404080FF6000
40FFFFFFFFFFFFFFFFFFFFFF10
40FF200000000000000000F010
20A01000000000000000008010
ENDCHAR
STARTCHAR  0415
ENCODING  1045
SWIDTH  1000 0
DWIDTH  16 0
BBX  11 14 3 0
BITMAP
0010101010101010101000
40FFFFFFFFFFFFFFFFFF20
40FF404040404040404000
40FF200000000000000000
40FF200000000000000000
40FF200000000000000000
40FF201010101010100000
40FFFFFFFFFFFFFFFF8000
40FF404040404040402000
40FF200000000000000000
40FF200000000000000000
40FF200000000000000000
40FF604040404040404000
40FFFFFFFFFFFFFFFFFF20
ENDCHAR
STARTCHAR  0416
ENCODING  1046
SWIDTH  1000 0
DWIDTH  16 0
BBX  15 14 1 0
BITMAP
001000000000001000000000001000
30FFE030000040FF20000040F0F000
1040E0C0000040FF200000E0C04000
000060F0100040FF200020FF400000
000020FF400040FF200060F0000000
000000E0800040FF2000C0A0000000
00000080E01040FF2010F060000000
00000060FFFFFFFFFFFFFF20000000
000000A0E04080FF4040FF60000000
000000E0800040FF2000C0A0000000
000030FF300040FF200060F0000000
000080E0000040FF200020FF400000
1060E0A0000040FF200000E0C04000
30FFE020000040FF20000040E0FF10
ENDCHAR
STARTCHAR  0417
ENCODING  1047
SWIDTH  1000 0
DWIDTH  15 0
BBX  11 14 2 0
BITMAP
0000000010101000000000
0030C0FFFFFFFFE0600000
00E0E06040404080FF4000
30FF400000000000A08000
40FF20000000000080A000
2080100000000000A08000
0000000010101030F04000
00000040FFFFFFFFE01000
0000001040404060E0C000
208010000000000060FF10
40FF20000000000040FF10
30FF30000000000060FF00
00E0E06040404060E0C000
0030C0FFFFFFFFFFC02000
ENDCHAR
STARTCHAR  0418
ENCODING  1048
SWIDTH  1000 0
DWIDTH  15 0
BBX  11 13 2 0
BITMAP
40FF200000000000A0FF10
40FF200000000040FFFF10
40FF2000000010E0E0FF10
40FF2000000080E040FF10
40FF20000020F06040FF10
40FF200000C0C00040FF10
40FF200060F0200040FF10
40FF2010E080000040FF10
40FF2080E010000040FF10
40FF40FF4000000040FF10
40FFE0A00000000040FF10
40FFF0200000000040FF10
40FF80000000000040FF10
ENDCHAR
STARTCHAR  0419
ENCODING  1049
SWIDTH  1000 0
DWIDTH  15 0
BBX  11 16 2 0
BITMAP
000080C0101010A0A00000
000040FFFFFFFFFF800000
0000002040404030000000
40FF20000000000060FF10
40FF200000000010E0FF10
40FF2000000000A0E0F010
40FF2000000040FF40E010
40FF20000010E0A000E010
40FF20000080F01000E010
40FF200030FF600000E010
40FF2000E0C0000000E010
40FF2080F020000000E010
40FF40F06000000000E010
40FFE0C00000000000E010
40FFFF300000000000E010
40FF80000000000000E010
ENDCHAR
STARTCHAR  041A
ENCODING  1050
SWIDTH  1000 0
DWIDTH  16 0
BBX  11 14 3 0
BITMAP
0010000000000000001000
40FF200000000020E0FF60
40FF2000000000A0F06020
40FF2000000030FF600000
40FF20000000C0E0000000
40FF20000040FF60000000
40FF201010C0E000000000
40FFFFFFFFFF6000000000
40FF404040F0A000000000
40FF20000060FF30000000
40FF20000000E0C0000000
40FF2000000040FF600000
40FF2000000000C0E06030
40FF200000000020E0FFA0
ENDCHAR
STARTCHAR  041B
ENCODING  1051
SWIDTH  1000 0
DWIDTH  16 0
BBX  12 13 2 0
BITMAP
0000000000F0A00000000000
0000000040FFF01000000000
00000000A0E0F06000000000
00000010F080A0E000000000
00000060FF2040FF30000000
000000C0C00000E080000000
000010FF60000080F0000000
000060FF10000020FF400000
0000C0C000000000C0A00000
0020FF600000000060FF1000
0060F0100000000010F08000
40E0A0000000000000A0E000
FFE03000000000000040FF30
ENDCHAR
STARTCHAR  041C
ENCODING  1052
SWIDTH  1000 0
DWIDTH  16 0
BBX  15 13 1 0
BITMAP
40FFF0100000000000000030FFFF10
40FFE0A000000000000000C0E0FF10
40FF60FF30000000000060F060FF10
40FF20A0C00000000000E08040FF10
40FF2020F06000000080F01040FF10
40FF200080E0000010F0600040FF10
40FF200010E08000A0E0000040FF10
40FF20000060F040FF40000040FF10
40FF20000000C0FFC000000040FF10
40FF2000000030802000000040FF10
40FF2000000000000000000040FF10
40FF2000000000000000000040FF10
40FF2000000000000000000040FF10
ENDCHAR
STARTCHAR  041D
ENCODING  1053
SWIDTH  1000 0
DWIDTH  16 0
BBX  12 13 2 0
BITMAP
40FF2000000000000040FF10
40FF2000000000000040FF10
40FF2000000000000040FF10
40FF2000000000000040FF10
40FF2000000000000040FF10
40FF2010101010101040FF10
40FFFFFFFFFFFFFFFFFFFF10
40FF4040404040404080FF10
40FF2000000000000040FF10
40FF2000000000000040FF10
40FF2000000000000040FF10
40FF2000000000000040FF10
40FF2000000000000040FF10
ENDCHAR
STARTCHAR  041E
ENCODING  1054
SWIDTH  1000 0
DWIDTH  17 0
BBX  13 14 2 0
BITMAP
00000000001010101000000000
000080E0FFFFFFFFFFF0800000
00A0FF80404040404080FF8000
10FF8000000000000000A0E000
30FF300000000000000040FF10
40FF200000000000000040FF10
40FF200000000000000040FF10
40FF200000000000000040FF10
40FF200000000000000040FF10
40FF200000000000000040FF10
40FF200000000000000060FF00
20FF6000000000000000A0E000
00C0F0804040404040A0FF6000
0010A0F0FFFFFFFFFFE0600000
ENDCHAR
STARTCHAR  041F
ENCODING  1055
SWIDTH  1000 0
DWIDTH  15 0
BBX  11 14 2 0
BITMAP
0010101010101010101000
40FFFFFFFFFFFFFFFFFF10
40FF40404040404080FF10
40FF20000000000040FF10
40FF20000000000040FF10
40FF20000000000040FF10
40FF20000000000040FF10
40FF20000000000040FF10
40FF20000000000040FF10
40FF20000000000040FF10
40FF20000000000040FF10
40FF20000000000040FF10
40FF20000000000040FF10
40FF20000000000040FF10
ENDCHAR
STARTCHAR  0420
ENCODING  1056
SWIDTH  1000 0
DWIDTH  17 0
BBX  12 14 3 0
BITMAP
001010101010101000000000
40FFFFFFFFFFFFFFFFC02000
40FF40404040404060E0E000
40FF2000000000000060FF10
40FF2000000000000040FF10
40FF2000000000000040FF10
40FF20101010101020C0E000
40FFFFFFFFFFFFFFFFE03000
40FF40404040404030000000
40FF20000000000000000000
40FF20000000000000000000
40FF20000000000000000000
40FF20000000000000000000
40FF20000000000000000000
ENDCHAR
STARTCHAR  0421
ENCODING  1057
SWIDTH  1000 0
DWIDTH  16 0
BBX  12 14 2 0
BITMAP
000000000010101000000000
000080F0FFFFFFFFF0A00000
0080FF804040404080FFA000
10F08000000000000080F000
30FF4000000000000040FF10
40FF2000000000000040FF10
40FF20000000000000002000
40FF20000000000000000000
40FF20000000000000206000
40FF2000000000000040FF10
30FF4000000000000060FF10
00F0A0000000000000A0E000
0080FF804040404080FF8000
000080E0FFFFFFFFE0600000
ENDCHAR
STARTCHAR  0422
ENCODING  1058
SWIDTH  1000 0
DWIDTH  15 0
BBX  11 14 2 0
BITMAP
1010101010101010101010
FFFFFFFFFFFFFFFFFFFFFF
4040404080FF4040404040
0000000040FF1000000000
0000000040FF1000000000
0000000040FF1000000000
0000000040FF1000000000
0000000040FF1000000000
0000000040FF1000000000
0000000040FF1000000000
0000000040FF1000000000
0000000040FF1000000000
0000000040FF1000000000
0000000040FF1000000000
ENDCHAR
STARTCHAR  0423
ENCODING  1059
SWIDTH  1000 0
DWIDTH  16 0
BBX  11 13 2 0
BITMAP
40FF30000000000020FF60
00E0A00000000000A0E000
0060FF1000000010F08000
0010F08000000080F01000
000080E0000000E0800000
000020FF600060FF200000
000000A0E000E0A0000000
00000030FF80FF40000000
00000000C0FFE000000000
0000000060FF6000000000
0000000080E00000000000
00404060F0800000000000
00FFFFF080000000000000
ENDCHAR
STARTCHAR  0424
ENCODING  1060
SWIDTH  1000 0
DWIDTH  17 0
BBX  13 13 2 0
BITMAP
000000001040FF200000000000
001080F0FFFFFFFFFFE0600000
00A0FF804080FF404080FF6000
10FF60000040FF10000080E000
40FF20000040FF10000040FF10
40FF20000040FF10000040FF10
40FF20000040FF10000040FF10
40FF20000040FF10000040FF10
20FF60000040FF10000080FF00
00C0E0601040FF202060FFA000
0020C0FFFFFFFFFFFFFFA01000
000000204080FF403010000000
000000000040FF100000000000
ENDCHAR
STARTCHAR  0425
ENCODING  1061
SWIDTH  1000 0
DWIDTH  16 0
BBX  12 13 2 0
BITMAP
40FF6000000000000060FF40
0080FF300000000030F08000
0000C0E010000010E0C00000
000020F0A00000A0F0200000
00000040FF6060FF40000000
0000000080F0FF8000000000
0000000010FFF01000000000
00000000C0E0F0A000000000
00000080FF4040FF80000000
000040FF80000080FF400000
0020F0A000000000C0E02000
00C0E0100000000010E0C000
80FF3000000000000030FF80
ENDCHAR
STARTCHAR  0426
ENCODING  1062
SWIDTH  1000 0
DWIDTH  16 0
BBX  12 15 2 -2
BITMAP
40FF20000000000040FF1000
40FF20000000000040FF1000
40FF20000000000040FF1000
40FF20000000000040FF1000
40FF20000000000040FF1000
40FF20000000000040FF1000
40FF20000000000040FF1000
40FF20000000000040FF1000
40FF20000000000040FF1000
40FF20000000000040FF1000
40FF20000000000040FF1000
40FF40404040404080FF1000
40FFFFFFFFFFFFFFFFFFE000
00000000000000000060FF10
000000000000000000208010
ENDCHAR
STARTCHAR  0427
ENCODING  1063
SWIDTH  1000 0
DWIDTH  16 0
BBX  11 13 2 0
BITMAP
40FF20000000000040FF10
40FF20000000000040FF10
40FF20000000000040FF10
40FF20000000000040FF10
40FF20000000000040FF10
40FF20000000000040FF10
30FF20000000000040FF10
10F0A0201010101040FF10
0060F0FFFFFFFFFFFFFF10
000000304040404080FF10
000000000000000040FF10
000000000000000040FF10
000000000000000040FF10
ENDCHAR
STARTCHAR  0428
ENCODING  1064
SWIDTH  1000 0
DWIDTH  15 0
BBX  13 13 1 0
BITMAP
40FF20000040FF10000040FF10
40FF20000040FF10000040FF10
40FF20000040FF10000040FF10
40FF20000040FF10000040FF10
40FF20000040FF10000040FF10
40FF20000040FF10000040FF10
40FF20000040FF10000040FF10
40FF20000040FF10000040FF10
40FF20000040FF10000040FF10
40FF20000040FF10000040FF10
40FF20000040FF10000040FF10
40FF40404080FF40404080FF10
40FFFFFFFFFFFFFFFFFFFFFF10
ENDCHAR
STARTCHAR  0429
ENCODING  1065
SWIDTH  1000 0
DWIDTH  16 0
BBX  14 15 1 -2
BITMAP
40FF20000040FF10000040FF1000
40FF20000040FF10000040FF1000
40FF20000040FF10000040FF1000
40FF20000040FF10000040FF1000
40FF20000040FF10000040FF1000
40FF20000040FF10000040FF1000
40FF20000040FF10000040FF1000
40FF20000040FF10000040FF1000
40FF20000040FF10000040FF1000
40FF20000040FF10000040FF1000
40FF20000040FF10000040FF1000
40FF40404080FF40404080FF2000
40FFFFFFFFFFFFFFFFFFFFFFE000
000000000000000000000060FF10
0000000000000000000000208010
ENDCHAR
STARTCHAR  042A
ENCODING  1066
SWIDTH  1000 0
DWIDTH  16 0
BBX  12 14 2 0
BITMAP
101010100000000000000000
A0FFFFFF2000000000000000
304080FF2000000000000000
000040FF2000000000000000
000040FF2000000000000000
000040FF2010101000000000
000040FFFFFFFFFFFFC01000
000040FF4040404060F0C000
000040FF200000000060FF00
000040FF200000000040FF10
000040FF200000000040FF10
000040FF200000000060FF10
000040FF6040404060E0C000
000040FFFFFFFFFFF0A01000
ENDCHAR
STARTCHAR  042B
ENCODING  1067
SWIDTH  1000 0
DWIDTH  16 0
BBX  12 13 2 0
BITMAP
40FF2000000000000040FF10
40FF2000000000000040FF10
40FF2000000000000040FF10
40FF2000000000000040FF10
40FF2010100000000040FF10
40FFFFFFFFFFC0200040FF10
40FF40404060E0C00040FF10
40FF2000000060FF1040FF10
40FF2000000040FF1040FF10
40FF2000000040FF1040FF10
40FF2000000060FF1040FF10
40FF40404060E0C00040FF10
40FFFFFFFFF0C0200040FF10
ENDCHAR
STARTCHAR  042C
ENCODING  1068
SWIDTH  1000 0
DWIDTH  16 0
BBX  10 13 3 0
BITMAP
40FF2000000000000000
40FF2000000000000000
40FF2000000000000000
40FF2000000000000000
40FF2010101000000000
40FFFFFFFFFFFFC02000
40FF4040404060F0C000
40FF200000000080FF10
40FF200000000040FF10
40FF200000000040FF10
40FF200000000060FF10
40FF4040404060F0C000
40FFFFFFFFFFF0A02000
ENDCHAR
STARTCHAR  042D
ENCODING  1069
SWIDTH  1000 0
DWIDTH  15 0
BBX  11 14 2 0
BITMAP
0000000010101000000000
0030E0FFFFFFFFF0A01000
00E0E04040404080F0A000
30FF40000000000060F000
40FF20000000000040FF10
40E010000000000040FF10
000000001010101040FF10
00000030FFFFFFFFFFFF10
000000104040404080FF10
30E010000000000040FF10
40FF20000000000040FF10
40FF30000000000080F000
00E0E06040404080F0A000
0030C0FFFFFFFFF0800000
ENDCHAR
STARTCHAR  042E
ENCODING  1070
SWIDTH  1000 0
DWIDTH  16 0
BBX  14 14 1 0
BITMAP
0010000000000010101000000000
40FF200010A0F0FFFFFFF0800000
40FF2000A0E06040404060F08000
40FF2010FF40000000000060F000
40FF2040FF10000000000040FF10
40FF2040FF10000000000040FF10
40FF2040FF10000000000040FF10
40FFFFFFFF10000000000040FF10
40FF4080FF10000000000040FF10
40FF2040FF10000000000040FF10
40FF2040FF20000000000040FF10
40FF2030FF60000000000080E000
40FF2000E0F080404060A0FF8000
40FF200020C0F0FFFFF0E0600000
ENDCHAR
STARTCHAR  042F
ENCODING  1071
SWIDTH  1000 0
DWIDTH  16 0
BBX  12 14 2 0
BITMAP
000000001010101010101000
0040E0FFFFFFFFFFFFFFFF10
10F0C040404040404080FF10
40FF3000000000000040FF10
40FF2000000000000040FF10
40FF2000000000000040FF10
10FFA010101010101040FF10
0080FFFFFFFFFFFFFFFFFF10
00002040C0F040404080FF10
00000010F08000000040FF10
00000060FF2000000040FF10
000000E0C00000000040FF10
3040A0FF400000000040FF10
A0FFE080000000000040FF10
ENDCHAR
STARTCHAR  0430
ENCODING  1072
SWIDTH  1000 0
DWIDTH  17 0
BBX  11 10 3 0
BITMAP
0000001010101000000000
00A0F0FFFFFFFFE0400000
30FF8040404040C0E00000
1060100000000040FF1000
0060E0FFFFFFFFFFFF2000
20FFA03030303060FF2000
40FF200000000040FF2000
40FF200000000040FF2000
10F0A040404060E0FF6010
0060F0FFFFFFF0A0A0FF40
ENDCHAR
STARTCHAR  0431
ENCODING  1073
SWIDTH  1000 0
DWIDTH  15 0
BBX  9 13 3 0
BITMAP
00000000000030A010
0040E0FFFFFFFFE000
10F0C0604040401000
40FF20000000000000
40FFA0F0FFFFE02000
40FFE0604060E0C000
40FF3000000060FF00
40FF2000000040FF10
40FF2000000040FF10
40FF2000000040FF10
40FF4000000080FF00
10F0E0604080F0A000
0030C0F0FFF0A01000
ENDCHAR
STARTCHAR  0432
ENCODING  1074
SWIDTH  1000 0
DWIDTH  16 0
BBX  10 10 3 0
BITMAP
00101010101010000000
40FFFFFFFFFFFFE04000
40FF4040404040C0E000
40FF200000000040FF10
40FF2010101010A0E000
40FFFFFFFFFFFFFF6000
40FF4040404060E0E000
40FF2000000000A0FF10
40FF6040404060E0F000
40FFFFFFFFFFFFE04000
ENDCHAR
STARTCHAR  0433
ENCODING  1075
SWIDTH  1000 0
DWIDTH  16 0
BBX  9 10 4 0
BITMAP
001010101010101000
40FFFFFFFFFFFFFF40
40FF40404040404010
40FF20000000000000
40FF20000000000000
40FF20000000000000
40FF20000000000000
40FF20000000000000
40FF20000000000000
40FF20000000000000
ENDCHAR
STARTCHAR  0434
ENCODING  1076
SWIDTH  1000 0
DWIDTH  15 0
BBX  11 12 2 -2
BITMAP
0000000000101010100000
0000000020FFFFFFFF1000
0000000080F04080FF1000
00000010F0800040FF1000
00000060FF200040FF1000
000000E0A0000040FF1000
000040FF40000040FF1000
0000A0E000000040FF1000
1040FFA040404080FF6000
40FFFFFFFFFFFFFFFFFF10
40FF20000000000040FF10
30A010000000000030A010
ENDCHAR
STARTCHAR  0435
ENCODING  1077
SWIDTH  1000 0
DWIDTH  17 0
BBX  11 10 3 0
BITMAP
0000000010101000000000
0030C0FFFFFFFFF0A01000
00E0E06040404060E0A000
40FF40000000000060FF00
40FF30101010101040FF10
40FFFFFFFFFFFFFFFFFF10
40FF404040404040404000
40FF20000000000040FF10
10F0E06040404060E0C000
0030A0F0FFFFFFF0C02000
ENDCHAR
STARTCHAR  0436
ENCODING  1078
SWIDTH  1000 0
DWIDTH  16 0
BBX  13 10 2 0
BITMAP
00000000000010000000001000
A0FFA0000040FF200010C0FF80
2080FF600040FF200080FF6020
0000C0F02040FF2040FF800000
000020FFFFFFFFFFFFE0000000
000040FF6080FF4080F0100000
0000C0E00040FF2010F0800000
0020FF600040FF2000A0E00000
40A0F0000040FF200030FF8030
E0F060000040FF20000080F0A0
ENDCHAR
STARTCHAR  0437
ENCODING  1079
SWIDTH  1000 0
DWIDTH  16 0
BBX  9 10 3 0
BITMAP
000000101010000000
0060F0FFFFFFFFC010
00F08040404040E080
30FF2000000000A0A0
10400000101020E060
00000040E0E0F0E010
40E01000000000C0A0
40FF2000000000A0C0
20FFA060404060F0A0
0060E0FFFFFFFFC020
ENDCHAR
STARTCHAR  0438
ENCODING  1080
SWIDTH  1000 0
DWIDTH  16 0
BBX  10 9 3 0
BITMAP
40FF2000000000C0FF10
40FF2000000080FFFF10
40FF20000040FF80FF10
40FF200020F08040FF10
40FF2000C0C00040FF10
40FF2080E0100040FF10
40FF60FF40000040FF10
40FFF08000000040FF10
40FFA00000000040FF10
ENDCHAR
STARTCHAR  0439
ENCODING  1081
SWIDTH  1000 0
DWIDTH  16 0
BBX  10 13 3 0
BITMAP
000040F03060F0100000
000020F0FFFFE0000000
00000010404010000000
00000000000000000000
40FF2000000000E0FF10
40FF20000000A0FFFF10
40FF20000060FFA0FF10
40FF200020F0A040FF10
40FF2000E0E01040FF10
40FF2080F0300040FF10
40FF60FF60000040FF10
40FFF0C000000040FF10
40FFE01000000040FF10
ENDCHAR
STARTCHAR  043A
ENCODING  1082
SWIDTH  1000 0
DWIDTH  16 0
BBX  9 10 3 0
BITMAP
001000000000001010
40FF20000010E0FFC0
40FF200000C0E06030
40FF2010A0F0300000
40FFFFFFFF60000000
40FF4040C0C0000000
40FF200040FF400000
40FF200000C0C00000
40FF20000040FF6040
40FF2000000080FFE0
ENDCHAR
STARTCHAR  043B
ENCODING  1083
SWIDTH  1000 0
DWIDTH  16 0
BBX  10 10 3 0
BITMAP
00000000408000000000
00000000E0FF40000000
00000040FFF0C0000000
000000A0E060FF200000
000010F08010F0800000
000060FF200080E00000
0000C0C0000020FF6000
0020FF60000000C0C000
40C0F00000000060FF20
FFE0600000000000E080
ENDCHAR
STARTCHAR  043C
ENCODING  1084
SWIDTH  1000 0
DWIDTH  16 0
BBX  12 9 2 0
BITMAP
40FFC0000000000010F0FF10
40FFFF600000000080F0FF10
40FFA0E000000020FF80FF10
40FF20E0600000A0C040FF10
40FF2060F01040FF3040FF10
40FF2000E080E0A00040FF10
40FF200040FFF0200040FF10
40FF2000006040000040FF10
40FF2000000000000040FF10
ENDCHAR
STARTCHAR  043D
ENCODING  1085
SWIDTH  1000 0
DWIDTH  16 0
BBX  10 9 3 0
BITMAP
40FF200000000040FF10
40FF200000000040FF10
40FF201010101040FF10
40FFFFFFFFFFFFFFFF10
40FF404040404080FF10
40FF200000000040FF10
40FF200000000040FF10
40FF200000000040FF10
40FF200000000040FF10
ENDCHAR
STARTCHAR  043E
ENCODING  1086
SWIDTH  1000 0
DWIDTH  17 0
BBX  11 10 3 0
BITMAP
0000000010101000000000
0030C0FFFFFFFFF0A01000
00E0E06040404060F0A000
30FF40000000000060FF00
40FF20000000000040FF10
40FF20000000000040FF10
40FF20000000000040FF10
20FF40000000000080FF00
00C0E06040404080F0A000
0010A0F0FFFFFFE0800000
ENDCHAR
STARTCHAR  043F
ENCODING  1087
SWIDTH  1000 0
DWIDTH  16 0
BBX  10 10 3 0
BITMAP
00101010101010101000
40FFFFFFFFFFFFFFFF10
40FF404040404080FF10
40FF200000000040FF10
40FF200000000040FF10
40FF200000000040FF10
40FF200000000040FF10
40FF200000000040FF10
40FF200000000040FF10
40FF200000000040FF10
ENDCHAR
STARTCHAR  0440
ENCODING  1088
SWIDTH  1000 0
DWIDTH  16 0
BBX  11 13 3 -3
BITMAP
40FFA0E0FFFFFFF0800000
40FFE08060404080F08000
40FF20000000000080F000
40FF20000000000040FF10
40FF20000000000040FF10
40FF20000000000040FF10
40FF20000000000040FF10
40FF20000000000080F000
40FFE06040404060F08000
40FFA0E0FFFFFFE0800000
40FF200000000000000000
40FF200000000000000000
40FF200000000000000000
ENDCHAR
STARTCHAR  0441
ENCODING  1089
SWIDTH  1000 0
DWIDTH  17 0
BBX  11 10 3 0
BITMAP
0000000010101000000000
0020A0F0FFFFFFFFC01000
00E0E06040404060F0C000
30FF60000000000060FF00
40FF20000000000040E010
40FF200000000000000000
40FF20000000000030C010
20FF60000000000060FF00
00C0F08040404060F0A000
0020A0F0FFFFFFF0A01000
ENDCHAR
STARTCHAR  0442
ENCODING  1090
SWIDTH  1000 0
DWIDTH  17 0
BBX  9 10 4 0
BITMAP
101010101010101010
FFFFFFFFFFFFFFFFFF
40404080FF40404040
00000040FF10000000
00000040FF10000000
00000040FF10000000
00000040FF10000000
00000040FF10000000
00000040FF10000000
00000040FF10000000
ENDCHAR
STARTCHAR  0443
ENCODING  1091
SWIDTH  1000 0
DWIDTH  16 0
BBX  10 13 3 -3
BITMAP
40FF300000000000E0A0
00E0A00000000040FF30
0080F010000000C0C000
0010FF80000020FF6000
0000A0E0000080F00000
000040FF4000E0800000
000000E0C040FF200000
00000060FFE0C0000000
00000010F0FF60000000
00000000A0E000000000
00000010F08000000000
004040C0F01000000000
00FFFFC0400000000000
ENDCHAR
STARTCHAR  0444
ENCODING  1092
SWIDTH  1000 0
DWIDTH  17 0
BBX  13 16 2 -3
BITMAP
000000000040FF100000000000
000000000040FF100000000000
000000001040FF200000000000
0010A0F0FFFFFFFFFFE0800000
00C0E0604080FF404080FF8000
20FF40000040FF10000080F000
40FF20000040FF10000040FF10
40FF20000040FF10000040FF10
40FF20000040FF10000040FF10
40FF20000040FF10000040FF10
20FF60000040FF10000080F000
00C0F0806080FF604080FF8000
0010A0E0FFFFFFFFFFE0800000
000000000040FF100000000000
000000000040FF100000000000
000000000040FF100000000000
ENDCHAR
STARTCHAR  0445
ENCODING  1093
SWIDTH  1000 0
DWIDTH  16 0
BBX  10 9 3 0
BITMAP
30F0A000000000A0F030
0040FF80000080FF4000
000060FF6060FF600000
00000080F0FFA0000000
00000020FFFF30000000
000010E0E0C0E0100000
0000C0E01010E0C01000
00A0F020000020F0A000
80F0400000000030F080
ENDCHAR
STARTCHAR  0446
ENCODING  1094
SWIDTH  1000 0
DWIDTH  17 0
BBX  11 12 3 -2
BITMAP
2080100000002080100000
40FF2000000040FF100000
40FF2000000040FF100000
40FF2000000040FF100000
40FF2000000040FF100000
40FF2000000040FF100000
40FF2000000040FF100000
40FF2000000040FF100000
40FF4040404080FF300000
40FFFFFFFFFFFFFFFFC000
000000000000000060FF10
0000000000000000208010
ENDCHAR
STARTCHAR  0447
ENCODING  1095
SWIDTH  1000 0
DWIDTH  15 0
BBX  9 9 3 0
BITMAP
40FF2000000040FF10
40FF2000000040FF10
40FF2000000040FF10
40FF2000000040FF10
30FF6000000040FF10
00C0FFFFFFFFFFFF10
00003030303060FF10
00000000000040FF10
00000000000040FF10
ENDCHAR
STARTCHAR  0448
ENCODING  1096
SWIDTH  1000 0
DWIDTH  17 0
BBX  13 10 2 0
BITMAP
20801000002080100000208010
40FF20000040FF10000040FF10
40FF20000040FF10000040FF10
40FF20000040FF10000040FF10
40FF20000040FF10000040FF10
40FF20000040FF10000040FF10
40FF20000040FF10000040FF10
40FF20000040FF10000040FF10
40FF40404080FF40404080FF10
40FFFFFFFFFFFFFFFFFFFFFF10
ENDCHAR
STARTCHAR  0449
ENCODING  1097
SWIDTH  1000 0
DWIDTH  17 0
BBX  13 12 2 -2
BITMAP
20801000208010000020801000
40FF200040FF10000040FF1000
40FF200040FF10000040FF1000
40FF200040FF10000040FF1000
40FF200040FF10000040FF1000
40FF200040FF10000040FF1000
40FF200040FF10000040FF1000
40FF200040FF10000040FF1000
40FF404080FF40404080FF1000
40FFFFFFFFFFFFFFFFFFFFC000
0000000000000000000060FF10
00000000000000000000208010
ENDCHAR
STARTCHAR  044A
ENCODING  1098
SWIDTH  1000 0
DWIDTH  16 0
BBX  11 10 2 0
BITMAP
0010101000000000000000
40FFFFFF20000000000000
104080FF20000000000000
000040FF20101010000000
000040FFFFFFFFFFE04000
000040FF40404040E0E000
000040FF2000000040FF10
000040FF2000000060FF10
000040FF60404060E0E000
000040FFFFFFFFFFE03000
ENDCHAR
STARTCHAR  044B
ENCODING  1099
SWIDTH  1000 0
DWIDTH  16 0
BBX  12 9 2 0
BITMAP
40FF2000000000000040FF10
40FF2000000000000040FF10
40FF2010101000000040FF10
40FFFFFFFFFFE0200040FF10
40FF40404060F0C00040FF10
40FF2000000080FF0040FF10
40FF2000000080FF0040FF10
40FF60404040E0C00040FF10
40FFFFFFFFF0C0200040FF10
ENDCHAR
STARTCHAR  044C
ENCODING  1100
SWIDTH  1000 0
DWIDTH  16 0
BBX  9 10 3 0
BITMAP
208010000000000000
40FF20000000000000
40FF20000000000000
40FF20101010000000
40FFFFFFFFFFFFA010
40FF4040404080FF80
40FF2000000000E0C0
40FF2000000000E0C0
40FF4030303060FF80
40FFFFFFFFFFF0A010
ENDCHAR
STARTCHAR  044D
ENCODING  1101
SWIDTH  1000 0
DWIDTH  16 0
BBX  10 10 3 0
BITMAP
00000010101000000000
0060F0FFFFFFF0A02000
10FFA040404060E0C000
40FF200000000060FF00
2080100010101040FF10
10400030C0C0C0E0FF10
40FF200000000040FF10
40FF200000000060FF10
10F0C060404060E0E000
0040E0FFFFFFF0C03000
ENDCHAR
STARTCHAR  044E
ENCODING  1102
SWIDTH  1000 0
DWIDTH  16 0
BBX  13 10 2 0
BITMAP
00100000000010101000000000
40FF200080F0FFFFFFFFC03000
40FF2020FFA040404060E0E000
40FF2040FF100000000060FF10
40FFFFFFFF100000000040FF10
40FF4080FF100000000040FF10
40FF2040FF100000000040FF10
40FF2030FF300000000060FF00
40FF2000E0E060404060E0E000
40FF200020C0F0FFFFFFC02000
ENDCHAR
STARTCHAR  044F
ENCODING  1103
SWIDTH  1000 0
DWIDTH  16 0
BBX  10 10 3 0
BITMAP
00000010101010101000
0020E0FFFFFFFFFFFF20
00A0F06040404080FF20
00C0A00000000040FF20
00A0E02010101040FF20
0030E0FFFFFFFFFFFF20
00000060FF804080FF20
000000C0E0000040FF20
104080FF40000040FF20
40FFF08000000040FF20
ENDCHAR
STARTCHAR  0451
ENCODING  1105
SWIDTH  1000 0
DWIDTH  17 0
BBX  11 13 3 0
BITMAP
0000001000001000000000
000040FF1040FF10000000
0000104000104000000000
0000000010101000000000
0030C0FFFFFFFFF0A01000
00E0E06040404060E0A000
40FF40000000000060FF00
40FF30101010101040FF10
40FFFFFFFFFFFFFFFFFF10
40FF404040404040404000
40FF20000000000040FF10
10F0E06040404060E0C000
0030A0F0FFFFFFF0C02000
ENDCHAR
STARTCHAR  2014
ENCODING  8212
SWIDTH  1000 0
DWIDTH  16 0
BBX  18 3 -1 5
BITMAP
001010101010101010101010101010101000
10FFFFFFFFFFFFFFFFFFFFFFFFFFFFFFFF10
004040404040404040404040404040404000
ENDCHAR
STARTCHAR  2016
ENCODING  8214
SWIDTH  1000 0
DWIDTH  17 0
BBX  5 17 6 -2
BITMAP
40FF60FF10
40FF60FF10
40FF60FF10
40FF60FF10
40FF60FF10
40FF60FF10
40FF60FF10
40FF60FF10
40FF60FF10
40FF60FF10
40FF60FF10
40FF60FF10
40FF60FF10
40FF60FF10
40FF60FF10
40FF60FF10
40FF60FF10
ENDCHAR
STARTCHAR  2018
ENCODING  8216
SWIDTH  1000 0
DWIDTH  16 0
BBX  3 5 11 10
BITMAP
000010
008030
10A000
40FF20
40F010
ENDCHAR
STARTCHAR  2019
ENCODING  8217
SWIDTH  1000 0
DWIDTH  16 0
BBX  3 5 2 9
BITMAP
40F010
40FF20
00A000
308000
401000
ENDCHAR
STARTCHAR  201C
ENCODING  8220
SWIDTH  1000 0
DWIDTH  16 0
BBX  6 5 9 10
BITMAP
000010000010
008060008020
10A00010A000
40FF2040FF10
40F01040F010
ENDCHAR
STARTCHAR  201D
ENCODING  8221
SWIDTH  1000 0
DWIDTH  16 0
BBX  6 5 1 9
BITMAP
40F01040F010
40FF2040FF10
00A00000A000
308000608000
401000601000
ENDCHAR
STARTCHAR  2026
ENCODING  8230
SWIDTH  1000 0
DWIDTH  17 0
BBX  15 3 1 5
BITMAP
001000000000001000000000001000
40FF2000000040FF1000000040FF10
104000000000104000000000104000
ENDCHAR
STARTCHAR  2030
ENCODING  8240
SWIDTH  1000 0
DWIDTH  16 0
BBX  14 14 1 0
BITMAP
00001000000030C0000000000000
10E0FFA00000A060000000000000
40FFA0FF1000E000000000000000
40FF60FF10408000000000000000
40FF60FF10A02000000000000000
40FF80FF20C00000000000000000
10E0FFC060600000000000000000
00000000A0A0F0F08000C0F08000
00000020C0FF6080FF40FF80FF00
0000008060FF1040FF60FF60FF10
000000A040FF1040FF60FF60FF10
0000306040FF2040FF60FF60FF10
0000801030FF80A0FF30FFA0FF00
0000800000A0FFFF8000C0FFA000
ENDCHAR
STARTCHAR  2032
ENCODING  8242
SWIDTH  1000 0
DWIDTH  16 0
BBX  4 6 3 9
BITMAP
00000000
0030C000
00A0A000
20E01000
A0400000
10000000
ENDCHAR
STARTCHAR  2033
ENCODING  8243
SWIDTH  1000 0
DWIDTH  16 0
BBX  7 6 1 9
BITMAP
00002010000000
0000A0A0006000
0020F02030FF30
00A06000C06000
00800030A00000
00000040100000
ENDCHAR
STARTCHAR  203B
ENCODING  8251
SWIDTH  1000 0
DWIDTH  16 0
BBX  14 15 1 -1
BITMAP
0000000000000000000000000000
00C040000000C0C000000030A000
0060F0200000E0E0000010E08000
0000A0E0100000000010E0A00000
000000C0C000000000A0C0000000
00000010E0A0000080E010000000
0000000020E08060F03000000000
00C0E0000030F0F0400000C0E000
00C0C0000040F0F0400000C0C000
0000000040F06040F04000000000
00000040F060000040F040000000
000040F0600000000040F0400000
0040F0600000C0C0000060F04000
00C060000000C0E000000060C000
0000000000000000000000000000
ENDCHAR
STARTCHAR  2103
ENCODING  8451
SWIDTH  1000 0
DWIDTH  16 0
BBX  14 14 1 -1
BITMAP
40E0E04000000000000000000000
E03020E000000000100000000000
E04040E00080E0FFFFFFE0800000
40E0E04080F06030203060F0A000
00000000F080000000000080F000
00000010FF60000000000060FF10
00000020FF400000000000104000
00000020FF400000000000000000
00000020FF400000000000001000
00000010FF40000000000040FF10
00000000F080000000000060F000
0000000080F06030202060F0A000
000000000080E0FFFFFFE0A01000
0000000000000000000000000000
ENDCHAR
STARTCHAR  2116
ENCODING  8470
SWIDTH  1000 0
DWIDTH  16 0
BBX  15 13 1 -1
BITMAP
108010000010A00000000000000000
30FF60000030FF0000000000000000
30FFE0000030FF0000000000000000
30FFF0400030FF0000202000000000
30FF80C00030FF00A0FFFFA0000000
30FF20FF3030FF00FF4030FF100000
30FF00A0A030FF20FF0000FF300000
30FF0030F040FF30FF0000F0300000
30FF0000C0A0FF30FF0000F0300000
30FF000040FFFF20FF1010FF200000
30FF000000C0FF00F08060F000A060
30FF00000040FF0060FFF06000FFA0
000000000000000000000000000000
ENDCHAR
STARTCHAR  2160
ENCODING  8544
SWIDTH  1000 0
DWIDTH  16 0
BBX  3 13 7 0
BITMAP
40FF20
40FF20
40FF20
40FF20
40FF20
40FF20
40FF20
40FF20
40FF20
40FF20
40FF20
40FF20
40FF20
ENDCHAR
STARTCHAR  2161
ENCODING  8545
SWIDTH  1000 0
DWIDTH  15 0
BBX  9 13 3 0
BITMAP
40FF2000000040FF10
40FF2000000040FF10
40FF2000000040FF10
40FF2000000040FF10
40FF2000000040FF10
40FF2000000040FF10
40FF2000000040FF10
40FF2000000040FF10
40FF2000000040FF10
40FF2000000040FF10
40FF2000000040FF10
40FF2000000040FF10
40FF2000000040FF10
ENDCHAR
STARTCHAR  2162
ENCODING  8546
SWIDTH  1000 0
DWIDTH  17 0
BBX  13 13 2 0
BITMAP
40FF20000040FF10000040FF10
40FF20000040FF10000040FF10
40FF20000040FF10000040FF10
40FF20000040FF10000040FF10
40FF20000040FF10000040FF10
40FF20000040FF10000040FF10
40FF20000040FF10000040FF10
40FF20000040FF10000040FF10
40FF20000040FF10000040FF10
40FF20000040FF10000040FF10
40FF20000040FF10000040FF10
40FF20000040FF10000040FF10
40FF20000040FF10000040FF10
ENDCHAR
STARTCHAR  2163
ENCODING  8547
SWIDTH  1000 0
DWIDTH  15 0
BBX  13 13 1 0
BITMAP
40FF2080F000000000000080E0
40FF2030FF300000000000C0A0
40FF2000F0800000000010FF60
40FF2000C0C00000000040FF20
40FF200080F00000000080E000
40FF200030FF30000000E0A000
40FF200000F080000010FF6000
40FF200000C0C0000040FF2000
40FF20000080F0000080E00000
40FF20000030FF4000E0A00000
40FF20000000F08010FF600000
40FF20000000C0C080FF200000
40FF2000000080FFFFE0000000
ENDCHAR
STARTCHAR  2164
ENCODING  8548
SWIDTH  1000 0
DWIDTH  16 0
BBX  12 13 2 0
BITMAP
10FF4000000000000040FF10
00E08000000000000080E000
0080E0000000000000E08000
0040FF100000000010FF4000
0010FF600000000060FF1000
0000C0A000000000A0C00000
000080E000000000F0800000
000030FF30000030FF300000
000000F080000080F0000000
000000A0C00000C0A0000000
00000060FF1010FF60000000
00000020FF8080FF20000000
00000000E0FFFFE000000000
ENDCHAR
STARTCHAR  2165
ENCODING  8549
SWIDTH  1000 0
DWIDTH  16 0
BBX  14 13 1 0
BITMAP
10FF60000000000020FF4040FF20
00E0A0000000000060FF1040FF20
0080E00000000000A0E00040FF20
0040FF2000000000E0800040FF20
0010FF6000000020FF400040FF20
0000E0A000000060FF100040FF20
000080E0000000A0E0000040FF20
000040FF200000E080000040FF20
000010FF600020FF40000040FF20
000000E0A00060FF10000040FF20
00000080E000A0E000000040FF20
00000040FF60E08000000040FF20
00000010FFFFFF4000000040FF20
ENDCHAR
STARTCHAR  2166
ENCODING  8550
SWIDTH  1000 0
DWIDTH  16 0
BBX  14 13 1 0
BITMAP
80E000000000A0A040FF2040FF10
60F000000000E08040FF2040FF10
30FF20000010FF4040FF2040FF10
10FF40000030FF2040FF2040FF10
00E080000060F00040FF2040FF10
00C0A0000080E00040FF2040FF10
0080E00000C0A00040FF2040FF10
0060FF0000E0800040FF2040FF10
0030FF3010FF400040FF2040FF10
0010FF6040FF200040FF2040FF10
0000E08060F0000040FF2040FF10
0000C0C0A0E0000040FF2040FF10
000080FFFFA0000040FF2040FF10
ENDCHAR
STARTCHAR  2167
ENCODING  8551
SWIDTH  1000 0
DWIDTH  15 0
BBX  14 13 0 0
BITMAP
20FF30000040FF40FF60FF60FF10
00F040000060E040FF60FF60FF10
00E060000080C040FF60FF60FF10
00C0800000A0A040FF60FF60FF10
00A0A00000C08040FF60FF60FF10
0080E00000E06040FF60FF60FF10
0060F00000FF4040FF60FF60FF10
0030FF1020FF2040FF60FF60FF10
0010FF3040FF0040FF60FF60FF10
0000F06060E00040FF60FF60FF10
0000E08080C00040FF60FF60FF10
0000C0C0C0A00040FF60FF60FF10
0000A0FFFF800040FF60FF60FF10
ENDCHAR
STARTCHAR  2168
ENCODING  8552
SWIDTH  1000 0
DWIDTH  16 0
BBX  14 13 1 0
BITMAP
40FF2040FF600000000010F0A000
40FF2000A0F010000000A0F01000
40FF200010F0A0000040FF600000
40FF20000060FF4000E0E0000000
40FF20000000C0E080FF30000000
40FF2000000030FFFFA000000000
40FF2000000000C0FF3000000000
40FF2000000040FFF0C000000000
40FF20000010E0C040FF60000000
40FF20000080F02000C0E0100000
40FF200030FF80000020F0800000
40FF2000C0E00000000080FF3000
40FF2060FF400000000000E0C000
ENDCHAR
STARTCHAR  2169
ENCODING  8553
SWIDTH  1000 0
DWIDTH  16 0
BBX  12 13 2 0
BITMAP
0080F0200000000020F0A000
0010E0C000000000C0E01000
000040FF60000060FF400000
000000A0F01010F0A0000000
00000010F0A0A0F010000000
0000000060FFFF6000000000
0000000010F0F01000000000
00000000A0F0F0A000000000
00000040FF6060FF40000000
000000E0C00000C0E0000000
000080FF30000030FF800000
0030FF800000000080FF3000
00C0E0000000000000E0E000
ENDCHAR
STARTCHAR  216A
ENCODING  8554
SWIDTH  1000 0
DWIDTH  16 0
BBX  14 13 1 0
BITMAP
0080F0200000000060FF4040FF20
0010E0A000000010E0A00040FF20
000040FF40000080F0200040FF20
000000C0E01030FF80000040FF20
00000020F080C0E000000040FF20
0000000080FFFF4000000040FF20
0000000020FFE00000000040FF20
00000000A0F0FF6000000040FF20
00000040FF60A0F010000040FF20
000000E0C00010F0A0000040FF20
000080FF30000060FF400040FF20
0020F08000000000C0E00040FF20
00C0E0100000000030FF8040FF20
ENDCHAR
STARTCHAR  216B
ENCODING  8555
SWIDTH  1000 0
DWIDTH  16 0
BBX  14 13 1 0
BITMAP
40FF30000010F08040FF2040FF10
00E0A0000080F01040FF2040FF10
0060FF2000E0A00040FF2040FF10
0000E08060FF200040FF2040FF10
000080F0E0A0000040FF2040FF10
000010F0FF30000040FF2040FF10
000000C0F000000040FF2040FF10
000030FFFF60000040FF2040FF10
0000A0E0A0E0000040FF2040FF10
0020FF6030FF400040FF2040FF10
0080E00000C0C00040FF2040FF10
10F080000040FF3040FF2040FF10
80F010000000E0A040FF2040FF10
ENDCHAR
STARTCHAR  2170
ENCODING  8560
SWIDTH  1000 0
DWIDTH  15 0
BBX  3 14 6 0
BITMAP
40FF20
40FF10
000000
000000
40FF20
40FF20
40FF20
40FF20
40FF20
40FF20
40FF20
40FF20
40FF20
40FF20
ENDCHAR
STARTCHAR  2171
ENCODING  8561
SWIDTH  1000 0
DWIDTH  16 0
BBX  7 14 5 0
BITMAP
40FF200040FF10
40FF100040FF10
00000000000000
00000000000000
40FF200040FF10
40FF200040FF10
40FF200040FF10
40FF200040FF10
40FF200040FF10
40FF200040FF10
40FF200040FF10
40FF200040FF10
40FF200040FF10
40FF200040FF10
ENDCHAR
STARTCHAR  2172
ENCODING  8562
SWIDTH  1000 0
DWIDTH  15 0
BBX  9 15 3 0
BITMAP
001000001000001000
40FF2040FF1040FF10
40FF2040FF1040FF10
000000000000000000
000000000000000000
40FF2040FF1040FF10
40FF2040FF1040FF10
40FF2040FF1040FF10
40FF2040FF1040FF10
40FF2040FF1040FF10
40FF2040FF1040FF10
40FF2040FF1040FF10
40FF2040FF1040FF10
40FF2040FF1040FF10
40FF2040FF1040FF10
ENDCHAR
STARTCHAR  2173
ENCODING  8563
SWIDTH  1000 0
DWIDTH  16 0
BBX  12 14 2 0
BITMAP
40FF20000000000000000000
40FF10000000000000000000
000000000000000000000000
000000000000000000000000
40FF80FF6000000000E0E000
40FF20FFC000000020FF8000
40FF20C0F000000060FF2000
40FF2060FF400000C0E00000
40FF2010F0800010FF800000
40FF2000A0C00060FF200000
40FF200060FF10A0C0000000
40FF200010F060F060000000
40FF200000A0E0FF10000000
40FF20000060FFC000000000
ENDCHAR
STARTCHAR  2174
ENCODING  8564
SWIDTH  1000 0
DWIDTH  16 0
BBX  12 11 2 0
BITMAP
008080100000000000808000
00C0FF600000000040FFA000
0060FFA000000000A0FF4000
0000F0F000000000F0E00000
000080FF40000040FF800000
000030FFA00000A0FF100000
000000E0F00000F0A0000000
00000060FF4040FF40000000
00000010F080A0E000000000
00000000A0E0F08000000000
0000000040FFFF1000000000
ENDCHAR
STARTCHAR  2175
ENCODING  8565
SWIDTH  1000 0
DWIDTH  16 0
BBX  12 15 2 0
BITMAP
000000000000000000001000
00000000000000000040FF20
00000000000000000040FF20
000000000000000000000000
000000000000000000000000
60FF800000000080FF80FF20
10F0E000000000E0E040FF20
00A0FF10000030FF8040FF20
0040FF60000080FF2040FF20
0000F0A00000C0C00040FF20
0000A0F00010FF600040FF20
000040FF4060F0100040FF20
000000E080C0A0000040FF20
00000080E0F040000040FF20
00000030FFE000000040FF20
ENDCHAR
STARTCHAR  2176
ENCODING  8566
SWIDTH  1000 0
DWIDTH  16 0
BBX  14 14 1 0
BITMAP
00000000000000000040FF60FF10
00000000000000000040FF60FF10
0000000000000000000000000000
0000000000000000000000000000
00F0C000000000A0FF60FF60FF10
00A0FF10000000E0C040FF60FF10
0040FF40000030FF6040FF60FF10
0010F080000080FF1040FF60FF10
0000A0E00000C0C00040FF60FF10
000040FF2010FF600040FF60FF10
000010F06060F0100040FF60FF10
000000A0A0A0A0000040FF60FF10
00000060F0E060000040FF60FF10
00000010F0F000000040FF60FF10
ENDCHAR
STARTCHAR  2177
ENCODING  8567
SWIDTH  1000 0
DWIDTH  15 0
BBX  15 15 0 0
BITMAP
000000000000000000100010001000
000000000000000040FF60FF60FF10
000000000000000040FF60FF60FF10
000000000000000000000000000000
000000000000000000000000000000
30FF6000000060FF60FF60FF60FF10
00E0A0000000A0E040FF60FF60FF10
00A0E0000000E08040FF60FF60FF10
0040FF200020FF3040FF60FF60FF10
0000F0600060E00040FF60FF60FF10
0000A0A000A0A00040FF60FF60FF10
000060E000F0400040FF60FF60FF10
000010FF60F0000040FF60FF60FF10
000000C0E0A0000040FF60FF60FF10
00000080FF60000040FF60FF60FF10
ENDCHAR
STARTCHAR  2178
ENCODING  8568
SWIDTH  1000 0
DWIDTH  16 0
BBX  12 15 2 0
BITMAP
001000000000000000000000
40FF20000000000000000000
40FF20000000000000000000
000000000000000000000000
000000000000000000000000
40FF20E0FF40000010E0F010
40FF2030FFE00000A0FF6000
40FF200080FF8030FFC00000
40FF200000E0FFE0F0200000
40FF20000030FFFF60000000
40FF20000040FFFF80000000
40FF200010E0E0E0FF300000
40FF2000A0FF4040FFE00000
40FF2040FFA00000A0FF8000
40FF20E0F020000010E0FF30
ENDCHAR
STARTCHAR  2179
ENCODING  8569
SWIDTH  1000 0
DWIDTH  16 0
BBX  10 10 3 0
BITMAP
60FFE010000000C0FF80
00A0FFA0000080FFC000
0010E0FF6030FFE01000
000040FFF0E0FF300000
00000080FFFF80000000
000000A0FFFF80000000
000060FFE0E0FF400000
0020F0F02040FFF02000
00E0FF60000080FFE000
A0FFA000000000C0FF80
ENDCHAR
STARTCHAR  2190
ENCODING  8592
SWIDTH  1000 0
DWIDTH  16 0
BBX  17 4 0 4
BITMAP
0010808000000000000000000000000000
80F0FFE0C0C0C0C0C0C0C0C0C0C0C0C010
0040C0A000000000000000000000000000
0000001000000000000000000000000000
ENDCHAR
STARTCHAR  2191
ENCODING  8593
SWIDTH  1000 0
DWIDTH  16 0
BBX  4 17 6 -2
BITMAP
00000000
00008000
0060FF20
00E0FF80
1080E060
0000C000
0000C000
0000C000
0000C000
0000C000
0000C000
0000C000
0000C000
0000C000
0000C000
0000C000
0000C000
ENDCHAR
STARTCHAR  2192
ENCODING  8594
SWIDTH  1000 0
DWIDTH  16 0
BBX  17 4 -1 4
BITMAP
0000000000000000000000000080801000
10C0C0C0C0C0C0C0C0C0C0C0C0E0FFF080
00000000000000000000000000A0C04000
0000000000000000000000000010000000
ENDCHAR
STARTCHAR  2193
ENCODING  8595
SWIDTH  1000 0
DWIDTH  16 0
BBX  4 17 6 -2
BITMAP
00002000
0000C000
0000C000
0000C000
0000C000
0000C000
0000C000
0000C000
0000C000
0000C000
0000C000
0000C000
0000C000
10C0F0A0
00C0FF60
0040F010
00006000
ENDCHAR
STARTCHAR  2208
ENCODING  8712
SWIDTH  1000 0
DWIDTH  16 0
BBX  12 12 2 0
BITMAP
000000001020202020202020
000060E0FFFFFFFFFFFFFFFF
0080E0401000000000000000
40E010000000000000000000
C06000000000000000000000
F0FFFFFFFFFFFFFFFFFFFFFF
F06020202020202020202020
C08000000000000000000000
60FF30000000000000000000
0080F0802000000000000000
000060E0FFFFFFFFFFFFFFFF
000000001020202020202020
ENDCHAR
STARTCHAR  220F
ENCODING  8719
SWIDTH  1000 0
DWIDTH  16 0
BBX  12 13 2 0
BITMAP
303030303030303030303020
FFFFFFFFFFFFFFFFFFFFFFF0
0000FF300000000060FF0000
0000FF300000000060FF0000
0000FF300000000060FF0000
0000FF300000000060FF0000
0000FF300000000060FF0000
0000FF300000000060FF0000
0000FF300000000060FF0000
0000FF300000000060FF0000
0000FF300000000060FF0000
0000FF300000000060FF0000
0000FF300000000060FF0000
ENDCHAR
STARTCHAR  2211
ENCODING  8721
SWIDTH  1000 0
DWIDTH  16 0
BBX  12 13 2 0
BITMAP
003030303030303030303010
30FFFFFFFFFFFFFFFFFFFF40
00A0FF600000000000000000
000080FF8000000000000000
00000060FFA0000000000000
0000000040F0C01000000000
000000000030E0E020000000
000000000040F0C010000000
0000000060FFA00000000000
00000080FF80000000000000
0000A0F06000000000000000
10C0FF603030303030303010
30FFFFFFFFFFFFFFFFFFFF40
ENDCHAR
STARTCHAR  221A
ENCODING  8730
SWIDTH  1000 0
DWIDTH  16 0
BBX  13 12 1 -1
BITMAP
0000000000A0FFFFFFFFFFFFFF
0000000000F010000000000000
0000000030E000000000000000
00000000808000000000000000
00000000C04000000000000000
00000010F00000000000000000
00000060A00000000000000000
000000A0600000000000000000
30E010E0200000000000000000
0080E0E0000000000000000000
00008080000000000000000000
00000010000000000000000000
ENDCHAR
STARTCHAR  221D
ENCODING  8733
SWIDTH  1000 0
DWIDTH  16 0
BBX  14 6 1 3
BITMAP
0000000000000000000000100000
40E0FFE08020000040A0F0FFFFA0
E060003080E0A0E0E06010000010
E060103080E0A0C0E06020001010
40E0FFE08020000030A0E0FFFFA0
0000000000000000000000000000
ENDCHAR
STARTCHAR  221E
ENCODING  8734
SWIDTH  1000 0
DWIDTH  16 0
BBX  15 6 0 3
BITMAP
000000000000000000000000100000
0040E0FFE0A020000030A0F0FFE040
00E060003080E0C0C0E080200040F0
00E060103080E0C0A0E080300060E0
0040E0FFF0A02000002080E0FFE040
000000000000000000000000000000
ENDCHAR
STARTCHAR  2220
ENCODING  8736
SWIDTH  1000 0
DWIDTH  16 0
BBX  11 11 2 1
BITMAP
0000000000000000002020
000000000000000020E0A0
0000000000000020E0C010
00000000000020E0C01000
000000000020E0C0100000
0000000020E0C010000000
00000020E0C01000000000
000020E0C0100000000000
0020E0C010000000000000
20E0FFFFFFFFFFFFFFFF80
1030303030303030303010
ENDCHAR
STARTCHAR  2225
ENCODING  8741
SWIDTH  1000 0
DWIDTH  16 0
BBX  10 17 3 -2
BITMAP
00000000000010000000
000000000000A0003000
0000000000408000A000
0000000000A020408000
0000000000A000A02000
00000000606000A00000
00000000A01040600000
00000010A000A0100000
000000604010A0000000
000000A0006040000000
0000208000A000000000
00008030208000000000
0000A000803000000000
00408000A00000000000
00A02030800000000000
00A00080200000000000
00100080000000000000
ENDCHAR
STARTCHAR  2227
ENCODING  8743
SWIDTH  1000 0
DWIDTH  16 0
BBX  12 13 2 0
BITMAP
000000000000000000000000
000000000060200000000000
0000000000C0A00000000000
0000000030E0F01000000000
00000000A080A08000000000
00000010F01030E000000000
00000080A00000C060000000
000000E030000040E0000000
000060C000000000E0400000
0000E0400000000060C00000
0030E0000000000000E03000
00A06000000000000080A000
008010000000000000108000
ENDCHAR
STARTCHAR  2228
ENCODING  8744
SWIDTH  1000 0
DWIDTH  16 0
BBX  12 13 2 0
BITMAP
000000000000000000000000
00E03000000000000040E000
0080A0000000000000A06000
0010F0100000000020F01000
0000A08000000000A0800000
000030E000000010F0200000
000000C060000080A0000000
00000040E00000E030000000
00000000E04060C000000000
0000000080A0E04000000000
0000000010F0E00000000000
0000000000A0600000000000
000000000020000000000000
ENDCHAR
STARTCHAR  2229
ENCODING  8745
SWIDTH  1000 0
DWIDTH  16 0
BBX  12 13 2 0
BITMAP
000000000010100000000000
00000080E0FFFFE060000000
0000A0E060101060E0A00000
0080E0100000000010E06000
00E06000000000000040E000
10FF2000000000000010FF10
20FF0000000000000000FF20
20FF0000000000000000FF20
20FF0000000000000000FF20
20FF0000000000000000FF20
20FF0000000000000000FF20
20FF0000000000000000FF20
20E00000000000000000E020
ENDCHAR
STARTCHAR  222A
ENCODING  8746
SWIDTH  1000 0
DWIDTH  16 0
BBX  12 12 2 0
BITMAP
20F00000000000000000F020
30FF0000000000000000FF20
30FF0000000000000000FF20
30FF0000000000000000FF20
30FF0000000000000000FF20
30FF0000000000000000FF20
20FF0000000000000000FF20
10FF1000000000000020FF10
00E06000000000000060E000
0060E0200000000020E06000
000080E060203060E0A00000
00000040C0F0F0C060000000
ENDCHAR
STARTCHAR  222B
ENCODING  8747
SWIDTH  1000 0
DWIDTH  16 0
BBX  8 13 4 0
BITMAP
0000000000101000
0000000080FFF030
00000000F0606000
00000020FF200000
00000040F0000000
00000060E0000000
00000080A0000000
000000A080000000
000000E060000000
000000F040000000
000020FF10000000
108060F000000000
30E0F06000000000
ENDCHAR
STARTCHAR  222E
ENCODING  8750
SWIDTH  1000 0
DWIDTH  16 0
BBX  7 13 4 0
BITMAP
00000000001000
00000010E0FFA0
00000060E02040
00000080A00000
000040E0A00000
0080E0F0E08000
00E020F030F000
00E030FF20F000
0080E0F0E08000
000080E0400000
000080A0000000
6040C060000000
80F0E010000000
ENDCHAR
STARTCHAR  2234
ENCODING  8756
SWIDTH  1000 0
DWIDTH  16 0
BBX  10 10 3 1
BITMAP
00000020E0A000000000
00000040FFF000000000
00000000403000000000
00000000000000000000
00000000000000000000
00000000000000000000
00000000000000000000
20400000000000106000
E0FF4000000000A0FF80
A0F0200000000080F060
ENDCHAR
STARTCHAR  2235
ENCODING  8757
SWIDTH  1000 0
DWIDTH  16 0
BBX  10 10 3 1
BITMAP
A0E0200000000080F040
F0FF4000000000C0FF80
30400000000000106010
00000000000000000000
00000000000000000000
00000000000000000000
00000000000000000000
00000000402000000000
00000040FFF000000000
00000030F0C000000000
ENDCHAR
STARTCHAR  2236
ENCODING  8758
SWIDTH  1000 0
DWIDTH  16 0
BBX  2 10 7 1
BITMAP
A060
FFA0
0000
0000
0000
0000
0000
0000
FFA0
A060
ENDCHAR
STARTCHAR  2237
ENCODING  8759
SWIDTH  1000 0
DWIDTH  16 0
BBX  10 10 3 1
BITMAP
A0E02000000000A0E020
F0FF4000000000F0FF40
30400000000000304000
00000000000000000000
00000000000000000000
00000000000000000000
00000000000000000000
A0E02000000000A0E020
F0FF4000000000F0FF40
30600000000000304000
ENDCHAR
STARTCHAR  223D
ENCODING  8765
SWIDTH  1000 0
DWIDTH  16 0
BBX  14 4 1 4
BITMAP
2060000000000060E0FFF0A02000
40F080201060E0E0803040A0FF60
0030C0FFFFE08000000000006020
0000001020000000000000000000
ENDCHAR
STARTCHAR  2248
ENCODING  8776
SWIDTH  1000 0
DWIDTH  16 0
BBX  14 6 1 3
BITMAP
0020A0F0F0C04000000000004010
40F0A0301060E0C0601020A0FF60
4080000000000060E0FFF0A03000
2080E0FFFFE0A06020001040A030
40A04010003080C0F0FFFFE08020
0000000000000000001000000000
ENDCHAR
STARTCHAR  224C
ENCODING  8780
SWIDTH  1000 0
DWIDTH  16 0
BBX  12 7 2 3
BITMAP
00A04000003080E0E0E0A030
0040C0F0F0C0802000106080
000000000000000000000000
00E0E0E0E0E0E0E0E0E0E0C0
000000000000000000000000
000000000000000000000000
00E0E0E0E0E0E0E0E0E0E0C0
ENDCHAR
STARTCHAR  2260
ENCODING  8800
SWIDTH  1000 0
DWIDTH  16 0
BBX  11 11 3 0
BITMAP
00000000000020A0000000
0000000000008080000000
000000000000E030000000
F0F0F0F0F0FFFFF0F0F0E0
0000000000C06000000000
0000000020E00000000000
FFFFFFFFFFFFFFFFFFFFE0
00000000F0200000000000
00000060C0000000000000
000000C060000000000000
0000002000000000000000
ENDCHAR
STARTCHAR  2261
ENCODING  8801
SWIDTH  1000 0
DWIDTH  16 0
BBX  11 6 3 3
BITMAP
E0E0E0E0E0E0E0E0E0E0C0
0000000000000000000000
E0E0E0E0E0E0E0E0E0E0C0
0000000000000000000000
0000000000000000000000
E0E0E0E0E0E0E0E0E0E0C0
ENDCHAR
STARTCHAR  2264
ENCODING  8804
SWIDTH  1000 0
DWIDTH  16 0
BBX  13 10 1 2
BITMAP
00000000000000000000000000
0000000000000000002060C0C0
0000000000003080E0F0A06010
00000040A0E0E0804000000000
0060E0FFE04000000000000000
00000040A0E0E0804000000000
0000000000003080E0F0A06010
0000000000000000001060C0C0
00000000000000000000000000
00FFFFFFFFFFFFFFFFFFFFFFC0
ENDCHAR
STARTCHAR  2265
ENCODING  8805
SWIDTH  1000 0
DWIDTH  16 0
BBX  12 10 2 1
BITMAP
000000000000000000000000
F0A040100000000000000000
2060C0F0C060200000000000
0000001060A0F0E080300000
0000000000000060F0FFC030
0000001060A0E0E080300000
2060C0F0C060200000000000
E0A040100000000000000000
000000000000000000000000
FFFFFFFFFFFFFFFFFFFFFFC0
ENDCHAR
STARTCHAR  226E
ENCODING  8814
SWIDTH  1000 0
DWIDTH  16 0
BBX  12 11 2 0
BITMAP
000000000000000040800000
0000000000000000A0800030
0000000000000010F0C0F0C0
000000002060C0F0E0602000
003080E0E0A060C060000000
40A0F0E0802010F010000000
00000040A0E0E0E040000000
000000000000C0A0E0F0A060
000000000010F010002060A0
000000000060A00000000000
000000000020300000000000
ENDCHAR
STARTCHAR  226F
ENCODING  8815
SWIDTH  1000 0
DWIDTH  16 0
BBX  13 11 2 0
BITMAP
000000000000C0100000000000
201000000040E0000000000000
60F0C06020A080000000000000
001040A0E0FFA0300000000000
0000000040E080E0E0A0401000
00000000A0801060C0FFC06000
00000020F0E0F0C06010000000
2080E0FFE04010000000000000
608030A0600000000000000000
000010F0100000000000000000
00001040000000000000000000
ENDCHAR
STARTCHAR  2299
ENCODING  8857
SWIDTH  1000 0
DWIDTH  16 0
BBX  12 12 2 0
BITMAP
00001080E0F0F0E080100000
0020E0A030000030A0E02000
10E06000000000000060E010
80A00000000000000000A080
E030000000A0F080000030E0
F000000010FFFFF0000000F0
F000000000C0FFA0000000F0
E020000000001000000030E0
80A00000000000000000A060
00E06000000000000060E000
0020E0A040100030A0E02000
00000060C0F0E0C060000000
ENDCHAR
STARTCHAR  22A5
ENCODING  8869
SWIDTH  1000 0
DWIDTH  16 0
BBX  12 12 2 0
BITMAP
0000000000FF200000000000
0000000000FF300000000000
0000000000FF300000000000
0000000000FF300000000000
0000000000FF300000000000
0000000000FF300000000000
0000000000FF300000000000
0000000000FF300000000000
0000000000FF300000000000
0000000000FF300000000000
30FFFFFFFFFFFFFFFFFFFF30
002020202020202020202000
ENDCHAR
STARTCHAR  2312
ENCODING  8978
SWIDTH  1000 0
DWIDTH  16 0
BBX  12 7 2 5
BITMAP
00000080E0F0F0E080100000
0020E0A030000030A0E02000
00E06000000000000060E000
60A00000000000000000A060
C030000000000000000030C0
F000000000000000000000F0
200000000000000000000030
ENDCHAR
STARTCHAR  2460
ENCODING  9312
SWIDTH  1000 0
DWIDTH  16 0
BBX  16 17 0 -2
BITMAP
00000000000000000000000000000000
0000000020A0E0FFFFE0801000000000
00000060F0E060404080E0F040000000
000060FF8020FFFFFF1010A0FF400000
0020FF8000104080FF100000A0E01000
00A0E00000000040FF10000010F08000
00F0800000000040FF10000000A0E000
30FF300000000040FF1000000060FF00
40FF200000000040FF1000000040FF10
30FF300000000040FF1000000060FF00
10FF600000000040FF10000000A0E000
00C0C00000000040FF10000010F08000
0040FF6000000040FF10000080F01000
000080F040000030A0100080FF600000
000000A0FFA040101040C0FF60000000
0000000040E0FFFFFFFFC03000000000
00000000000010303010000000000000
ENDCHAR
STARTCHAR  2461
ENCODING  9313
SWIDTH  1000 0
DWIDTH  16 0
BBX  16 17 0 -2
BITMAP
00000000000000000000000000000000
0000000020A0E0FFFFE0801000000000
00000060F0E060404080E0F040000000
000060FFA0E0FFFFFFF0C0C0FF400000
0020FF80E0E060404060E0C0A0E01000
00A0E030FF300000000060FF20F08000
00F08040FF100000000040FF10A0E000
30FF3000200000000030C0E00060FF00
40FF2000106080C0F0FFE0400040FF10
30FF3000E0F0C080402000000060FF00
10FF6030FF3000000000000000A0E000
00C0C040FF2010101010101010F08000
0040FFA0FFFFFFFFFFFFFFFFC0F01000
000080FF80404040404040A0FF600000
000000A0FFA040101040C0FF60000000
0000000040E0FFFFFFFFC03000000000
00000000000010303010000000000000
ENDCHAR
STARTCHAR  2462
ENCODING  9314
SWIDTH  1000 0
DWIDTH  16 0
BBX  16 17 0 -2
BITMAP
00000000000000000000000000000000
0000000020A0E0FFFFE0801000000000
00000060F0E060404080E0F040000000
000060FFA0C0F0FFFFF0C0C0FF400000
0020FF80F0C060404060E0C0A0E01000
00A0E040FF200000000060FF10F08000
00F08030C0100000000060FF00A0E000
30FF3000000010101020C0C00060FF00
40FF20000000E0FFFFFFF0200040FF10
30FF3000000030404040C0C00060FF00
10FF6030A0100000000040FF00A0E000
00C0C040FF200000000040FF20F08000
0040FF80FF8000000010A0E080F01000
000080F0E0FFFFFFFFFFF0C0FF600000
000000A0FFC060404080C0FF60000000
0000000040E0FFFFFFFFC03000000000
00000000000010303010000000000000
ENDCHAR
STARTCHAR  2463
ENCODING  9315
SWIDTH  1000 0
DWIDTH  16 0
BBX  16 17 0 -2
BITMAP
00000000000000000000000000000000
0000000020A0E0FFFFE0801000000000
00000060F0E060404080E0F040000000
000060FF800010E0FFFF20A0FF400000
0020FF80000080F080FF1000A0E01000
00A0E0000010F06040FF100010F08000
00F0800000A0E00040FF100000A0E000
30FF300020FF600040FF10000060FF00
40FF2000C0C0000040FF10000040FF10
30FF3040FF40000040FF10000060FF00
10FF60E0C010101040FF201000A0E000
00C0C0FFFFFFFFFFFFFFFFFF10F08000
0040FFA04040404080FF404080F01000
000080F04000000040F01080FF600000
000000A0FFA040101040C0FF60000000
0000000040E0FFFFFFFFC03000000000
00000000000010303010000000000000
ENDCHAR
STARTCHAR  2464
ENCODING  9316
SWIDTH  1000 0
DWIDTH  16 0
BBX  16 17 0 -2
BITMAP
00000000000000000000000000000000
0000000020A0E0FFFFE0801000000000
00000060FFE080406080F0F040000000
000060FFFFFFFFFFFFFFFFFFFF400000
0020FFC0FF40404040404030A0E01000
00A0E040FF1000000000000010F08000
00F08040FF1000101000000000A0E000
30FF3040FFA0FFFFFFF0C0200060FF00
40FF2040FFE060404060E0C00040FF10
30FF302080200000000060FF1060FF00
10FF602060000000000040FF10A0E000
00C0C040FF100000000060FF20F08000
0040FF60FF8020101020C0E080F01000
000080F0A0F0FFFFFFFFE0A0FF600000
000000A0FFA080406080C0FF60000000
0000000040E0FFFFFFFFC03000000000
00000000000010303010000000000000
ENDCHAR
STARTCHAR  2465
ENCODING  9317
SWIDTH  1000 0
DWIDTH  16 0
BBX  16 17 0 -2
BITMAP
00000000000000000000000000000000
0000000020A0E0FFFFE0801000000000
00000060F0E060404080E0F040000000
000060FFA0C0FFFFFFFFE0E0FF400000
0020FF80E0E060404060C0C0A0E01000
00A0E030FF300000000040F010F08000
00F08040FF1000001000103000A0E000
30FF3040FFA0E0FFFFFFC0200060FF00
40FF2040FFC060404060E0C00040FF10
30FF3040FF100000000060FF0060FF00
10FF6040FF100000000040FF10A0E000
00C0C030FF300000000060FF10F08000
0040FF60E0A020101040E0C080F01000
000080F080F0FFFFFFFFE0A0FF600000
000000A0FFA080406080C0FF60000000
0000000040E0FFFFFFFFC03000000000
00000000000010303010000000000000
ENDCHAR
STARTCHAR  2466
ENCODING  9318
SWIDTH  1000 0
DWIDTH  16 0
BBX  16 17 0 -2
BITMAP
00000000000000000000000000000000
0000000020A0E0FFFFE0801000000000
00000060FFE080406080F0F040000000
000060FFFFFFFFFFFFFFFFFFFF400000
0020FF80404040404040E0E0A0E01000
00A0E000000000000020FF8010F08000
00F08000000000000080F01000A0E000
30FF30000000000010F0A0000060FF00
40FF20000000000060FF20000040FF10
30FF300000000000E0C000000060FF00
10FF600000000040FF40000000A0E000
00C0C000000000C0E000000010F08000
0040FF60000030FF6000000080F01000
000080F0400060A010000080FF600000
000000A0FFA040101040C0FF60000000
0000000040E0FFFFFFFFC03000000000
00000000000010303010000000000000
ENDCHAR
STARTCHAR  2467
ENCODING  9319
SWIDTH  1000 0
DWIDTH  16 0
BBX  16 17 0 -2
BITMAP
00000000000000000000000000000000
0000000020A0E0FFFFE0801000000000
00000060F0E060404080E0F040000000
000060FFA0E0FFFFFFE080A0FF400000
0020FF80E0E060404060E060A0E01000
00A0E030FF400000000060A010F08000
00F08030FF300000000040A000A0E000
30FF3000E0C020101020E0600060FF00
40FF200040FFFFFFFFFFC0000040FF10
30FF3000E0C040404040C0600060FF00
10FF6030FF200000000020A000A0E000
00C0C040FF200000000020A010F08000
0040FF60FFA020101020A08080F01000
000080F0C0FFFFFFFFFFA080FF600000
000000A0FFC080404060C0FF60000000
0000000040E0FFFFFFFFC03000000000
00000000000010303010000000000000
ENDCHAR
STARTCHAR  2468
ENCODING  9320
SWIDTH  1000 0
DWIDTH  16 0
BBX  16 17 0 -2
BITMAP
00000000000000000000000000000000
0000000020A0E0FFFFE0801000000000
00000060F0E060404080E0F040000000
000060FFA0C0F0FFFFF0A0A0FF400000
0020FF80E0E060404060F0A0A0E01000
00A0E030FF300000000060F010F08000
00F08040FF100000000040FF10A0E000
30FF3040FF200000000040FF1060FF00
40FF2010FFA020101040A0FF1040FF10
30FF300060F0FFFFFFFFE0FF1060FF00
10FF600010103040301040FF10A0E000
00C0C030FF200000000060FF10F08000
0040FF60FF8020101020C0C080F01000
000080F0E0FFFFFFFFFFE0A0FF600000
000000A0FFC080406080C0FF60000000
0000000040E0FFFFFFFFC03000000000
00000000000010303010000000000000
ENDCHAR
STARTCHAR  2469
ENCODING  9321
SWIDTH  1000 0
DWIDTH  16 0
BBX  16 17 0 -2
BITMAP
00000000000000000000000000000000
0000000020A0E0FFFFE0801000000000
00000060A060404060A0F0F040000000
000060F0FF100080F0FFFFFFFF400000
0020E060FF1020FFA04040C0FFE01000
00A08040FF1040FF20000040FFFF8000
00F04040FF1040FF10000040FFC0E000
30FF2040FF1040FF10000040FF80FF00
40FF2040FF1040FF10000040FF60FF10
30FF3040FF1040FF10000040FF60FF00
10FF8040FF1040FF10000040FFA0E000
00C0E040FF1040FF10000040FFFF8000
0040FFC0FF1030FF601010A0FFF01000
000080FFFF1000A0FFFFFFFFFF600000
000000A0FFA040104080F0FF60000000
0000000040E0FFFFFFFFC03000000000
00000000000010303010000000000000
ENDCHAR
STARTCHAR  2474
ENCODING  9332
SWIDTH  1000 0
DWIDTH  17 0
BBX  17 15 0 -1
BITMAP
000020E0200000000000000080C0000000
0000A0A0000000000000000000E0400000
0030FF200040FFFFFF1000000060E00000
00A0C00000104080FF1000000010F04000
00E0800000000040FF1000000000A0A000
10FF400000000040FF100000000080E000
30FF200000000040FF100000000060FF00
40FF200000000040FF100000000040FF10
40FF200000000040FF100000000060FF10
20FF400000000040FF100000000060F000
00E0600000000040FF1000000000A0C000
00A0C00000000040FF1000000000E06000
0030FF2000000040E01000000040F01000
0000A080000000000000000000E0600000
000010E0200000000000000060C0000000
ENDCHAR
STARTCHAR  2475
ENCODING  9333
SWIDTH  1000 0
DWIDTH  16 0
BBX  16 15 0 -1
BITMAP
000040C00000000000000000C0200000
0000E040000000000000000060800000
0040F00030C0FFFFFFF0A02010F01000
00A0A000E0E060404060E0C000C06000
00F06030FF300000000060FF1080C000
20FF4040FF100000000040FF1060E000
40FF2000200000000030C0E00040FF00
40FF20001060A0C0F0FFE0400040FF10
40FF2000E0F0C080402000000040FF10
20FF4030FF300000000000000060F000
00F06040FF201010101010100080C000
00A0A040FFFFFFFFFFFFFFFF40C08000
0040F010404040404040404010F02000
0000E040000000000000000060A00000
000030C00000000000000000C0200000
ENDCHAR
STARTCHAR  2476
ENCODING  9334
SWIDTH  1000 0
DWIDTH  16 0
BBX  16 15 0 -1
BITMAP
000030E00000000000000010E0100000
0000C0600000000000000000A0800000
0040F01030C0F0FFFFF0C02030F01000
00A0A000E0E060404060E0C000E06000
00E06030FF300000000060FF00A0A000
20FF4040FF100000000060FF0060E000
30FF2000000010101020C0C00040FF00
40FF20000000E0FFFFFFF0200040FF10
40FF2000000030404040C0C00040FF10
20FF4030A0100000000040FF0060F000
00F06040FF200000000040FF1080C000
00A0A020FF8000000010A0E000E08000
0040F01080FFFFFFFFFFF04020FF2000
0000C060001030303030000080A00000
000030E00000000000000010E0100000
ENDCHAR
STARTCHAR  2477
ENCODING  9335
SWIDTH  1000 0
DWIDTH  16 0
BBX  16 17 0 -2
BITMAP
00000030000000000000001030000000
000060C00000000000000000E0200000
0000E040000000000000000080A00000
0060F000000010E0FFFF100020F01000
00A0A000000080F080FF100000E06000
00F060000010F06040FF100000A0C000
20FF400000A0E00040FF10000060E000
40FF200020FF600040FF10000040FF00
40FF2000C0C0000040FF10000040FF10
40FF2040FF40000040FF10000040FF10
20FF30E0C010101040FF20100060F000
00F060FFFFFFFFFFFFFFFFFF0080C000
00C0A0404040404080FF404000C08000
0060E0000000000040FF100010FF3000
0000E040000000001060000060C00000
000060C00000000000000000E0300000
00000040000000000000001040000000
ENDCHAR
STARTCHAR  2478
ENCODING  9336
SWIDTH  1000 0
DWIDTH  16 0
BBX  16 15 0 -1
BITMAP
000040C00000000000000010E0100000
0000E040101010101010101080800000
0040F040FFFFFFFFFFFFFFE030F01000
00A0A040FF4040404040403000E06000
00F06040FF1000101000000000A0A000
20FF4040FFA0FFFFFFF0A0100060E000
40FF2040FFE060404060F0A00040FF00
40FF2030C0300000000080FF0040FF10
40FF200000000000000040FF1040FF10
20FF4040FF000000000040FF1060F000
00F06030FF100000000060FF1080C000
00A0A000F0A020101030E0C000E08000
0040F00040F0FFFFFFFFE02020FF2000
0000E040000030404030000080A00000
000030C00000000000000010E0200000
ENDCHAR
STARTCHAR  2479
ENCODING  9337
SWIDTH  1000 0
DWIDTH  16 0
BBX  16 15 0 -1
BITMAP
000030E00000000000000010E0100000
0000C0600000000000000000A0800000
0040F01020C0FFFFFFFFE04030F01000
00A0A000E0E060404060C0E000E06000
00E06030FF300000000040FF00A0A000
20FF4040FF100000100000000060E000
30FF2040FFA0E0FFFFFFC0200040FF00
40FF2040FFC060404060E0C00040FF10
40FF2040FF100000000060FF0040FF10
20FF4040FF100000000040FF1060F000
00F06030FF300000000060FF0080C000
00A0A000E0A020101040E0C000E08000
0040F01040F0FFFFFFFFE03020FF2000
0000C060000030404030000080A00000
000030E00000000000000010E0200000
ENDCHAR
STARTCHAR  247A
ENCODING  9338
SWIDTH  1000 0
DWIDTH  16 0
BBX  16 15 0 -1
BITMAP
000030E00000000000000010E0100000
0000C060101010101010101080800000
0040F010FFFFFFFFFFFFFFFF20F01000
00A0A000404040404040E0E000E06000
00E06000000000000020FF8000A0A000
10FF4000000000000080F0100060E000
30FF20000000000010F0A0000040FF00
40FF20000000000060FF30000040FF10
40FF200000000000E0C000000040FF10
20FF400000000040FF6000000060F000
00F06000000000A0E00000000080C000
00A0A000000010FF8000000000E08000
0040F010000060F01000000020FF2000
0000C060000000000000000080A00000
000030E00000000000000010E0200000
ENDCHAR
STARTCHAR  247B
ENCODING  9339
SWIDTH  1000 0
DWIDTH  16 0
BBX  16 15 0 -1
BITMAP
000030E00000000000000030E0000000
0000C0600000000000000000C0600000
0040F01030E0FFFFFFE0A01040E00000
00A0A000E0E060404060E0A000E06000
00E06030FF400000000060E000A0A000
10FF4030FF300000000040E00060E000
30FF2000E0C020101020E0A00040FF00
40FF200040FFFFFFFFFFE0100040FF10
40FF2000E0C040404040C0800060FF10
20FF4030FF200000000020E00060F000
00F06040FF200000000020E000A0C000
00A0A010FFA020101020A0C000E08000
0040F01060F0FFFFFFFFC02030F01000
0000C0600010304030200000A0800000
000030E00000000000000020E0100000
ENDCHAR
STARTCHAR  247C
ENCODING  9340
SWIDTH  1000 0
DWIDTH  16 0
BBX  16 15 0 -1
BITMAP
000030C00000000000000010E0100000
0000C0600000000000000000A0800000
0040F01020C0F0FFFFF0A01030F01000
00A0A000E0E060404060F0A000E06000
00E06030FF300000000060F000A0A000
20FF4040FF100000000040FF1060E000
30FF2040FF200000000040FF1040FF00
40FF2010FFA020101040A0FF1040FF10
40FF200060F0FFFFFFFFE0FF1040FF10
20FF400000103040301040FF1060F000
00F06030FF200000000060FF1080C000
00A0A010FF8020101020C0C000E08000
0040F00080FFFFFFFFFFE03020FF2000
0000C060002040404030000080A00000
000030E00000000000000010E0100000
ENDCHAR
STARTCHAR  247D
ENCODING  9341
SWIDTH  1000 0
DWIDTH  16 0
BBX  16 15 0 -1
BITMAP
000040C0000000000000000080600000
0000E040000000000000000030E00000
0040F0E0FF100080F0FFFFE040F03000
00A0A060FF1020FFA04040C0E0C08000
00F06040FF1040FF20000040FF80C000
20FF4040FF1040FF10000040FF80F000
40FF2040FF1040FF10000040FF60FF10
40FF2040FF1040FF10000040FF60FF10
40FF2040FF1040FF10000040FF60FF10
20FF4040FF1040FF10000040FF80F000
00F06040FF1040FF10000040FF80E000
00A0A040FF1030FF601010A0F0A0A000
0040F040FF1000A0FFFFFFFF60E04000
0000E060400000003040401020E00000
000030C0000000000000000080800000
ENDCHAR
STARTCHAR  247E
ENCODING  9342
SWIDTH  1000 0
DWIDTH  16 0
BBX  16 15 0 -1
BITMAP
000030C00000000000000030E0000000
0000C0600000000000000000A0600000
0040F060FFFF100080FFFF1040E00000
00A0A01080FF10002080FF1000E06000
00E0600040FF10000040FF1000A0A000
20FF400040FF10000040FF100060E000
30FF200040FF10000040FF100040FF00
40FF200040FF10000040FF100040FF10
40FF200040FF10000040FF100040FF10
20FF400040FF10000040FF100060F000
00F0600040FF10000040FF1000A0C000
00A0A00040FF10000040FF1000E08000
0040F00040E010000040E01030F01000
0000C0600000000000000000A0800000
000030C00000000000000020E0100000
ENDCHAR
STARTCHAR  247F
ENCODING  9343
SWIDTH  1000 0
DWIDTH  16 0
BBX  16 17 0 -2
BITMAP
00000030000000000000001020000000
000060A00000000000000000E0100000
0000E040000000000000000080800000
0060E0E0FF100060F0FFF08020F01000
00A0A060FF1000F0A04060F020E06000
00F06040FF1030FF300000C060A0A000
20FF4040FF1040FF100000C06060E000
40FF2040FF102080100000E06040FF00
40FF2040FF1000000060E0FF2040FF10
40FF2040FF100040E0FFE0400040FF10
20FF3040FF1010FFE06000000060F000
00F06040FF1040FF200000000080C000
00C0A040FF1040FF2010101000C08000
0060E040FF1040FFFFFFFFFF60FF3000
0000E040400010404040404080C00000
000060A00000000000000000E0300000
00000040000000000000001030000000
ENDCHAR
STARTCHAR  2480
ENCODING  9344
SWIDTH  1000 0
DWIDTH  16 0
BBX  16 15 0 -1
BITMAP
000040C00000000000000060C0000000
0000E0400000000000000000E0600000
0040F0E0FF1040E0FFFFE06060E00000
00A0A060FF20F0C06040C0FF10F04000
00F06040FF40FF20000040FF40A0A000
20FF4040FF40C010000040FF4060E000
40FF2040FF100000101080F01040FF00
40FF2040FF100060FFFFFF800040FF10
40FF2040FF1000104040A0F01060FF10
20FF4040FF40C010000020FF4060F000
00F06040FF60FF20000020FF40A0C000
00A0A040FF30FF80101080FF20E06000
0040F040FF10A0FFFFFFFF8040F01000
0000E0604000002040402000C0800000
000030C00000000000000040E0000000
ENDCHAR
STARTCHAR  2481
ENCODING  9345
SWIDTH  1000 0
DWIDTH  16 0
BBX  16 17 0 -2
BITMAP
00000030000000000000000030000000
000060A00000000000000000A0400000
0000E040000000000000000040C00000
0060E0E0FF10000000A0FFFF20F02000
00A0A060FF10000020FFA0FF10C08000
00F06040FF10000080E040FF1080C000
20FF4040FF100010F06040FF1060F000
40FF2040FF100080E00040FF1040FF00
40FF2040FF1000E0800040FF1040FF10
40FF2040FF1060F0100040FF1040FF10
20FF3040FF10E0A0101040FF2060F000
00F06040FF10FFFFFFFFFFFFFF80E000
00C0A040FF104040404080FF40A0A000
0060E040FF100000000040FF10E04000
0000E040400000000000104030E00000
000060A0000000000000000080600000
00000040000000000000000040000000
ENDCHAR
STARTCHAR  2482
ENCODING  9346
SWIDTH  1000 0
DWIDTH  16 0
BBX  16 16 0 -1
BITMAP
00002080000000000000000080400000
0000A060000000000000000060C00000
0020FF20100010101010101020FF1000
0080C0E0FF60FFFFFFFFFFFFC0E06000
00E08040FF60FF404040404030A0A000
10FF4040FF60FF10000000000060E000
30FF3040FF60FFA0F0FFF0C02060FF00
40FF2040FF60FFE0604060E0E040FF10
40FF2040FF40802000000060FF60FF10
30FF3040FF30600000000040FF60FF00
10FF4040FF60FF2000000040FF80F000
00E08040FF30FFA0201020C0E080C000
0080C040FF1080FFFFFFFFF040C08000
0020F020400000104040301000F03000
0000A060000000000000000040E00000
000020A0000000000000000080400000
ENDCHAR
STARTCHAR  2483
ENCODING  9347
SWIDTH  1000 0
DWIDTH  16 0
BBX  16 16 0 -2
BITMAP
000040C00000000000000000A0600000
0000E040000000000000000040E00000
0040F0E0FF100040E0FFFFE040F03000
00A0A060FF1000F0C06040C0E0C08000
00E06040FF1030FF20000060FFA0C000
10FF4040FF1040FF100010000060F000
30FF2040FF1040FFC0F0FFE04040FF00
40FF2040FF1040FFA04040E0E040FF10
40FF2040FF1040FF10000060FF60FF10
20FF3040FF1040FF10000040FF60FF00
00F06040FF1030FF20000040FF80E000
00C08040FF1000F0A01020C0E0A0A000
0060E040FF100060FFFFFFFF40E06000
0000E040400000002040401020F01000
000060A0000000000000000080A00000
00000040000000000000000030100000
ENDCHAR
STARTCHAR  2484
ENCODING  9348
SWIDTH  1000 0
DWIDTH  16 0
BBX  16 16 0 -1
BITMAP
00001030000000000000003020000000
000080600000000000000040C0000000
0010F0100000000000000000C0600000
0060C0E0F010F0F0F0F0F0F040E00000
00C08060FF1040404040A0E000E06000
00F04040FF1000000000C0A000A0A000
20FF3040FF1000000010FF400060F000
40FF2040FF1000000060F0000040FF10
40FF2040FF10000000C0A0000040FF10
30FF2040FF10000010FF40000060FF00
20FF4040FF10000060F000000080E000
00E06040FF100000C0A0000000C0A000
00A0A040FF100010FF40000010F04000
0040E020A0100030A000000060E00000
0000C0300000000000000010E0400000
00003060000000000000006080000000
ENDCHAR
STARTCHAR  2485
ENCODING  9349
SWIDTH  1000 0
DWIDTH  16 0
BBX  16 15 0 -1
BITMAP
000040C00000000000000040C0000000
0000E0400000000000000000C0600000
0040F0E0FF1040E0FFFFE04040E00000
00A0A060FF20F0F0604060F010F04000
00F06040FF60FFA0000000C040A0A000
20FF4040FF60FFA0000000A04060E000
40FF2040FF20F0F0201030E01040FF00
40FF2040FF1060FFFFFFFF800040FF10
40FF2040FF20F0A04040A0F01060FF10
20FF4040FF40FF20000010FF4060F000
00F06040FF60FF20000010FF40A0C000
00A0A040FF30FF80101080FF20E06000
0040F040FF1080FFFFFFFF8040F01000
0000E0604000001030301000A0800000
000030C00000000000000040E0000000
ENDCHAR
STARTCHAR  2486
ENCODING  9350
SWIDTH  1000 0
DWIDTH  16 0
BBX  16 15 0 -1
BITMAP
000040C0000000000000000080600000
0000E040000000000000000040E00000
0040F0E0FF1040E0FFFFF0C010F03000
00A0A060FF20E0E0604060F0A0C08000
00F06040FF40FF3000000060F080C000
20FF4040FF60FF1000000040FF80F000
40FF2040FF40FF2000000040FF60FF10
40FF2040FF20F080100030A0FF60FF10
40FF2040FF1060F0FFFFFFE0FF60FF10
20FF4040FF20101030301040FF80F000
00F06040FF40FF3000000060FF80E000
00A0A040FF20FF80101020C0E0A0A000
0040F040FF1080FFFFFFFFF040E04000
0000E060400000203040301030E00000
000030C0000000000000000080800000
ENDCHAR
STARTCHAR  2487
ENCODING  9351
SWIDTH  1000 0
DWIDTH  16 0
BBX  16 15 0 -1
BITMAP
0000A0800000000000000010F0300000
0020F0200000000000000000A0A00000
0060E060E0FFF04000A0FFFFA0FF1000
00C0A0FFA040A0E030FF80A0F0E06000
00F0A0FF200040FF60FF2040FFA0C000
20FF80FF100040FF60FF1040FF80F000
30FF2000000080FF40FF1040FF60FF00
40FF200010A0FFA040FF1040FF60FF10
40FF2060F0FFA01040FF1040FF60FF10
20FF40FFE030000040FF1040FF80F000
00FFA0FF2000000040FF1040FFA0E000
00E0E0FF2010101030FF4080FFE08000
0080FFFFFFFFFFFF20E0FFFFC0FF3000
0020FF60404040400010403080C00000
0000A0800000000000000010F0400000
ENDCHAR
STARTCHAR  2488
ENCODING  9352
SWIDTH  1000 0
DWIDTH  16 0
BBX  9 14 5 0
BITMAP
101010100000000000
C0FFFFFF2000000000
304080FF2000000000
000040FF2000000000
000040FF2000000000
000040FF2000000000
000040FF2000000000
000040FF2000000000
000040FF2000000000
000040FF2000000000
000040FF2000000000
000040FF2000000000
000040FF2000104000
000040FF200040FF10
ENDCHAR
STARTCHAR  2489
ENCODING  9353
SWIDTH  1000 0
DWIDTH  16 0
BBX  14 14 2 0
BITMAP
0000000010101000000000000000
0010A0FFFFFFFFFFE06000000000
00C0E06040404060F0FF40000000
20FF60000000000060FFA0000000
40FF20000000000030FFC0000000
40FF20000000000040FFA0000000
30C0100000000040E0FF60000000
000000002080E0FFF08000000000
001060C0FFE0A040000000000000
00E0FFA040000000000000000000
30FF400000000000000000000000
40FF200000000000000000000000
40FF604040404040404030104000
40FFFFFFFFFFFFFFFFFFA040FF10
ENDCHAR
STARTCHAR  248A
ENCODING  9354
SWIDTH  1000 0
DWIDTH  15 0
BBX  13 14 2 0
BITMAP
00000000101010000000000000
0020A0FFFFFFFFF0A000000000
00E0E06040404080F080000000
30FF40000000000080E0000000
40FF20000000000060F0000000
208010000000000060E0000000
0000001010101030E080000000
000000C0FFFFFFFFE000000000
0000003040404060E080000000
104000000000000060E0000000
40FF20000000000060F0000000
30FF30000000000060E0000000
10F0C02010101030E0A0104000
0040E0FFFFFFFFF0A01040FF10
ENDCHAR
STARTCHAR  248B
ENCODING  9355
SWIDTH  1000 0
DWIDTH  16 0
BBX  13 14 3 0
BITMAP
00000000000010101000000000
000000000040FFFFFF10000000
0000000010E0A080FF10000000
00000000A0E01040FF10000000
00000060FF400040FF10000000
000010F0A0000040FF10000000
0000C0E010000040FF10000000
0060FF4000000040FF10000000
20F0800000000040FF10000000
C0E0101010101040FF20000000
FFFFFFFFFFFFFFFFFFFF000000
4040404040404080FF40000000
0000000000000040FF10104000
0000000000000040FF1040FF10
ENDCHAR
STARTCHAR  248C
ENCODING  9356
SWIDTH  1000 0
DWIDTH  15 0
BBX  13 14 2 0
BITMAP
00101010101010101010000000
40FFFFFFFFFFFFFFFFE0000000
40FF4040404040404030000000
40FF2000000000000000000000
40FF2000000000000000000000
40FF2000101010000000000000
40FF80F0FFFFFFF0A010000000
40FFFF8040404080F0A0000000
208040000000000080FF000000
000000000000000040FF100000
40E010000000000040FF100000
40FF30000000000080FF000000
10F0C06040404080F0C0104000
0030C0FFFFFFFFF0A01040FF10
ENDCHAR
STARTCHAR  248D
ENCODING  9357
SWIDTH  1000 0
DWIDTH  15 0
BBX  13 14 2 0
BITMAP
00000000101010000000000000
0010A0F0FFFFFFF0A010000000
00C0F08040404060E0C0000000
30FF60000000000060FF100000
40FF20000000000040FF100000
40FF2000001010000010000000
40FF80E0FFFFFFFFA010000000
40FFF08040404060F0A0000000
40FF30000000000060F0000000
40FF20000000000040FF100000
40FF20000000000040FF100000
10FF40000000000060FF100000
00A0E04030303060F0E0104000
001080E0FFFFFFF0A02040FF10
ENDCHAR
STARTCHAR  248E
ENCODING  9358
SWIDTH  1000 0
DWIDTH  15 0
BBX  11 14 3 0
BITMAP
1010101010101010101000
FFFFFFFFFFFFFFFFFFFF00
4040404040404080FFE000
00000000000000A0FF6000
00000000000020FFE00000
00000000000080FF600000
000000000010F0F0100000
000000000060FF80000000
0000000000E0F010000000
0000000040FF8000000000
00000000C0F01000000000
00000020FF800000000000
00000080F0100000104000
000010F0A000000040FF10
ENDCHAR
STARTCHAR  248F
ENCODING  9359
SWIDTH  1000 0
DWIDTH  15 0
BBX  13 14 2 0
BITMAP
00000000101010000000000000
0010A0F0FFFFFFF0A010000000
00C0F06040404080FFA0000000
20FF60000000000080F0000000
40FF20000000000040FF100000
30FF40000000000080F0000000
00E0E03010101040F080000000
0020E0FFFFFFFFFFC000000000
00E0E06040404060F080000000
30FF40000000000060F0000000
40FF20000000000040FF100000
20FF40000000000080FF000000
00C0F06040404080F0A0104000
0010A0F0FFFFFFF0A01040FF10
ENDCHAR
STARTCHAR  2490
ENCODING  9360
SWIDTH  1000 0
DWIDTH  15 0
BBX  13 14 2 0
BITMAP
00000000101010000000000000
0010A0F0FFFFFFF08000000000
00C0E060404040A0FF80000000
20FF600000000000A0F0000000
40FF20000000000040FF100000
40FF20000000000040FF100000
20FF40000000000040FF100000
00E0E03000001060E0FF100000
0020C0FFFFFFFFF0C0FF100000
000000103030301040FF100000
30E010000000000040FF100000
30FF40000000000080E0000000
00E0E06040404080F080104000
0020C0F0FFFFFFE0800040FF10
ENDCHAR
STARTCHAR  2491
ENCODING  9361
SWIDTH  1000 0
DWIDTH  16 0
BBX  15 14 1 0
BITMAP
101010000000001010000000000000
FFFFFF200040E0FFFFFFC010000000
4080FF2000E0C0404060E0A0000000
0040FF2030FF3000000060F0000000
0040FF2040FF1000000040FF100000
0040FF2040FF1000000040FF100000
0040FF2040FF1000000040FF100000
0040FF2040FF1000000040FF100000
0040FF2040FF1000000040FF100000
0040FF2040FF1000000040FF100000
0040FF2040FF1000000040FF100000
0040FF2020FF4000000080F0000000
0040FF2000C0E0604060F0A0104000
0040FF200020C0FFFFFFC01040FF10
ENDCHAR
STARTCHAR  2492
ENCODING  9362
SWIDTH  1000 0
DWIDTH  16 0
BBX  15 14 1 0
BITMAP
001010100000001010100000000000
00FFFFFF200000F0FFFF1000000000
004080FF2000004080FF1000000000
000040FF2000000040FF1000000000
000040FF2000000040FF1000000000
000040FF2000000040FF1000000000
000040FF2000000040FF1000000000
000040FF2000000040FF1000000000
000040FF2000000040FF1000000000
000040FF2000000040FF1000000000
000040FF2000000040FF1000000000
000040FF2000000040FF1000000000
000040FF2000000040FF1000104000
000040FF2000000040FF100040FF10
ENDCHAR
STARTCHAR  2493
ENCODING  9363
SWIDTH  1000 0
DWIDTH  16 0
BBX  15 14 1 0
BITMAP
101010000000001010000000000000
FFFFFF200040E0FFFFFFE030000000
4080FF2000E0E0404040E0C0000000
0040FF2020FF4000000040F0000000
0040FF2040FF2000000020FF100000
0040FF2040FF1000000030FF000000
0040FF20104000000010C0C0000000
0040FF200000001080F0E030000000
0040FF20001080F0E0600000000000
0040FF2000E0F06000000000000000
0040FF2040FF400000000000000000
0040FF2040FF100000000000000000
0040FF2040FF604040404040104000
0040FF2040FFFFFFFFFFFFFF40FF10
ENDCHAR
STARTCHAR  2494
ENCODING  9364
SWIDTH  1000 0
DWIDTH  16 0
BBX  15 14 1 0
BITMAP
101010000000001010000000000000
FFFFFF200030E0FFFFFFC020000000
4080FF2000E0E0404060E0A0000000
0040FF2030FF4000000060F0000000
0040FF2040FF2000000040FF100000
0040FF2020801000000060FF100000
0040FF20000000101010C0E0000000
0040FF20000030FFFFFFFF40000000
0040FF2000001040404080C0000000
0040FF2010400000000000F0000000
0040FF2040FF1000000000E0100000
0040FF2040FF3000000010F0000000
0040FF2010F0C0604060C0E0104000
0040FF200040E0FFFFFFE03040FF10
ENDCHAR
STARTCHAR  2495
ENCODING  9365
SWIDTH  1000 0
DWIDTH  16 0
BBX  15 14 1 0
BITMAP
101010000000000000101000000000
FFFFFF2000000000C0FFFF10000000
4080FF2000000030F080FF10000000
0040FF20000000C0A040FF10000000
0040FF20000040F01040FF10000000
0040FF200000C0800040FF10000000
0040FF200040F0100040FF10000000
0040FF2000C080000040FF10000000
0040FF2040F010000040FF10000000
0040FF20E08010101040FF20100000
0040FF20FFFFFFFFFFFFFFFFFF0000
0040FF20404040404080FF40400000
0040FF20000000000040FF10004000
0040FF20000000000040FF1000FF10
ENDCHAR
STARTCHAR  2496
ENCODING  9366
SWIDTH  1000 0
DWIDTH  16 0
BBX  15 14 1 0
BITMAP
101010000010101010101010000000
FFFFFF2040FFFFFFFFFFFFE0000000
4080FF2040FF404040404030000000
0040FF2040FF100000000000000000
0040FF2040FF100000000000000000
0040FF2040FF100010100000000000
0040FF2040FFA0FFFFFFE030000000
0040FF2040FFE0604060E0C0000000
0040FF2020802000000060FF000000
0040FF2000000000000040FF100000
0040FF2040E01000000040FF100000
0040FF2040FF3000000060FF100000
0040FF2010F0C0604060E0E0104000
0040FF200040E0FFFFFFE03040FF10
ENDCHAR
STARTCHAR  2497
ENCODING  9367
SWIDTH  1000 0
DWIDTH  16 0
BBX  15 14 1 0
BITMAP
101010000000000010000000000000
FFFFFF200020C0FFFFFFE030000000
4080FF2000E0E0604060E0E0000000
0040FF2020FF4000000060FF100000
0040FF2040FF2000000040FF100000
0040FF2040FF100010100010000000
0040FF2040FFA0F0FFFFE030000000
0040FF2040FFE0604060E0E0000000
0040FF2040FF2000000060FF000000
0040FF2040FF1000000040FF100000
0040FF2040FF1000000040FF100000
0040FF2020FF4000000060FF100000
0040FF2000E0E0606060E0E0104000
0040FF200020C0F0FFFFE03040FF10
ENDCHAR
STARTCHAR  2498
ENCODING  9368
SWIDTH  1000 0
DWIDTH  16 0
BBX  14 14 1 0
BITMAP
1010100000101010101010101000
F0FFFF2000FFFFFFFFFFFFFFFF00
4080FF2000404040404040F0E000
0040FF2000000000000040FF8000
0040FF20000000000000A0FF2000
0040FF20000000000010F0C00000
0040FF20000000000060FF600000
0040FF200000000000A0F0100000
0040FF200000000010F0A0000000
0040FF200000000060FF30000000
0040FF2000000000C0E000000000
0040FF2000000010FF6000000000
0040FF2000000060F01000104000
0040FF20000000C0A0000040FF10
ENDCHAR
STARTCHAR  2499
ENCODING  9369
SWIDTH  1000 0
DWIDTH  16 0
BBX  15 14 1 0
BITMAP
101010000000001010100000000000
FFFFFF200030E0FFFFFFE020000000
4080FF2000E0E0404060E0C0000000
0040FF2030FF4000000060F0000000
0040FF2040FF1000000040FF100000
0040FF2030FF3000000060F0000000
0040FF2000E0C0201030E0A0000000
0040FF200040FFFFFFFFF020000000
0040FF2000E0C0404040E0A0000000
0040FF2030FF3000000060FF000000
0040FF2040FF1000000040FF100000
0040FF2030FF4000000060FF000000
0040FF2000E0E0604060E0C0104000
0040FF200030E0FFFFFFC02040FF10
ENDCHAR
STARTCHAR  249A
ENCODING  9370
SWIDTH  1000 0
DWIDTH  16 0
BBX  15 14 1 0
BITMAP
101010000000001010000000000000
FFFFFF200040E0FFFFFFC010000000
4080FF2010F0C0404060E0A0000000
0040FF2040FF3000000060F0000000
0040FF2040FF1000000040FF100000
0040FF2040FF1000000040FF100000
0040FF2040FF2000000040FF100000
0040FF2010FFA0101040E0FF100000
0040FF200080FFFFFFFFC0FF100000
0040FF2000002040402040FF100000
0040FF2030C01000000040FF100000
0040FF2040FF3000000060F0000000
0040FF2010F0C0604060F0A0104000
0040FF200060E0FFFFF0A01040FF10
ENDCHAR
STARTCHAR  249B
ENCODING  9371
SWIDTH  1000 0
DWIDTH  17 0
BBX  16 13 1 0
BITMAP
0060F0FFFFC0100060F0FFE030000000
00F0C04060FFA000F0A040E0C0000000
30FF200000A0E030FF200060F0000000
40FF200000A0E040FF100040FF100000
40FF200000A0E040FF100040FF100000
0000000030F0A040FF100040FF100000
00000060F0E02040FF100040FF100000
0020C0FFA0100040FF100040FF100000
10E0E04000000040FF100040FF100000
40FF300000000040FF100040FF100000
40FF200000000030FF300060FF000000
40FF604040404000F0C040E0C0104000
40FFFFFFFFFFE00060F0FFE03040FF10
ENDCHAR
STARTCHAR  2500
ENCODING  9472
SWIDTH  1000 0
DWIDTH  16 0
BBX  18 1 -1 6
BITMAP
20C0C0C0C0C0C0C0C0C0C0C0C0C0C0C0C020
ENDCHAR
STARTCHAR  2501
ENCODING  9473
SWIDTH  1000 0
DWIDTH  16 0
BBX  18 2 -1 5
BITMAP
30FFFFFFFFFFFFFFFFFFFFFFFFFFFFFFFF30
003030303030303030303030303030303000
ENDCHAR
STARTCHAR  2502
ENCODING  9474
SWIDTH  1000 0
DWIDTH  16 0
BBX  1 18 7 -3
BITMAP
30
C0
C0
C0
C0
C0
C0
C0
C0
C0
C0
C0
C0
C0
C0
C0
C0
00
ENDCHAR
STARTCHAR  2503
ENCODING  9475
SWIDTH  1000 0
DWIDTH  16 0
BBX  2 18 7 -3
BITMAP
4010
FF30
FF30
FF30
FF30
FF30
FF30
FF30
FF30
FF30
FF30
FF30
FF30
FF30
FF30
FF30
FF30
1000
ENDCHAR
STARTCHAR  2504
ENCODING  9476
SWIDTH  1000 0
DWIDTH  16 0
BBX  14 1 1 6
BITMAP
C0C0C02000C0C0C01000C0C0C020
ENDCHAR
STARTCHAR  2505
ENCODING  9477
SWIDTH  1000 0
DWIDTH  16 0
BBX  14 2 1 5
BITMAP
FFFFFF2000FFFFFF2000FFFFFF20
3030300000303030000030303000
ENDCHAR
STARTCHAR  2506
ENCODING  9478
SWIDTH  1000 0
DWIDTH  16 0
BBX  1 15 8 -1
BITMAP
00
C0
C0
C0
10
00
C0
C0
C0
20
00
20
C0
C0
C0
ENDCHAR
STARTCHAR  2507
ENCODING  9479
SWIDTH  1000 0
DWIDTH  16 0
BBX  2 15 7 -1
BITMAP
0000
FF30
FF30
FF30
2000
0000
FF30
FF30
FF30
2000
0000
2000
FF30
FF30
FF30
ENDCHAR
STARTCHAR  2508
ENCODING  9480
SWIDTH  1000 0
DWIDTH  16 0
BBX  15 1 1 6
BITMAP
C0C06000C0C06000C0C06000C0C060
ENDCHAR
STARTCHAR  2509
ENCODING  9481
SWIDTH  1000 0
DWIDTH  16 0
BBX  15 2 1 5
BITMAP
FFFFA000FFFFA000FFFFA000FFFFA0
303010003030100030301000303010
ENDCHAR
STARTCHAR  250A
ENCODING  9482
SWIDTH  1000 0
DWIDTH  16 0
BBX  1 15 8 -1
BITMAP
60
C0
C0
00
60
C0
C0
00
60
C0
C0
00
60
C0
C0
ENDCHAR
STARTCHAR  250B
ENCODING  9483
SWIDTH  1000 0
DWIDTH  16 0
BBX  2 15 7 -1
BITMAP
A010
FF30
FF30
0000
A010
FF30
FF30
0000
A010
FF30
FF30
0000
A010
FF30
FF30
ENDCHAR
STARTCHAR  250C
ENCODING  9484
SWIDTH  1000 0
DWIDTH  16 0
BBX  10 10 7 -3
BITMAP
A0C0C0C0C0C0C0C0C020
C0000000000000000000
C0000000000000000000
C0000000000000000000
C0000000000000000000
C0000000000000000000
C0000000000000000000
C0000000000000000000
C0000000000000000000
10000000000000000000
ENDCHAR
STARTCHAR  250D
ENCODING  9485
SWIDTH  1000 0
DWIDTH  16 0
BBX  10 9 7 -2
BITMAP
C0FFFFFFFFFFFFFFFF30
C0303030303030303000
C0000000000000000000
C0000000000000000000
C0000000000000000000
C0000000000000000000
C0000000000000000000
C0000000000000000000
80000000000000000000
ENDCHAR
STARTCHAR  250E
ENCODING  9486
SWIDTH  1000 0
DWIDTH  16 0
BBX  9 10 7 -3
BITMAP
E0C0C0C0C0C0C0C080
FF3000000000000000
FF3000000000000000
FF3000000000000000
FF3000000000000000
FF3000000000000000
FF3000000000000000
FF3000000000000000
FF3000000000000000
100000000000000000
ENDCHAR
STARTCHAR  250F
ENCODING  9487
SWIDTH  1000 0
DWIDTH  16 0
BBX  9 9 7 -2
BITMAP
FFFFFFFFFFFFFFFFA0
FF4030303030303020
FF3000000000000000
FF3000000000000000
FF3000000000000000
FF3000000000000000
FF3000000000000000
FF3000000000000000
A02000000000000000
ENDCHAR
STARTCHAR  2510
ENCODING  9488
SWIDTH  1000 0
DWIDTH  16 0
BBX  9 10 -1 -3
BITMAP
30C0C0C0C0C0C0C0E0
0000000000000000C0
0000000000000000C0
0000000000000000C0
0000000000000000C0
0000000000000000C0
0000000000000000C0
0000000000000000C0
0000000000000000C0
000000000000000010
ENDCHAR
STARTCHAR  2511
ENCODING  9489
SWIDTH  1000 0
DWIDTH  16 0
BBX  9 9 -1 -2
BITMAP
40FFFFFFFFFFFFFFFF
1030303030303030C0
0000000000000000C0
0000000000000000C0
0000000000000000C0
0000000000000000C0
0000000000000000C0
0000000000000000C0
000000000000000080
ENDCHAR
STARTCHAR  2512
ENCODING  9490
SWIDTH  1000 0
DWIDTH  16 0
BBX  10 10 -1 -3
BITMAP
60C0C0C0C0C0C0C0E020
0000000000000000FF30
0000000000000000FF30
0000000000000000FF30
0000000000000000FF30
0000000000000000FF30
0000000000000000FF30
0000000000000000FF30
0000000000000000FF30
00000000000000001000
ENDCHAR
STARTCHAR  2513
ENCODING  9491
SWIDTH  1000 0
DWIDTH  16 0
BBX  10 9 -1 -2
BITMAP
80FFFFFFFFFFFFFFFF30
1030303030303030FF30
0000000000000000FF30
0000000000000000FF30
0000000000000000FF30
0000000000000000FF30
0000000000000000FF30
0000000000000000FF30
0000000000000000A020
ENDCHAR
STARTCHAR  2514
ENCODING  9492
SWIDTH  1000 0
DWIDTH  16 0
BBX  10 9 7 6
BITMAP
40000000000000000000
C0000000000000000000
C0000000000000000000
C0000000000000000000
C0000000000000000000
C0000000000000000000
C0000000000000000000
C0000000000000000000
A0C0C0C0C0C0C0C0C020
ENDCHAR
STARTCHAR  2515
ENCODING  9493
SWIDTH  1000 0
DWIDTH  16 0
BBX  10 10 7 5
BITMAP
60000000000000000000
C0000000000000000000
C0000000000000000000
C0000000000000000000
C0000000000000000000
C0000000000000000000
C0000000000000000000
C0000000000000000000
C0FFFFFFFFFFFFFFFF30
20303030303030303000
ENDCHAR
STARTCHAR  2516
ENCODING  9494
SWIDTH  1000 0
DWIDTH  16 0
BBX  9 9 7 6
BITMAP
601000000000000000
FF3000000000000000
FF3000000000000000
FF3000000000000000
FF3000000000000000
FF3000000000000000
FF3000000000000000
FF3000000000000000
F0C0C0C0C0C0C0C080
ENDCHAR
STARTCHAR  2517
ENCODING  9495
SWIDTH  1000 0
DWIDTH  16 0
BBX  9 10 7 5
BITMAP
801000000000000000
FF3000000000000000
FF3000000000000000
FF3000000000000000
FF3000000000000000
FF3000000000000000
FF3000000000000000
FF3000000000000000
FFFFFFFFFFFFFFFFA0
303030303030303020
ENDCHAR
STARTCHAR  2518
ENCODING  9496
SWIDTH  1000 0
DWIDTH  16 0
BBX  9 9 -1 6
BITMAP
000000000000000040
0000000000000000C0
0000000000000000C0
0000000000000000C0
0000000000000000C0
0000000000000000C0
0000000000000000C0
0000000000000000C0
30C0C0C0C0C0C0C0E0
ENDCHAR
STARTCHAR  2519
ENCODING  9497
SWIDTH  1000 0
DWIDTH  16 0
BBX  9 10 -1 5
BITMAP
000000000000000060
0000000000000000C0
0000000000000000C0
0000000000000000C0
0000000000000000C0
0000000000000000C0
0000000000000000C0
0000000000000000C0
40FFFFFFFFFFFFFFFF
103030303030303030
ENDCHAR
STARTCHAR  251A
ENCODING  9498
SWIDTH  1000 0
DWIDTH  16 0
BBX  10 9 -1 6
BITMAP
00000000000000006010
0000000000000000FF30
0000000000000000FF30
0000000000000000FF30
0000000000000000FF30
0000000000000000FF30
0000000000000000FF30
0000000000000000FF30
60C0C0C0C0C0C0C0F020
ENDCHAR
STARTCHAR  251B
ENCODING  9499
SWIDTH  1000 0
DWIDTH  16 0
BBX  10 10 -1 5
BITMAP
00000000000000008010
0000000000000000FF30
0000000000000000FF30
0000000000000000FF30
0000000000000000FF30
0000000000000000FF30
0000000000000000FF30
0000000000000000FF30
80FFFFFFFFFFFFFFFF30
10303030303030303000
ENDCHAR
STARTCHAR  251C
ENCODING  9500
SWIDTH  1000 0
DWIDTH  16 0
BBX  10 18 7 -3
BITMAP
30000000000000000000
C0000000000000000000
C0000000000000000000
C0000000000000000000
C0000000000000000000
C0000000000000000000
C0000000000000000000
C0000000000000000000
C0C0C0C0C0C0C0C0C020
C0000000000000000000
C0000000000000000000
C0000000000000000000
C0000000000000000000
C0000000000000000000
C0000000000000000000
C0000000000000000000
C0000000000000000000
00000000000000000000
ENDCHAR
STARTCHAR  251D
ENCODING  9501
SWIDTH  1000 0
DWIDTH  16 0
BBX  10 18 7 -3
BITMAP
30000000000000000000
C0000000000000000000
C0000000000000000000
C0000000000000000000
C0000000000000000000
C0000000000000000000
C0000000000000000000
C0000000000000000000
C0FFFFFFFFFFFFFFFF30
C0303030303030303000
C0000000000000000000
C0000000000000000000
C0000000000000000000
C0000000000000000000
C0000000000000000000
C0000000000000000000
C0000000000000000000
00000000000000000000
ENDCHAR
STARTCHAR  251E
ENCODING  9502
SWIDTH  1000 0
DWIDTH  16 0
BBX  10 18 7 -3
BITMAP
40300000000000000000
C0A00000000000000000
C0A00000000000000000
C0A00000000000000000
C0A00000000000000000
C0A00000000000000000
C0A00000000000000000
C0A00000000000000000
C0E0C0C0C0C0C0C0C020
C0000000000000000000
C0000000000000000000
C0000000000000000000
C0000000000000000000
C0000000000000000000
C0000000000000000000
C0000000000000000000
C0000000000000000000
10000000000000000000
ENDCHAR
STARTCHAR  251F
ENCODING  9503
SWIDTH  1000 0
DWIDTH  16 0
BBX  10 18 7 -3
BITMAP
40000000000000000000
C0000000000000000000
C0000000000000000000
C0000000000000000000
C0000000000000000000
C0000000000000000000
C0000000000000000000
C0000000000000000000
C0E0C0C0C0C0C0C0C020
C0A00000000000000000
C0A00000000000000000
C0A00000000000000000
C0A00000000000000000
C0A00000000000000000
C0A00000000000000000
C0A00000000000000000
C0A00000000000000000
10100000000000000000
ENDCHAR
STARTCHAR  2520
ENCODING  9504
SWIDTH  1000 0
DWIDTH  16 0
BBX  9 18 7 -3
BITMAP
401000000000000000
FF3000000000000000
FF3000000000000000
FF3000000000000000
FF3000000000000000
FF3000000000000000
FF3000000000000000
FF3000000000000000
FFC0C0C0C0C0C0C080
FF3000000000000000
FF3000000000000000
FF3000000000000000
FF3000000000000000
FF3000000000000000
FF3000000000000000
FF3000000000000000
FF3000000000000000
100000000000000000
ENDCHAR
STARTCHAR  2521
ENCODING  9505
SWIDTH  1000 0
DWIDTH  16 0
BBX  10 17 7 -2
BITMAP
60600000000000000000
C0A00000000000000000
C0A00000000000000000
C0A00000000000000000
C0A00000000000000000
C0A00000000000000000
C0A00000000000000000
C0A00000000000000000
C0FFFFFFFFFFFFFFFF30
C0303030303030303000
C0000000000000000000
C0000000000000000000
C0000000000000000000
C0000000000000000000
C0000000000000000000
C0000000000000000000
80000000000000000000
ENDCHAR
STARTCHAR  2522
ENCODING  9506
SWIDTH  1000 0
DWIDTH  16 0
BBX  10 17 7 -2
BITMAP
60000000000000000000
C0000000000000000000
C0000000000000000000
C0000000000000000000
C0000000000000000000
C0000000000000000000
C0000000000000000000
C0000000000000000000
C0FFFFFFFFFFFFFFFF30
C0C03030303030303000
C0A00000000000000000
C0A00000000000000000
C0A00000000000000000
C0A00000000000000000
C0A00000000000000000
C0A00000000000000000
80600000000000000000
ENDCHAR
STARTCHAR  2523
ENCODING  9507
SWIDTH  1000 0
DWIDTH  16 0
BBX  9 18 7 -3
BITMAP
401000000000000000
FF3000000000000000
FF3000000000000000
FF3000000000000000
FF3000000000000000
FF3000000000000000
FF3000000000000000
FF3000000000000000
FFFFFFFFFFFFFFFFA0
FF4030303030303020
FF3000000000000000
FF3000000000000000
FF3000000000000000
FF3000000000000000
FF3000000000000000
FF3000000000000000
FF3000000000000000
100000000000000000
ENDCHAR
STARTCHAR  2524
ENCODING  9508
SWIDTH  1000 0
DWIDTH  16 0
BBX  9 18 -1 -3
BITMAP
000000000000000030
0000000000000000C0
0000000000000000C0
0000000000000000C0
0000000000000000C0
0000000000000000C0
0000000000000000C0
0000000000000000C0
30C0C0C0C0C0C0C0F0
0000000000000000C0
0000000000000000C0
0000000000000000C0
0000000000000000C0
0000000000000000C0
0000000000000000C0
0000000000000000C0
0000000000000000C0
000000000000000000
ENDCHAR
STARTCHAR  2525
ENCODING  9509
SWIDTH  1000 0
DWIDTH  16 0
BBX  9 18 -1 -3
BITMAP
000000000000000030
0000000000000000C0
0000000000000000C0
0000000000000000C0
0000000000000000C0
0000000000000000C0
0000000000000000C0
0000000000000000C0
40FFFFFFFFFFFFFFFF
1030303030303030C0
0000000000000000C0
0000000000000000C0
0000000000000000C0
0000000000000000C0
0000000000000000C0
0000000000000000C0
0000000000000000C0
000000000000000000
ENDCHAR
STARTCHAR  2526
ENCODING  9510
SWIDTH  1000 0
DWIDTH  16 0
BBX  10 18 -1 -3
BITMAP
00000000000000003000
0000000000000000FF30
0000000000000000FF30
0000000000000000FF30
0000000000000000FF30
0000000000000000FF30
0000000000000000FF30
0000000000000000FF30
60C0C0C0C0C0C0C0FF30
0000000000000000A000
0000000000000000A000
0000000000000000A000
0000000000000000A000
0000000000000000A000
0000000000000000A000
0000000000000000A000
0000000000000000A000
00000000000000001000
ENDCHAR
STARTCHAR  2527
ENCODING  9511
SWIDTH  1000 0
DWIDTH  16 0
BBX  10 17 -1 -2
BITMAP
00000000000000003000
0000000000000000A000
0000000000000000A000
0000000000000000A000
0000000000000000A000
0000000000000000A000
0000000000000000A000
0000000000000000A000
60C0C0C0C0C0C0C0F020
0000000000000000FF30
0000000000000000FF30
0000000000000000FF30
0000000000000000FF30
0000000000000000FF30
0000000000000000FF30
0000000000000000FF30
0000000000000000FF30
ENDCHAR
STARTCHAR  2528
ENCODING  9512
SWIDTH  1000 0
DWIDTH  16 0
BBX  10 18 -1 -3
BITMAP
00000000000000004010
0000000000000000FF30
0000000000000000FF30
0000000000000000FF30
0000000000000000FF30
0000000000000000FF30
0000000000000000FF30
0000000000000000FF30
60C0C0C0C0C0C0C0FF30
0000000000000000FF30
0000000000000000FF30
0000000000000000FF30
0000000000000000FF30
0000000000000000FF30
0000000000000000FF30
0000000000000000FF30
0000000000000000FF30
00000000000000001000
ENDCHAR
STARTCHAR  2529
ENCODING  9513
SWIDTH  1000 0
DWIDTH  16 0
BBX  10 17 -1 -3
BITMAP
0000000000000000FF30
0000000000000000FF30
0000000000000000FF30
0000000000000000FF30
0000000000000000FF30
0000000000000000FF30
0000000000000000FF30
80FFFFFFFFFFFFFFFF30
1030303030303030F020
0000000000000000A000
0000000000000000A000
0000000000000000A000
0000000000000000A000
0000000000000000A000
0000000000000000A000
0000000000000000A000
00000000000000003000
ENDCHAR
STARTCHAR  252A
ENCODING  9514
SWIDTH  1000 0
DWIDTH  16 0
BBX  10 17 -1 -2
BITMAP
00000000000000003000
0000000000000000A000
0000000000000000A000
0000000000000000A000
0000000000000000A000
0000000000000000A000
0000000000000000A000
0000000000000000A000
80FFFFFFFFFFFFFFF020
1030303030303030FF30
0000000000000000FF30
0000000000000000FF30
0000000000000000FF30
0000000000000000FF30
0000000000000000FF30
0000000000000000FF30
0000000000000000FF30
ENDCHAR
STARTCHAR  252B
ENCODING  9515
SWIDTH  1000 0
DWIDTH  16 0
BBX  10 18 -1 -3
BITMAP
00000000000000004010
0000000000000000FF30
0000000000000000FF30
0000000000000000FF30
0000000000000000FF30
0000000000000000FF30
0000000000000000FF30
0000000000000000FF30
80FFFFFFFFFFFFFFFF30
1030303030303030FF30
0000000000000000FF30
0000000000000000FF30
0000000000000000FF30
0000000000000000FF30
0000000000000000FF30
0000000000000000FF30
0000000000000000FF30
00000000000000001000
ENDCHAR
STARTCHAR  252C
ENCODING  9516
SWIDTH  1000 0
DWIDTH  16 0
BBX  18 10 -1 -3
BITMAP
20C0C0C0C0C0C0C0E0C0C0C0C0C0C0C0C020
0000000000000000C0000000000000000000
0000000000000000C0000000000000000000
0000000000000000C0000000000000000000
0000000000000000C0000000000000000000
0000000000000000C0000000000000000000
0000000000000000C0000000000000000000
0000000000000000C0000000000000000000
0000000000000000C0000000000000000000
000000000000000010000000000000000000
ENDCHAR
STARTCHAR  252D
ENCODING  9517
SWIDTH  1000 0
DWIDTH  16 0
BBX  18 10 -1 -3
BITMAP
30E0E0E0E0E0E0E0E0C0C0C0C0C0C0C0C020
20A0A0A0A0A0A0A0E0000000000000000000
0000000000000000C0000000000000000000
0000000000000000C0000000000000000000
0000000000000000C0000000000000000000
0000000000000000C0000000000000000000
0000000000000000C0000000000000000000
0000000000000000C0000000000000000000
0000000000000000C0000000000000000000
000000000000000010000000000000000000
ENDCHAR
STARTCHAR  252E
ENCODING  9518
SWIDTH  1000 0
DWIDTH  16 0
BBX  18 10 -1 -3
BITMAP
30C0C0C0C0C0C0C0E0E0E0E0E0E0E0E0E020
0000000000000000C0A0A0A0A0A0A0A0A010
0000000000000000C0000000000000000000
0000000000000000C0000000000000000000
0000000000000000C0000000000000000000
0000000000000000C0000000000000000000
0000000000000000C0000000000000000000
0000000000000000C0000000000000000000
0000000000000000C0000000000000000000
000000000000000010000000000000000000
ENDCHAR
STARTCHAR  252F
ENCODING  9519
SWIDTH  1000 0
DWIDTH  16 0
BBX  18 9 -1 -2
BITMAP
30FFFFFFFFFFFFFFFFFFFFFFFFFFFFFFFF30
0030303030303030C0303030303030303000
0000000000000000C0000000000000000000
0000000000000000C0000000000000000000
0000000000000000C0000000000000000000
0000000000000000C0000000000000000000
0000000000000000C0000000000000000000
0000000000000000C0000000000000000000
000000000000000080000000000000000000
ENDCHAR
STARTCHAR  2530
ENCODING  9520
SWIDTH  1000 0
DWIDTH  16 0
BBX  18 10 -1 -3
BITMAP
20C0C0C0C0C0C0C0E0C0C0C0C0C0C0C0C020
0000000000000000FF300000000000000000
0000000000000000FF300000000000000000
0000000000000000FF300000000000000000
0000000000000000FF300000000000000000
0000000000000000FF300000000000000000
0000000000000000FF300000000000000000
0000000000000000FF300000000000000000
0000000000000000FF300000000000000000
000000000000000010000000000000000000
ENDCHAR
STARTCHAR  2531
ENCODING  9521
SWIDTH  1000 0
DWIDTH  16 0
BBX  17 10 -1 -3
BITMAP
60E0E0E0E0E0E0E0E0C0C0C0C0C0C0C080
40A0A0A0A0A0A0A0FF3000000000000000
0000000000000000FF3000000000000000
0000000000000000FF3000000000000000
0000000000000000FF3000000000000000
0000000000000000FF3000000000000000
0000000000000000FF3000000000000000
0000000000000000FF3000000000000000
0000000000000000FF3000000000000000
0000000000000000100000000000000000
ENDCHAR
STARTCHAR  2532
ENCODING  9522
SWIDTH  1000 0
DWIDTH  16 0
BBX  17 10 -1 -3
BITMAP
60C0C0C0C0C0C0C0E0E0E0E0E0E0E0E080
0000000000000000FFA0A0A0A0A0A0A060
0000000000000000FF3000000000000000
0000000000000000FF3000000000000000
0000000000000000FF3000000000000000
0000000000000000FF3000000000000000
0000000000000000FF3000000000000000
0000000000000000FF3000000000000000
0000000000000000FF3000000000000000
0000000000000000100000000000000000
ENDCHAR
STARTCHAR  2533
ENCODING  9523
SWIDTH  1000 0
DWIDTH  16 0
BBX  18 9 -1 -2
BITMAP
30FFFFFFFFFFFFFFFFFFFFFFFFFFFFFFFF30
0030303030303030FF403030303030303000
0000000000000000FF300000000000000000
0000000000000000FF300000000000000000
0000000000000000FF300000000000000000
0000000000000000FF300000000000000000
0000000000000000FF300000000000000000
0000000000000000FF300000000000000000
0000000000000000A0200000000000000000
ENDCHAR
STARTCHAR  2534
ENCODING  9524
SWIDTH  1000 0
DWIDTH  16 0
BBX  18 9 -1 6
BITMAP
000000000000000040000000000000000000
0000000000000000C0000000000000000000
0000000000000000C0000000000000000000
0000000000000000C0000000000000000000
0000000000000000C0000000000000000000
0000000000000000C0000000000000000000
0000000000000000C0000000000000000000
0000000000000000C0000000000000000000
20C0C0C0C0C0C0C0E0C0C0C0C0C0C0C0C020
ENDCHAR
STARTCHAR  2535
ENCODING  9525
SWIDTH  1000 0
DWIDTH  16 0
BBX  17 10 0 5
BITMAP
0000000000000060000000000000000000
00000000000000C0000000000000000000
00000000000000C0000000000000000000
00000000000000C0000000000000000000
00000000000000C0000000000000000000
00000000000000C0000000000000000000
00000000000000C0000000000000000000
00000000000000C0000000000000000000
FFFFFFFFFFFFFFFFF0A0A0A0A0A0A0A030
3030303030303030200000000000000000
ENDCHAR
STARTCHAR  2536
ENCODING  9526
SWIDTH  1000 0
DWIDTH  16 0
BBX  17 10 -1 5
BITMAP
0000000000000000600000000000000000
0000000000000000C00000000000000000
0000000000000000C00000000000000000
0000000000000000C00000000000000000
0000000000000000C00000000000000000
0000000000000000C00000000000000000
0000000000000000C00000000000000000
0000000000000000C00000000000000000
30A0A0A0A0A0A0A0F0FFFFFFFFFFFFFFFF
0000000000000000203030303030303030
ENDCHAR
STARTCHAR  2537
ENCODING  9527
SWIDTH  1000 0
DWIDTH  16 0
BBX  18 10 -1 5
BITMAP
000000000000000060000000000000000000
0000000000000000C0000000000000000000
0000000000000000C0000000000000000000
0000000000000000C0000000000000000000
0000000000000000C0000000000000000000
0000000000000000C0000000000000000000
0000000000000000C0000000000000000000
0000000000000000C0000000000000000000
30FFFFFFFFFFFFFFFFFFFFFFFFFFFFFFFF30
003030303030303030303030303030303000
ENDCHAR
STARTCHAR  2538
ENCODING  9528
SWIDTH  1000 0
DWIDTH  16 0
BBX  18 9 -1 6
BITMAP
000000000000000060100000000000000000
0000000000000000FF300000000000000000
0000000000000000FF300000000000000000
0000000000000000FF300000000000000000
0000000000000000FF300000000000000000
0000000000000000FF300000000000000000
0000000000000000FF300000000000000000
0000000000000000FF300000000000000000
20C0C0C0C0C0C0C0F0C0C0C0C0C0C0C0C020
ENDCHAR
STARTCHAR  2539
ENCODING  9529
SWIDTH  1000 0
DWIDTH  16 0
BBX  17 10 0 5
BITMAP
0000000000000010800000000000000000
0000000000000030FF0000000000000000
0000000000000030FF0000000000000000
0000000000000030FF0000000000000000
0000000000000030FF0000000000000000
0000000000000030FF0000000000000000
0000000000000030FF0000000000000000
0000000000000030FF0000000000000000
FFFFFFFFFFFFFFFFF0A0A0A0A0A0A0A030
3030303030303030200000000000000000
ENDCHAR
STARTCHAR  253A
ENCODING  9530
SWIDTH  1000 0
DWIDTH  16 0
BBX  17 10 -1 5
BITMAP
0000000000000000801000000000000000
0000000000000000FF3000000000000000
0000000000000000FF3000000000000000
0000000000000000FF3000000000000000
0000000000000000FF3000000000000000
0000000000000000FF3000000000000000
0000000000000000FF3000000000000000
0000000000000000FF3000000000000000
30A0A0A0A0A0A0A0F0FFFFFFFFFFFFFFFF
0000000000000000203030303030303030
ENDCHAR
STARTCHAR  253B
ENCODING  9531
SWIDTH  1000 0
DWIDTH  16 0
BBX  18 10 -1 5
BITMAP
000000000000000080100000000000000000
0000000000000000FF300000000000000000
0000000000000000FF300000000000000000
0000000000000000FF300000000000000000
0000000000000000FF300000000000000000
0000000000000000FF300000000000000000
0000000000000000FF300000000000000000
0000000000000000FF300000000000000000
30FFFFFFFFFFFFFFFFFFFFFFFFFFFFFFFF30
003030303030303030303030303030303000
ENDCHAR
STARTCHAR  253C
ENCODING  9532
SWIDTH  1000 0
DWIDTH  16 0
BBX  18 18 -1 -3
BITMAP
000000000000000030000000000000000000
0000000000000000C0000000000000000000
0000000000000000C0000000000000000000
0000000000000000C0000000000000000000
0000000000000000C0000000000000000000
0000000000000000C0000000000000000000
0000000000000000C0000000000000000000
0000000000000000C0000000000000000000
20C0C0C0C0C0C0C0F0C0C0C0C0C0C0C0C020
0000000000000000C0000000000000000000
0000000000000000C0000000000000000000
0000000000000000C0000000000000000000
0000000000000000C0000000000000000000
0000000000000000C0000000000000000000
0000000000000000C0000000000000000000
0000000000000000C0000000000000000000
0000000000000000C0000000000000000000
000000000000000000000000000000000000
ENDCHAR
STARTCHAR  253D
ENCODING  9533
SWIDTH  1000 0
DWIDTH  16 0
BBX  18 18 -1 -3
BITMAP
000000000000000030000000000000000000
0000000000000000C0000000000000000000
0000000000000000C0000000000000000000
0000000000000000C0000000000000000000
0000000000000000C0000000000000000000
0000000000000000C0000000000000000000
0000000000000000C0000000000000000000
0000000000000000C0000000000000000000
40FFFFFFFFFFFFFFFFA0A0A0A0A0A0A0A010
1030303030303030C0000000000000000000
0000000000000000C0000000000000000000
0000000000000000C0000000000000000000
0000000000000000C0000000000000000000
0000000000000000C0000000000000000000
0000000000000000C0000000000000000000
0000000000000000C0000000000000000000
0000000000000000C0000000000000000000
000000000000000000000000000000000000
ENDCHAR
STARTCHAR  253E
ENCODING  9534
SWIDTH  1000 0
DWIDTH  16 0
BBX  18 18 -1 -3
BITMAP
000000000000000030000000000000000000
0000000000000000C0000000000000000000
0000000000000000C0000000000000000000
0000000000000000C0000000000000000000
0000000000000000C0000000000000000000
0000000000000000C0000000000000000000
0000000000000000C0000000000000000000
0000000000000000C0000000000000000000
20A0A0A0A0A0A0A0E0FFFFFFFFFFFFFFFF30
0000000000000000C0303030303030303000
0000000000000000C0000000000000000000
0000000000000000C0000000000000000000
0000000000000000C0000000000000000000
0000000000000000C0000000000000000000
0000000000000000C0000000000000000000
0000000000000000C0000000000000000000
0000000000000000C0000000000000000000
000000000000000000000000000000000000
ENDCHAR
STARTCHAR  253F
ENCODING  9535
SWIDTH  1000 0
DWIDTH  16 0
BBX  18 18 -1 -3
BITMAP
000000000000000030000000000000000000
0000000000000000C0000000000000000000
0000000000000000C0000000000000000000
0000000000000000C0000000000000000000
0000000000000000C0000000000000000000
0000000000000000C0000000000000000000
0000000000000000C0000000000000000000
0000000000000000C0000000000000000000
30FFFFFFFFFFFFFFFFFFFFFFFFFFFFFFFF30
0030303030303030C0303030303030303000
0000000000000000C0000000000000000000
0000000000000000C0000000000000000000
0000000000000000C0000000000000000000
0000000000000000C0000000000000000000
0000000000000000C0000000000000000000
0000000000000000C0000000000000000000
0000000000000000C0000000000000000000
000000000000000000000000000000000000
ENDCHAR
STARTCHAR  2540
ENCODING  9536
SWIDTH  1000 0
DWIDTH  16 0
BBX  18 18 -1 -3
BITMAP
000000000000000060100000000000000000
0000000000000000FF300000000000000000
0000000000000000FF300000000000000000
0000000000000000FF300000000000000000
0000000000000000FF300000000000000000
0000000000000000FF300000000000000000
0000000000000000FF300000000000000000
0000000000000000FF300000000000000000
20C0C0C0C0C0C0C0F0C0C0C0C0C0C0C0C020
0000000000000000A0000000000000000000
0000000000000000A0000000000000000000
0000000000000000A0000000000000000000
0000000000000000A0000000000000000000
0000000000000000A0000000000000000000
0000000000000000A0000000000000000000
0000000000000000A0000000000000000000
0000000000000000A0000000000000000000
000000000000000010000000000000000000
ENDCHAR
STARTCHAR  2541
ENCODING  9537
SWIDTH  1000 0
DWIDTH  16 0
BBX  18 18 -1 -3
BITMAP
000000000000000030000000000000000000
0000000000000000A0000000000000000000
0000000000000000A0000000000000000000
0000000000000000A0000000000000000000
0000000000000000A0000000000000000000
0000000000000000A0000000000000000000
0000000000000000A0000000000000000000
0000000000000000A0000000000000000000
20C0C0C0C0C0C0C0F0C0C0C0C0C0C0C0C020
0000000000000000FF300000000000000000
0000000000000000FF300000000000000000
0000000000000000FF300000000000000000
0000000000000000FF300000000000000000
0000000000000000FF300000000000000000
0000000000000000FF300000000000000000
0000000000000000FF300000000000000000
0000000000000000FF300000000000000000
000000000000000010000000000000000000
ENDCHAR
STARTCHAR  2542
ENCODING  9538
SWIDTH  1000 0
DWIDTH  16 0
BBX  18 18 -1 -3
BITMAP
000000000000000040100000000000000000
0000000000000000FF300000000000000000
0000000000000000FF300000000000000000
0000000000000000FF300000000000000000
0000000000000000FF300000000000000000
0000000000000000FF300000000000000000
0000000000000000FF300000000000000000
0000000000000000FF300000000000000000
20C0C0C0C0C0C0C0FFC0C0C0C0C0C0C0C020
0000000000000000FF300000000000000000
0000000000000000FF300000000000000000
0000000000000000FF300000000000000000
0000000000000000FF300000000000000000
0000000000000000FF300000000000000000
0000000000000000FF300000000000000000
0000000000000000FF300000000000000000
0000000000000000FF300000000000000000
000000000000000010000000000000000000
ENDCHAR
STARTCHAR  2543
ENCODING  9539
SWIDTH  1000 0
DWIDTH  16 0
BBX  17 17 0 -3
BITMAP
0000000000000030FF0000000000000000
0000000000000030FF0000000000000000
0000000000000030FF0000000000000000
0000000000000030FF0000000000000000
0000000000000030FF0000000000000000
0000000000000030FF0000000000000000
0000000000000030FF0000000000000000
FFFFFFFFFFFFFFFFF0A0A0A0A0A0A0A030
3030303030303040C00000000000000000
0000000000000030600000000000000000
0000000000000030600000000000000000
0000000000000030600000000000000000
0000000000000030600000000000000000
0000000000000030600000000000000000
0000000000000030600000000000000000
0000000000000030600000000000000000
0000000000000010200000000000000000
ENDCHAR
STARTCHAR  2544
ENCODING  9540
SWIDTH  1000 0
DWIDTH  16 0
BBX  17 17 -1 -2
BITMAP
0000000000000000801000000000000000
0000000000000000FF3000000000000000
0000000000000000FF3000000000000000
0000000000000000FF3000000000000000
0000000000000000FF3000000000000000
0000000000000000FF3000000000000000
0000000000000000FF3000000000000000
0000000000000000FF3000000000000000
40A0A0A0A0A0A0A0FFFFFFFFFFFFFFFFA0
0000000000000000A03030303030303020
0000000000000000A00000000000000000
0000000000000000A00000000000000000
0000000000000000A00000000000000000
0000000000000000A00000000000000000
0000000000000000A00000000000000000
0000000000000000A00000000000000000
0000000000000000600000000000000000
ENDCHAR
STARTCHAR  2545
ENCODING  9541
SWIDTH  1000 0
DWIDTH  16 0
BBX  17 17 -1 -2
BITMAP
0000000000000000400000000000000000
0000000000000000A00000000000000000
0000000000000000A00000000000000000
0000000000000000A00000000000000000
0000000000000000A00000000000000000
0000000000000000A00000000000000000
0000000000000000A00000000000000000
0000000000000000A00000000000000000
80FFFFFFFFFFFFFFFFA0A0A0A0A0A0A060
1030303030303030FF3000000000000000
0000000000000000FF3000000000000000
0000000000000000FF3000000000000000
0000000000000000FF3000000000000000
0000000000000000FF3000000000000000
0000000000000000FF3000000000000000
0000000000000000FF3000000000000000
0000000000000000A02000000000000000
ENDCHAR
STARTCHAR  2546
ENCODING  9542
SWIDTH  1000 0
DWIDTH  16 0
BBX  17 17 -1 -2
BITMAP
0000000000000000400000000000000000
0000000000000000A00000000000000000
0000000000000000A00000000000000000
0000000000000000A00000000000000000
0000000000000000A00000000000000000
0000000000000000A00000000000000000
0000000000000000A00000000000000000
0000000000000000A00000000000000000
40A0A0A0A0A0A0A0FFFFFFFFFFFFFFFFA0
0000000000000000FF4030303030303020
0000000000000000FF3000000000000000
0000000000000000FF3000000000000000
0000000000000000FF3000000000000000
0000000000000000FF3000000000000000
0000000000000000FF3000000000000000
0000000000000000FF3000000000000000
0000000000000000A02000000000000000
ENDCHAR
STARTCHAR  2547
ENCODING  9543
SWIDTH  1000 0
DWIDTH  16 0
BBX  18 17 -1 -2
BITMAP
000000000000000080100000000000000000
0000000000000000FF300000000000000000
0000000000000000FF300000000000000000
0000000000000000FF300000000000000000
0000000000000000FF300000000000000000
0000000000000000FF300000000000000000
0000000000000000FF300000000000000000
0000000000000000FF300000000000000000
30FFFFFFFFFFFFFFFFFFFFFFFFFFFFFFFF30
0030303030303030A0303030303030303000
0000000000000000A0000000000000000000
0000000000000000A0000000000000000000
0000000000000000A0000000000000000000
0000000000000000A0000000000000000000
0000000000000000A0000000000000000000
0000000000000000A0000000000000000000
000000000000000060000000000000000000
ENDCHAR
STARTCHAR  2548
ENCODING  9544
SWIDTH  1000 0
DWIDTH  16 0
BBX  18 17 -1 -2
BITMAP
000000000000000040000000000000000000
0000000000000000A0000000000000000000
0000000000000000A0000000000000000000
0000000000000000A0000000000000000000
0000000000000000A0000000000000000000
0000000000000000A0000000000000000000
0000000000000000A0000000000000000000
0000000000000000A0000000000000000000
30FFFFFFFFFFFFFFFFFFFFFFFFFFFFFFFF30
0030303030303030FF403030303030303000
0000000000000000FF300000000000000000
0000000000000000FF300000000000000000
0000000000000000FF300000000000000000
0000000000000000FF300000000000000000
0000000000000000FF300000000000000000
0000000000000000FF300000000000000000
0000000000000000A0200000000000000000
ENDCHAR
STARTCHAR  2549
ENCODING  9545
SWIDTH  1000 0
DWIDTH  16 0
BBX  17 18 -1 -3
BITMAP
0000000000000000401000000000000000
0000000000000000FF3000000000000000
0000000000000000FF3000000000000000
0000000000000000FF3000000000000000
0000000000000000FF3000000000000000
0000000000000000FF3000000000000000
0000000000000000FF3000000000000000
0000000000000000FF3000000000000000
80FFFFFFFFFFFFFFFFA0A0A0A0A0A0A060
1030303030303030FF3000000000000000
0000000000000000FF3000000000000000
0000000000000000FF3000000000000000
0000000000000000FF3000000000000000
0000000000000000FF3000000000000000
0000000000000000FF3000000000000000
0000000000000000FF3000000000000000
0000000000000000FF3000000000000000
0000000000000000100000000000000000
ENDCHAR
STARTCHAR  254A
ENCODING  9546
SWIDTH  1000 0
DWIDTH  16 0
BBX  17 18 -1 -3
BITMAP
0000000000000000401000000000000000
0000000000000000FF3000000000000000
0000000000000000FF3000000000000000
0000000000000000FF3000000000000000
0000000000000000FF3000000000000000
0000000000000000FF3000000000000000
0000000000000000FF3000000000000000
0000000000000000FF3000000000000000
40A0A0A0A0A0A0A0FFFFFFFFFFFFFFFFA0
0000000000000000FF4030303030303020
0000000000000000FF3000000000000000
0000000000000000FF3000000000000000
0000000000000000FF3000000000000000
0000000000000000FF3000000000000000
0000000000000000FF3000000000000000
0000000000000000FF3000000000000000
0000000000000000FF3000000000000000
0000000000000000100000000000000000
ENDCHAR
STARTCHAR  254B
ENCODING  9547
SWIDTH  1000 0
DWIDTH  16 0
BBX  18 18 -1 -3
BITMAP
000000000000000040100000000000000000
0000000000000000FF300000000000000000
0000000000000000FF300000000000000000
0000000000000000FF300000000000000000
0000000000000000FF300000000000000000
0000000000000000FF300000000000000000
0000000000000000FF300000000000000000
0000000000000000FF300000000000000000
30FFFFFFFFFFFFFFFFFFFFFFFFFFFFFFFF30
0030303030303030FF403030303030303000
0000000000000000FF300000000000000000
0000000000000000FF300000000000000000
0000000000000000FF300000000000000000
0000000000000000FF300000000000000000
0000000000000000FF300000000000000000
0000000000000000FF300000000000000000
0000000000000000FF300000000000000000
000000000000000010000000000000000000
ENDCHAR
STARTCHAR  25A0
ENCODING  9632
SWIDTH  1000 0
DWIDTH  16 0
BBX  12 12 2 0
BITMAP
40FFFFFFFFFFFFFFFFFFFFFF
40FFFFFFFFFFFFFFFFFFFFFF
40FFFFFFFFFFFFFFFFFFFFFF
40FFFFFFFFFFFFFFFFFFFFFF
40FFFFFFFFFFFFFFFFFFFFFF
40FFFFFFFFFFFFFFFFFFFFFF
40FFFFFFFFFFFFFFFFFFFFFF
40FFFFFFFFFFFFFFFFFFFFFF
40FFFFFFFFFFFFFFFFFFFFFF
40FFFFFFFFFFFFFFFFFFFFFF
40FFFFFFFFFFFFFFFFFFFFFF
104040404040404040404040
ENDCHAR
STARTCHAR  25A1
ENCODING  9633
SWIDTH  1000 0
DWIDTH  16 0
BBX  11 11 2 1
BITMAP
E0F0F0F0F0F0F0F0F0F0F0
F0000000000000000000F0
F0000000000000000000F0
F0000000000000000000F0
F0000000000000000000F0
F0000000000000000000F0
F0000000000000000000F0
F0000000000000000000F0
F0000000000000000000F0
F0000000000000000000F0
F0F0F0F0F0F0F0F0F0F0FF
ENDCHAR
STARTCHAR  25B2
ENCODING  9650
SWIDTH  1000 0
DWIDTH  16 0
BBX  12 14 2 0
BITMAP
000000000010100000000000
000000000080600000000000
0000000000F0E00000000000
0000000060FFFF6000000000
00000000E0FFFFE000000000
00000040FFFFFFFF40000000
000000C0FFFFFFFFC0000000
000030FFFFFFFFFFFF300000
0000A0FFFFFFFFFFFFA00000
0020FFFFFFFFFFFFFFFF2000
0080FFFFFFFFFFFFFFFF8000
10F0FFFFFFFFFFFFFFFFF010
80FFFFFFFFFFFFFFFFFFFF80
101010101010101010101010
ENDCHAR
STARTCHAR  25B3
ENCODING  9651
SWIDTH  1000 0
DWIDTH  16 0
BBX  12 13 2 1
BITMAP
000000000020100000000000
000000000080800000000000
0000000010E0E00000000000
0000000060A0A06000000000
00000000E02030E000000000
00000060C00000C040000000
000000E040000040C0000000
000040E000000000E0300000
0000C0600000000060A00000
0020E0000000000000E02000
00A08000000000000060A000
10F01000000000000010E010
80FFF0F0F0F0F0F0F0F0FF80
ENDCHAR
STARTCHAR  25C6
ENCODING  9670
SWIDTH  1000 0
DWIDTH  16 0
BBX  14 16 1 -1
BITMAP
0000000000001010000000000000
000000000010E0E0100000000000
0000000000C0FFFFA00000000000
00000000A0FFFFFFFFA000000000
00000080FFFFFFFFFFFF80000000
000060FFFFFFFFFFFFFFFF600000
0040FFFFFFFFFFFFFFFFFFF04000
30F0FFFFFFFFFFFFFFFFFFFFF020
40F0FFFFFFFFFFFFFFFFFFFFF040
0060FFFFFFFFFFFFFFFFFFFF6000
000060FFFFFFFFFFFFFFFF600000
00000080FFFFFFFFFFFF80000000
00000000A0FFFFFFFFA000000000
0000000000C0FFFFC00000000000
000000000010E0E0100000000000
0000000000002020000000000000
ENDCHAR
STARTCHAR  25C7
ENCODING  9671
SWIDTH  1000 0
DWIDTH  16 0
BBX  14 16 1 -1
BITMAP
0000000000001010000000000000
000000000010C0C0100000000000
0000000000C08080A00000000000
00000000A0A00000A0A000000000
00000080A000000000C080000000
000060C0100000000010E0600000
0040E01000000000000020E04000
30E020000000000000000030E020
40E010000000000000000020E040
0060C01000000000000010E06000
000060C0000000000000C0600000
00000080A000000000A080000000
00000000A080000080A000000000
0000000000C06060C00000000000
000000000010E0E0100000000000
0000000000002020000000000000
ENDCHAR
STARTCHAR  25CB
ENCODING  9675
SWIDTH  1000 0
DWIDTH  16 0
BBX  13 14 1 0
BITMAP
0000001080C0E0E08020000000
000060E08020002060E0600000
0040E020000000000010C06000
10E0200000000000000010E020
60800000000000000000006080
C03000000000000000000020E0
E01000000000000000000000F0
E01000000000000000000000F0
C03000000000000000000020E0
60800000000000000000006080
10E0200000000000000010E020
0040E020000000000010C06000
000040E08020002060E0600000
0000001080C0E0C08020000000
ENDCHAR
STARTCHAR  25CE
ENCODING  9678
SWIDTH  1000 0
DWIDTH  16 0
BBX  12 12 2 1
BITMAP
00000060C0F0F0C060000000
0010E0A040000030A0E01000
00E06020A0F0F0A02060E000
60A020E060101060E020A080
E030C0600000000060C030E0
F000F0000000000000F000F0
F000F0000000000000F000F0
E030C0600000000060C030E0
80A030E060000060E020A080
10E06030C0F0F0C02060E010
0020E0A030000030A0E02000
00001080E0F0F0E080000000
ENDCHAR
STARTCHAR  25CF
ENCODING  9679
SWIDTH  1000 0
DWIDTH  16 0
BBX  14 14 1 0
BITMAP
0000000000001000000000000000
00000040C0F0FFFFC06000000000
0000A0FFFFFFFFFFFFFFA0100000
00A0FFFFFFFFFFFFFFFFFFA00000
40FFFFFFFFFFFFFFFFFFFFFF4000
A0FFFFFFFFFFFFFFFFFFFFFFC000
F0FFFFFFFFFFFFFFFFFFFFFFFF00
FFFFFFFFFFFFFFFFFFFFFFFFFF10
F0FFFFFFFFFFFFFFFFFFFFFFF000
A0FFFFFFFFFFFFFFFFFFFFFFC000
40FFFFFFFFFFFFFFFFFFFFFF4000
00A0FFFFFFFFFFFFFFFFFFA00000
0000A0FFFFFFFFFFFFFFA0000000
00000040A0F0FFF0C04000000000
ENDCHAR
STARTCHAR  2605
ENCODING  9733
SWIDTH  1000 0
DWIDTH  16 0
BBX  16 15 0 -1
BITMAP
00000000000000000000000000000000
00000000000000404000000000000000
00000000000000A0A000000000000000
00000000000000F0F000000000000000
00000000000040FFFF40000000000000
000000000000A0FFFFA0000000000000
10A0E0E0E0E0FFFFFFFFE0E0E0E0A010
000080FFFFFFFFFFFFFFFFFFFF800000
00000040E0FFFFFFFFFFFFE040000000
0000000010F0FFFFFFFFFF1000000000
0000000040FFFFFFFFFFFF4000000000
00000000A0FFFFE0E0FFFF8000000000
00000000E0FFA01010A0FFE000000000
00000040F0400000000060F040000000
00000060200000000000002040000000
ENDCHAR
STARTCHAR  2606
ENCODING  9734
SWIDTH  1000 0
DWIDTH  16 0
BBX  16 15 0 -1
BITMAP
00000000000000000000000000000000
00000000000000404000000000000000
00000000000000A0A000000000000000
00000000000000E0E000000000000000
00000000000040C0C040000000000000
000000000000A06060A0000000000000
10A0F0F0F0F0F01010F0F0F0F0F0A010
000080E03000000000000030E0800000
00000040E0600000000060E040000000
0000000010E010000010F01000000000
0000000040A000404000C04000000000
00000000A060A0E0E08080A000000000
00000000F0E0A00010A0E0E000000000
00000040E0400000000040F040000000
00000060100000000000002040000000
ENDCHAR
STARTCHAR  2640
ENCODING  9792
SWIDTH  1000 0
DWIDTH  16 0
BBX  10 13 3 -1
BITMAP
00000020E0FFC0200000
000000C0800060E00000
000000FF100010FF0000
000000A0A02080C00000
00000010A0FFA0100000
0000000010FF10000000
00FFFFFFFFFFFFFFFFFF
0020202030FF20202020
0000000010FF10000000
0000000010FF10000000
0000000010FF10000000
0000000010FF10000000
00000000001000000000
ENDCHAR
STARTCHAR  2642
ENCODING  9794
SWIDTH  1000 0
DWIDTH  16 0
BBX  7 13 4 0
BITMAP
00000000000000
000030E0400000
0030F0FFF03000
30F060FF80F030
606000FF206060
000000FF200000
000000FF200000
000000FF200000
0020E0F0E03000
00E0600060E000
00FF000000F000
00C0801080C000
0020C0FFC02000
ENDCHAR
STARTCHAR  3000
ENCODING  12288
SWIDTH  1000 0
DWIDTH  16 0
BBX  0 0 0 0
BITMAP
ENDCHAR
STARTCHAR  3001
ENCODING  12289
SWIDTH  1000 0
DWIDTH  16 0
BBX  6 5 0 -1
BITMAP
001000000000
00C0E0000000
0030FF801000
000060FFFF60
000000102010
ENDCHAR
STARTCHAR  3002
ENCODING  12290
SWIDTH  1000 0
DWIDTH  16 0
BBX  5 4 1 0
BITMAP
30E0F0E030
E0400040E0
E0400060E0
30E0FFE030
ENDCHAR
STARTCHAR  3003
ENCODING  12291
SWIDTH  1000 0
DWIDTH  16 0
BBX  8 6 4 3
BITMAP
0000102000003000
000080E00040FF20
0010F04010E06000
00A0800080800000
20C00030A0000000
1010001010000000
ENDCHAR
STARTCHAR  3005
ENCODING  12293
SWIDTH  1000 0
DWIDTH  16 0
BBX  11 10 2 1
BITMAP
00000010C0400000000000
00000080E0101010101010
000020F0FFFFFFFFFFFFF0
0000A0C00000000010E080
0040FF3000000000A0C000
A0F0800000000060F02000
000010A0A01030F0400000
00000010C0E0E080000000
000000000080FF60000000
00000000000040C0F0FF30
ENDCHAR
STARTCHAR  3008
ENCODING  12296
SWIDTH  1000 0
DWIDTH  16 0
BBX  6 15 9 -1
BITMAP
000000006040
00000040FF30
000000E0A000
000060F01000
0010F0800000
0080E0000000
20FF60000000
A0C000000000
60F010000000
00E0A0000000
0040FF300000
0000C0C00000
000020FF4000
00000080E000
00000010F080
ENDCHAR
STARTCHAR  3009
ENCODING  12297
SWIDTH  1000 0
DWIDTH  16 0
BBX  6 15 1 -1
BITMAP
408000000000
20F060000000
0080E0100000
0010E0800000
000060F02000
000000E0A000
00000040FF30
00000000C0C0
00000010E080
00000080E010
000020F06000
0000A0C00000
0040FF300000
00E0A0000000
60F020000000
ENDCHAR
STARTCHAR  300A
ENCODING  12298
SWIDTH  1000 0
DWIDTH  16 0
BBX  9 15 7 -1
BITMAP
000000002060008010
00000000A06060A000
00000040C010E02000
000000E03080800000
000060A020E0100000
0010E020A060000000
00808030E000000000
10E010C04000000000
00E040808000000000
0040C010E020000000
0000A06060A0000000
000020E010C0400000
000000808030E00000
00000010E010A06000
0000000060A020E010
ENDCHAR
STARTCHAR  300B
ENCODING  12299
SWIDTH  1000 0
DWIDTH  16 0
BBX  9 15 0 -1
BITMAP
108000602000000000
00A06060A000000000
0020E010C040000000
0000808030E0000000
000010E020A0600000
00000060A020E01000
00000000E030808000
0000000040C010E010
00000000808040E000
00000020E010C04000
000000A06060A00000
000040C010E0200000
0000E0308080000000
0060A020E010000000
10E020A06000000000
ENDCHAR
STARTCHAR  300C
ENCODING  12300
SWIDTH  1000 0
DWIDTH  16 0
BBX  6 16 10 -2
BITMAP
606060606010
FFFFFFFFFF40
FF6000000000
FF6000000000
FF6000000000
FF6000000000
FF6000000000
FF6000000000
FF6000000000
FF6000000000
FF6000000000
FF6000000000
FF6000000000
FF6000000000
FF6000000000
201000000000
ENDCHAR
STARTCHAR  300D
ENCODING  12301
SWIDTH  1000 0
DWIDTH  16 0
BBX  7 16 0 -2
BITMAP
00000000206000
0000000040FF10
0000000040FF10
0000000040FF10
0000000040FF10
0000000040FF10
0000000040FF10
0000000040FF10
0000000040FF10
0000000040FF10
0000000040FF10
0000000040FF10
0000000040FF10
1040404080FF10
30FFFFFFFFFF10
00202020202000
ENDCHAR
STARTCHAR  300E
ENCODING  12302
SWIDTH  1000 0
DWIDTH  16 0
BBX  6 14 9 -1
BITMAP
E0E0E0E0E0FF
E000E0E0E0F0
E000E0000000
E000E0000000
E000E0000000
E000E0000000
E000E0000000
E000E0000000
E000E0000000
E000E0000000
E000E0000000
E000E0000000
E000E0000000
E0E0E0000000
ENDCHAR
STARTCHAR  300F
ENCODING  12303
SWIDTH  1000 0
DWIDTH  16 0
BBX  6 14 1 -1
BITMAP
000000E0E0F0
000000E000E0
000000E000E0
000000E000E0
000000E000E0
000000E000E0
000000E000E0
000000E000E0
000000E000E0
000000E000E0
000000E000E0
E0E0E0F000E0
E000000000E0
FFE0E0E0E0F0
ENDCHAR
STARTCHAR  3010
ENCODING  12304
SWIDTH  1000 0
DWIDTH  16 0
BBX  6 15 9 -1
BITMAP
208080808020
40FFFFFFE000
40FFFFFF4000
40FFFFF00000
40FFFFA00000
40FFFF600000
40FFFF400000
40FFFF300000
40FFFF400000
40FFFF600000
40FFFF800000
40FFFFC00000
40FFFFFF2000
40FFFFFF8000
40FFFFFFF020
ENDCHAR
STARTCHAR  3011
ENCODING  12305
SWIDTH  1000 0
DWIDTH  16 0
BBX  6 15 1 -1
BITMAP
208080808020
00E0FFFFFF30
0060FFFFFF30
0000F0FFFF30
0000A0FFFF30
000060FFFF30
000040FFFF30
000030FFFF30
000040FFFF30
000060FFFF30
000080FFFF30
0000C0FFFF30
0020FFFFFF30
0080FFFFFF30
20F0FFFFFF30
ENDCHAR
STARTCHAR  3013
ENCODING  12307
SWIDTH  1000 0
DWIDTH  16 0
BBX  12 10 2 1
BITMAP
30FFFFFFFFFFFFFFFFFFFFFF
30FFFFFFFFFFFFFFFFFFFFFF
30FFFFFFFFFFFFFFFFFFFFFF
208080808080808080808080
000000000000000000000000
000000000000000000000000
30FFFFFFFFFFFFFFFFFFFFFF
30FFFFFFFFFFFFFFFFFFFFFF
30FFFFFFFFFFFFFFFFFFFFFF
208080808080808080808080
ENDCHAR
STARTCHAR  3014
ENCODING  12308
SWIDTH  1000 0
DWIDTH  16 0
BBX  6 16 10 -2
BITMAP
000000206000
000040F0E010
0080FF800000
30FF40000000
30FF00000000
30FF00000000
30FF00000000
30FF00000000
30FF00000000
30FF00000000
30FF00000000
30FF00000000
20FF80000000
0040F0C02000
000020C0E010
000000003000
ENDCHAR
STARTCHAR  3015
ENCODING  12309
SWIDTH  1000 0
DWIDTH  16 0
BBX  6 16 0 -2
BITMAP
006020000000
10E0F0400000
000080FF8000
00000040FF30
00000000FF30
00000000FF30
00000000FF30
00000000FF30
00000000FF30
00000000FF30
00000000FF30
00000000FF30
00000080FF20
0020C0F04000
10E0C0200000
003000000000
ENDCHAR
STARTCHAR  3016
ENCODING  12310
SWIDTH  1000 0
DWIDTH  16 0
BBX  5 14 10 -1
BITMAP
FFE0E0F0A0
E00000C020
E00030A000
E000806000
E000C01000
E000E00000
E000E00000
E000E00000
E000E00000
E000C01000
E000804000
E00030A000
E00000C010
FFE0E0F0A0
ENDCHAR
STARTCHAR  3017
ENCODING  12311
SWIDTH  1000 0
DWIDTH  16 0
BBX  6 14 1 -1
BITMAP
00E0E0E0E0E0
0040A00000E0
0000E01000E0
0000804000E0
0000408000E0
000020C000E0
000000E000E0
000000E000E0
000020C000E0
0000408000E0
0000806000E0
0000C01000E0
0040A00000E0
00E0E0E0E0E0
ENDCHAR
STARTCHAR  3041
ENCODING  12353
SWIDTH  1000 0
DWIDTH  16 0
BBX  12 11 2 -1
BITMAP
00000020E000000000000000
00FFFFFFFFFFFFFFFFFFFF20
00000000FF20000000000000
0010A0E0FFFFFFFFF0C03000
00C0C020F0200080E080E000
00F02000F03030F04010FF10
10FF1010FF40E0A00000FF20
10FF1020FFE0C0000010FF10
00FF3080FFA010000080E000
00A0F060FF2040FFFFE04000
000000001000000000000000
ENDCHAR
STARTCHAR  3042
ENCODING  12354
SWIDTH  1000 0
DWIDTH  16 0
BBX  14 15 1 -1
BITMAP
0000000010400000000000000000
0000000040FF0000000000000000
30FFFFFFFFFFFFFFFFFFFFFFFF40
0010101040FF3010101010101000
0000000020FF3010100000000000
001080E0FFFFFFFFFFFFF0A01000
00A0E06060F0101020E0C0C0C000
10FF400040F0000040FF4030FF10
30FF100030FF0000E0C00000FF30
30FF000020FF1080F0200000FF30
30FF000010FF60FF60000000FF20
30FF000000FFFF8000000010FF20
10FF6060C0FF800000001080E000
00A0FFE060FF3000F0FFFFE03000
0000000000100000202010000000
ENDCHAR
STARTCHAR  3043
ENCODING  12355
SWIDTH  1000 0
DWIDTH  16 0
BBX  11 12 3 -1
BITMAP
3010000000000000000000
E060000000001020000000
A0800000000040E0000000
80A00000000020FF100000
60C00000000000F0400000
40E00000000000C0600000
20FF0000000000A0A00000
00FF200000000060E01000
00E0400000000010C0FF60
00A0A01000000000000000
0020E0FFFFFF8000000000
0000000000000000000000
ENDCHAR
STARTCHAR  3044
ENCODING  12356
SWIDTH  1000 0
DWIDTH  16 0
BBX  13 15 2 -1
BITMAP
00000000000000000000000000
F0600000000000000000000000
E08000000000000060E0000000
A0A000000000000040FF100000
80C000000000000020FF300000
60E000000000000000F0600000
40FF00000000000000E0800000
30FF20000000000000A0A00000
10FF4000000000000080E00000
00F06000000000000040FF3000
00E08000000000000000C0FFE0
00A0C000000000000000001010
0060F040000000000000000000
0000A0FFFFFFFFF00000000000
00000010202020200000000000
ENDCHAR
STARTCHAR  3045
ENCODING  12357
SWIDTH  1000 0
DWIDTH  16 0
BBX  12 10 2 0
BITMAP
00C0FFFFFFFFFFFFFFFF0000
000000000000000000000000
000000000000000000000000
60FFFFFFFFFFFFFFF0C02000
000000000000000020A0E000
00000000000000000010FF00
00000000000000000010FF10
00000000000000000030FF00
000000000000000020C0C000
00C0FFFFFFFFFFF0F0A01000
ENDCHAR
STARTCHAR  3046
ENCODING  12358
SWIDTH  1000 0
DWIDTH  16 0
BBX  14 14 1 -1
BITMAP
0010303030303030303030303000
0060FFFFFFFFFFFFFFFFFFFFFF00
0000000000000000000000000000
0000000000000000000000000000
40FFFFFFFFFFFFFFFFFFF0C03000
0020202020202020202040E0E000
000000000000000000000030FF40
000000000000000000000000FF60
000000000000000000000000F060
000000000000000000000000FF60
000000000000000000000030FF40
0010101010101010102040E0E000
00C0FFFFFFFFFFFFFFFFF0C03000
0010101010101010101000000000
ENDCHAR
STARTCHAR  3047
ENCODING  12359
SWIDTH  1000 0
DWIDTH  16 0
BBX  12 11 2 -1
BITMAP
00FFFFFFFFFFFFFFFFFF3000
000000000000000000000000
000000000000000000000000
30FFFFFFFFFFFFFFFFFFFF30
00000000E080000000000000
00000060FF20000000000000
000000C0FFFFFFF080000000
000030FF30000030FF000000
0000A0A000000010FF200000
30F0E02000000000A0F0F040
001000000000000000000000
ENDCHAR
STARTCHAR  3048
ENCODING  12360
SWIDTH  1000 0
DWIDTH  16 0
BBX  14 14 1 -1
BITMAP
0010202020202020202020202000
0080FFFFFFFFFFFFFFFFFFFFFF00
0000000000000000000000000000
0000000000000000000000000000
0020202020202020202020202020
00FFFFFFFFFFFFFFFFFFFFFFFFE0
0000000000C0C000000000000000
0000000030FF6020201000000000
00000000A0FFFFFFFFFF80000000
00000020FF6000000060F0000000
000000A0E00000000020FF000000
000030F0600000000020FF200000
30FFFFA0000000000000C0FFFFFF
0020100000000000000000202020
ENDCHAR
STARTCHAR  3049
ENCODING  12361
SWIDTH  1000 0
DWIDTH  16 0
BBX  12 12 2 -1
BITMAP
000000000040000000000000
0000000020FF0000A0800000
30FFFFFFFFFFFFFF20F02000
0000000020FF00000080F0A0
0000000030FF202010000000
0040E0F0F0FFE0E0C0E08000
00E0600020FF00000020FF10
00FF200020FF00000000FF20
00FF200020FF00000000FF20
00E0600040FF00000040FF10
0060F0F0F08030F0F0F08000
000000000000000000000000
ENDCHAR
STARTCHAR  304A
ENCODING  12362
SWIDTH  1000 0
DWIDTH  16 0
BBX  15 14 1 -1
BITMAP
000000000020FF0000004060000000
002020202040FF20202060FF300000
00FFFFFFFFFFFFFFFFFF10F0800000
000000000030FF00000000A0E02000
000000000030FF0000000030E0FF30
0020A0E0FFFFFFFFFFFFFFE0A01000
00C0C0403040FF2020303040E0A000
00FF30000030FF000000000040F000
10FF20000030FF000000000030FF00
10FF20000030FF000000000020FF00
00FF20000030FF000000000030FF00
00E080101080F00000000010A0E000
0040F0FFFFE04000E0FFFFFFE04000
000000101000000020202020000000
ENDCHAR
STARTCHAR  304B
ENCODING  12363
SWIDTH  1000 0
DWIDTH  16 0
BBX  14 14 1 -1
BITMAP
0000004030000000000000000000
000000E080000000000000000000
103030F0803020000020E0200000
60FFFFFFFFFFFFF04000FF400000
000030FF20001080E000E0800000
000060FF00000030FF00A0A00000
000080E000000020FF1080C00000
0000A0C000000010FF1060F00000
0000C0A000000010FF1030FF1000
0000E08000000020FF1010FF4000
0000FF6000000020FF1000E08000
0030FF3000000080F0000080FFE0
80FFC000E0FFFFFF600000001020
1020000020302010000000000000
ENDCHAR
STARTCHAR  304C
ENCODING  12364
SWIDTH  1000 0
DWIDTH  16 0
BBX  14 14 1 -1
BITMAP
0000006030000000104010600000
000000F06000000010F030E04000
103040FF603020000080E060E030
80FFFFFFFFFFFFF0400010000000
000060FF000010A0E000F0600000
000080E000000030F000C0800000
0000A0C000000020FF00A0C00000
0000C0A000000020FF0060E00000
0000F08000000020FF0040FF1000
0010FF6000000020FF0010FF4000
0030FF3000000030FF0000E08000
0060FF1000000080E0000080FFE0
C0FFA000F0FFFFFF600000002020
2020000020302010000000000000
ENDCHAR
STARTCHAR  304D
ENCODING  12365
SWIDTH  1000 0
DWIDTH  16 0
BBX  13 15 2 -1
BITMAP
00000000304000000000000000
0000000030FF60000000000000
C0FFFFFFFFFFFFFFFFFFFFFF00
102020202020E0C02020202000
00000000000040FF4000000000
FFFFFFFFFFFFFFFFFFFFFFFFE0
2020202020202030F0A0202020
000000000000000060FF400000
0060E0FFFFFFFFFFE0FFE00000
10FF8020202020203060A04000
20FF1000000000000000000000
30FF1000000000000000000000
10FF6000000000000000000000
0060F0FFFFFFFFFFFFFFFFFF60
00000010202020202020202010
ENDCHAR
STARTCHAR  304E
ENCODING  12366
SWIDTH  1000 0
DWIDTH  16 0
BBX  14 14 2 -1
BITMAP
0000000030802000000040103000
1030303030F0C0303030E040E010
30F0F0F0F0F0FFFFF0F060E080C0
00000000000040F0800000000000
FFFFFFFFFFFFFFFFFFFFFFFFE000
2020202020202020A0F040202000
000000000000000010E0C0000000
0060E0FFFFFFFFFFF0E0FF600000
10F0802020202020204080800000
20FF100000000000000000000000
30FF100000000000000000000000
10FF600000000000000000000000
0060F0FFFFFFFFFFFFFFFFFFA000
0000001020202020202020201000
ENDCHAR
STARTCHAR  304F
ENCODING  12367
SWIDTH  1000 0
DWIDTH  16 0
BBX  14 14 1 -1
BITMAP
0000000000000000000000408040
000000000000104080C0F0F0C040
00001060A0E0FFF0A08030000000
0060F0E0A0603000000000000000
10F0600000000000000000000000
20FF000000000000000000000000
30FF000000000000000000000000
30FF000000000000000000000000
20FF100000000000000000000000
00E0A03000000000000000000000
0020C0F0F0C08030000000000000
000000004080C0FFF0C080300000
00000000000000104080C0FFF060
0000000000000000000000104040
ENDCHAR
STARTCHAR  3050
ENCODING  12368
SWIDTH  1000 0
DWIDTH  16 0
BBX  14 14 1 0
BITMAP
0000000000000000000000000000
0000000000000000003060A0E060
00000000003080A0F0FFE0804010
000060C0F0F0C080403010202000
00C0E080400000000080A060C000
20FF2000000000000020E080E0A0
30FF000000000000000000000000
30FF000000000000000000000000
20FF000000000000000000000000
10FF300000000000000000000000
00A0F0A060200000000000000000
000040A0E0FFE0A0602000000000
0000000000104080E0FFF0A06020
000000000000000000104080C060
ENDCHAR
STARTCHAR  3051
ENCODING  12369
SWIDTH  1000 0
DWIDTH  16 0
BBX  14 14 1 -1
BITMAP
20E00000000000000000F0600000
30FF0000000000000000FF600000
30FF0000000000000000FF600000
30FF0000303030303030FF803030
30FF0020FFFFFFFFFFFFFFFFFFF0
30FF0000000000000000FF600000
30FF0000000000000000FF600000
30FF0000000000000000FF600000
30FF0000000000000000FF600000
30FF0000000000000000FF600000
30FF0000000000000000FF600000
30FF0000000000000060FF400000
30FF000010FFFFFFFFFFA0000000
0000000000303030302000000000
ENDCHAR
STARTCHAR  3052
ENCODING  12370
SWIDTH  1000 0
DWIDTH  16 0
BBX  15 15 1 -1
BITMAP
000000000000000000001000000000
20E00000000000000060FF8060E030
30FF0000000000000060FF6080C060
30FF0000000000000060FF10E060A0
30FF0000303030303080FF30303000
30FF0020FFFFFFFFFFFFFFFFFFFF00
30FF0000000000000060FF00000000
30FF0000000000000060FF00000000
30FF0000000000000060FF00000000
30FF0000000000000060FF00000000
30FF0000000000000060FF00000000
30FF0000000000000060FF00000000
30FF00000000000010C0E000000000
30FF000060FFFFFFFFF06000000000
000000001030303020100000000000
ENDCHAR
STARTCHAR  3053
ENCODING  12371
SWIDTH  1000 0
DWIDTH  16 0
BBX  14 14 1 -1
BITMAP
0020202020202020202020202000
10FFFFFFFFFFFFFFFFFFFFFFFF20
0000000000000000000000000000
0000000000000000000000000000
0000000000000000000000000000
0000000000000000000000000000
0000301000000000000000000000
0060F02000000000000000000000
00E0A00000000000000000000000
30FF400000000000000000000000
60FF100000000000000000000000
40FF600000000000000000000000
0080FFFFFFFFFFFFFFFFFFFFFF80
0000102020202020202020202010
ENDCHAR
STARTCHAR  3054
ENCODING  12372
SWIDTH  1000 0
DWIDTH  16 0
BBX  14 14 1 -1
BITMAP
0020202020202020202020202000
10FFFFFFFFFFFFFFFFFFFFFFFF20
0000000000000000104000600000
000000000000000000F030E04000
00000000000000000060E060E030
0000000000000000000000000000
0000301000000000000000000000
0060F02000000000000000000000
00E0A00000000000000000000000
30FF400000000000000000000000
60FF100000000000000000000000
40FF600000000000000000000000
0080FFFFFFFFFFFFFFFFFFFFFF80
0000102020202020202020202010
ENDCHAR
STARTCHAR  3055
ENCODING  12373
SWIDTH  1000 0
DWIDTH  16 0
BBX  13 14 2 -1
BITMAP
000000000010F0800000000000
00000000000060F02000000000
FFFFFFFFFFFFFFFFFFFFFFFFF0
3030303030303040FF80303020
0000000000000000A0E0100000
000000001010100010F0800000
0030E0FFFFFFFFFFE0E0FF3000
00E0A030201020204080F0C000
20FF1000000000000000101000
20FF0000000000000000000000
10FF1000000000000000000000
00E0A020000000000000000000
0030E0FFFFFFFFFFFFFFFFFFA0
00000010202020202020202010
ENDCHAR
STARTCHAR  3056
ENCODING  12374
SWIDTH  1000 0
DWIDTH  16 0
BBX  14 15 2 -1
BITMAP
0000000000000000001010101000
000000000010F0800060E060C000
00000000000060FF2010C0A0C080
FFFFFFFFFFFFFFFFFFFFFFFFF000
3030303030303040FF8030302000
0000000000000000A0E010000000
000000001010100010F080000000
0030E0FFFFFFFFFFE0E0FF300000
00E0A030201020204080F0C00000
20FF100000000000000010100000
20FF000000000000000000000000
10FF100000000000000000000000
00E0A02000000000000000000000
0030E0FFFFFFFFFFFFFFFFFFA000
0000001020202020202020201000
ENDCHAR
STARTCHAR  3057
ENCODING  12375
SWIDTH  1000 0
DWIDTH  16 0
BBX  12 14 2 -1
BITMAP
F02000000000000000000000
FF3000000000000000000000
FF3000000000000000000000
FF3000000000000000000000
FF3000000000000000000000
FF3000000000000000001060
FF30000000000000000030FF
FF30000000000000000030FF
FF30000000000000000030FF
FF30000000000000000040FF
E040000000000000000080E0
80E04000000000001080FF60
10A0FFFFFFFFFFFFFFE06000
000010202020202020000000
ENDCHAR
STARTCHAR  3058
ENCODING  12376
SWIDTH  1000 0
DWIDTH  16 0
BBX  12 14 2 -1
BITMAP
801000000000000000000000
FF3000000020301040000000
FF3000000030F020F0300000
FF3000000000A0C080E00000
FF3000000000000000000000
FF3000000000000000000000
FF30000000000000000030FF
FF30000000000000000030FF
FF30000000000000000030FF
FF30000000000000000030FF
E040000000000000000080E0
A0E04000000000001080FF60
10A0FFFFFFFFFFFFFFF06000
000010202020202020000000
ENDCHAR
STARTCHAR  3059
ENCODING  12377
SWIDTH  1000 0
DWIDTH  16 0
BBX  14 14 1 -1
BITMAP
00000000000000000030E0200000
00202020202020202040FF302020
20FFFFFFFFFFFFFFFFFFFFFFFFFF
00101010101010101040FF201010
00000000202020201040FF200000
000080F0FFFFFFFFFFF0FF200000
0010FF60000000001080FF400000
0020FF00000000000000FF600000
0010FF60201010102080FF600000
000060F0FFFFFFFFFFE0FF600000
00000000001010000010FF400000
000000000000000020A0F0100000
0000E0FFFFFFFFFFFFE040000000
0000102020202010100000000000
ENDCHAR
STARTCHAR  305A
ENCODING  12378
SWIDTH  1000 0
DWIDTH  16 0
BBX  15 14 1 -1
BITMAP
000000000000000030A08080808000
000000000000000060FF20E080E030
FFFFFFFFFFFFFFFFFFFFFFFFFF2000
202020202020202060FF2020200000
000000202020101060FF0000000000
0080F0FFF0F0FFFFF0FF0000000000
10FF80000000000080FF1000000000
30FF30000000000010FF2000000000
10FF80100000001080FF2000000000
0060E0FFFFFFFFFFE0FF2000000000
000000001010100020FF1000000000
0000000000000020C0C00000000000
00C0FFFFFFFFFFFFC0200000000000
001020202020101000000000000000
ENDCHAR
STARTCHAR  305B
ENCODING  12379
SWIDTH  1000 0
DWIDTH  16 0
BBX  14 14 1 -1
BITMAP
000060FF000000000000FF600000
000060FF100000000000FF600000
000060FF100000000000FF600000
80FFFFFFFFFFFFFFFFFFFFFFFFFF
103060FF303030303030FF803030
000060FF100000000000FF600000
000060FF100000000000FF600000
000060FF100000000000FF600000
000060FF100010303060FF300000
000060FF100080FFFFF080000000
000040FF10000000000000000000
000020FF80000000000000000000
00000080F0FFFFFFFFFFFFFFFF60
0000000010203030303030303010
ENDCHAR
STARTCHAR  305C
ENCODING  12380
SWIDTH  1000 0
DWIDTH  16 0
BBX  16 15 1 -1
BITMAP
00001040000000000010403010300000
000060FF000000000060FFA080C03000
000060FF000000000060FF40F080F010
000060FF000000000060FF0000000000
A0FFFFFFFFFFFFFFFFFFFFFFFFFF0000
103080FF303030303080FF3030300000
000060FF000000000060FF0000000000
000060FF000000000060FF0000000000
000060FF000000000060FF0000000000
000060FF0000203030C0E00000000000
000060FF0000E0FFFFE0400000000000
000060FF000000000000000000000000
000020FF800000000000000000000000
00000060F0FFFFFFFFFFFFFFFF800000
00000000002030303030303030100000
ENDCHAR
STARTCHAR  305D
ENCODING  12381
SWIDTH  1000 0
DWIDTH  16 0
BBX  14 14 1 -1
BITMAP
0020202020202020202020200000
00E0FFFFFFFFFFFFFFFFFFFF0000
0000000000000030A0F0A0300000
000000000060C0E0601000000000
00001080E0C04000000000000000
FFFFFFFFFFFFFFFFFFFFFFFFFF10
2020202040A0F0E0A06020202000
000010C0F0A04000000000000000
0000C0A010000000000000000000
0020FF2000000000000000000000
0020FF1000000000000000000000
0000F0A010000000000000000000
000060F0FFFFFFFFFFFFFFFFC000
0000000020202020202020201000
ENDCHAR
STARTCHAR  305E
ENCODING  12382
SWIDTH  1000 0
DWIDTH  16 0
BBX  15 14 1 -1
BITMAP
000020202020202020202020200000
0000FFFFFFFFFFFFFFFFFFFFC00000
000000000000000040C0F0A0200000
00000000001080E0E08080C080C000
00000030A0F0A040000010E080E080
20FFFFFFFFFFFFFFFFFFFFFFFFFF00
002020202060A0F0F0C06040303000
00000030E0FFA04000000000000000
000010F0C010000000000000000000
000040FF2000000000000000000000
000060FF0000000000000000000000
000020FF8010000000000000000000
00000060F0FFFFFFFFFFFFFFFFA000
000000000020202020202020201000
ENDCHAR
STARTCHAR  305F
ENCODING  12383
SWIDTH  1000 0
DWIDTH  16 0
BBX  14 14 1 -1
BITMAP
00000080C0000000000000000000
000000E0A0000000000000000000
F0FFFFFFFFFFFFFFFFFFFFFFFF40
203060FF60303030303030303010
000060FF00000000000000000000
0000A0E000000000000000000000
0000E0A060FFFFFFFFFFFFFFFF00
0010FF6010303030303030303000
0030FF3000000000000000000000
0060FF0000000000000000000000
00A0E00000000000000000000000
00E0A00000000000000000000000
FFF04000FFFFFFFFFFFFFFFFFF60
2010000030303030303030303010
ENDCHAR
STARTCHAR  3060
ENCODING  12384
SWIDTH  1000 0
DWIDTH  16 0
BBX  14 14 1 -1
BITMAP
000000A0E00000000080A060C000
000000E0C00000000010E0A0E080
C0FFFFFFFFFFFFFFFFFFFFFFFF60
203060FF60303030303030303010
000060FF10000000000000000000
0000A0E000000000000000000000
0000C0A040FFFFFFFFFFFFFFFF00
0000F08010303030303030303000
0030FF4000000000000000000000
0060FF1000000000000000000000
0080E00000000000000000000000
10E0A00000000000000000000000
FFFF4000FFFFFFFFFFFFFFFFFF60
2010000030303030303030303010
ENDCHAR
STARTCHAR  3061
ENCODING  12385
SWIDTH  1000 0
DWIDTH  16 0
BBX  14 14 1 -1
BITMAP
00000000E0800000000000000000
00000030FF400000000000000000
40FFFFFFFFFFFFFFFFFFFFFFFFFF
103030E0C0303030303030303030
000010FF60000000000000000000
000060FF20102020202010000000
0000A0FFE0FFFFF0FFFFFFE04000
0000E0C03010000000002080F000
000000000000000000000010FF20
000000000000000000000000FF30
000000000000000000000010FF20
000000000000000000000080F000
0000A0FFFFFFFFFFFFFFFFF04000
0000203030303030303020000000
ENDCHAR
STARTCHAR  3062
ENCODING  12386
SWIDTH  1000 0
DWIDTH  16 0
BBX  14 15 1 -1
BITMAP
0000000000000000002040104000
00000010F06000000020F010F010
00000060FF1000000000A0C080F0
80FFFFFFFFFFFFFFFFFFFFFFFFC0
102020F0A0202020202020202020
000040FF40000000000000000000
000080F010203030302020000000
0000E0F0F0FFF0F0FFFFFFF06000
0020FFA020000000000020A0FF10
000010000000000000000020FF40
000000000000000000000010FF40
000000000000000000000020FF40
000000000000000000000080FF10
0000E0FFFFFFFFFFFFFFFFF06000
0000203030303030303020100000
ENDCHAR
STARTCHAR  3063
ENCODING  12387
SWIDTH  1000 0
DWIDTH  16 0
BBX  12 11 2 -1
BITMAP
60FFFFFFFFFFFFFFE0800000
001010101010101030E08000
00000000000000000040F000
00000000000000000010FF10
00000000000000000010FF10
00000000000000000010FF10
00000000000000000020FF10
00000000000000000040E000
000000000000000030E08000
0010FFFFFFFFFFFFE0800000
000000000000000000000000
ENDCHAR
STARTCHAR  3064
ENCODING  12388
SWIDTH  1000 0
DWIDTH  16 0
BBX  14 14 1 -1
BITMAP
2030303030303030302000000000
A0FFFFFFFFFFFFFFFFFFF0800000
0000000000000000001060F0A000
000000000000000000000060FF20
000000000000000000000010FF60
000000000000000000000000F060
000000000000000000000000F060
000000000000000000000000F060
000000000000000000000000FF60
000000000000000000000010FF40
000000000000000000000080FF10
0000000000000000002080FF8000
0010FFFFFFFFFFFFFFFFE0800000
0000202020202020202000000000
ENDCHAR
STARTCHAR  3065
ENCODING  12389
SWIDTH  1000 0
DWIDTH  16 0
BBX  15 15 1 -1
BITMAP
00000000000000000000C020A03000
00000000000000000000C060A08000
FFFFFFFFFFFFFFFFFFF0FFFF40E040
20202020202020202040A0FF600000
0000000000000000000000C0E00000
000000000000000000000060FF0000
000000000000000000000060FF1000
000000000000000000000040FF1000
000000000000000000000060FF0000
000000000000000000000060FF0000
000000000000000000000080E00000
0000000000000000000010E0A00000
00000000000000001040C0F0200000
0080FFFFFFFFFFFFFFFFC030000000
001020202020202020100000000000
ENDCHAR
STARTCHAR  3066
ENCODING  12390
SWIDTH  1000 0
DWIDTH  16 0
BBX  13 14 2 -1
BITMAP
30303030303030303030303030
FFFFFFFFFFFFFFFFFFFFFFFFFF
000000002080E0F0A060301000
00000080F0C040000000000000
0000C0E0300000000000000000
0080F010000000000000000000
00E08000000000000000000000
00FF6000000000000000000000
00FF6000000000000000000000
00FF6000000000000000000000
00E0C000000000000000000000
0040FFA0301000000000000000
000040C0FFFFFFFFF0F0F0F040
00000000002030303030303010
ENDCHAR
STARTCHAR  3067
ENCODING  12391
SWIDTH  1000 0
DWIDTH  16 0
BBX  14 14 1 -1
BITMAP
2020202020202020202020202000
FFFFFFFFFFFFFFFFFFFFFFFFFF10
101010102080E0F0A06030200000
00000080F0C0400060E030FF3000
0000C0E04000000000C0C080F010
0080E01000000000000000000000
00E0600000000000000000000000
00FF300000000000000000000000
10FF300000000000000000000000
00FF300000000000000000000000
00E0800000000000000000000000
0080FF8020000000000000000000
000080F0FFFFFFF0F0F0F0F06000
0000000020303040303030301000
ENDCHAR
STARTCHAR  3068
ENCODING  12392
SWIDTH  1000 0
DWIDTH  16 0
BBX  14 14 1 -1
BITMAP
0000000040E02000000000000000
0000000010F08000000000000000
0000000000A0E000000000000000
000000002060FF60303030303000
000080F0FFFFFFFFFFFFFFFFFF20
0080F06010000000000000000000
00E0600000000000000000000000
00FF300000000000000000000000
10FF200000000000000000000000
00FF200000000000000000000000
00E0600000000000000000000000
0080E04010000000000000000000
000080F0FFFFFFF0F0F0F0F0F010
0000000010202030303030303000
ENDCHAR
STARTCHAR  3069
ENCODING  12393
SWIDTH  1000 0
DWIDTH  16 0
BBX  14 15 1 -1
BITMAP
0000000010300000002000201000
0000000040FF300000C060C06000
0000000000F080000060F080F060
0000000000A0E000000000000000
000000002060FF40303030303000
000080F0FFFFFFFFFFFFFFFFFF00
0080F06010000000000000000000
00E0600000000000000000000000
00FF300000000000000000000000
00FF200000000000000000000000
00FF300000000000000000000000
00E0600000000000000000000000
0060F06010000000000000000000
000060E0FFFFFFF0F0F0F0F0F020
0000000010202030303030303000
ENDCHAR
STARTCHAR  306A
ENCODING  12394
SWIDTH  1000 0
DWIDTH  16 0
BBX  14 14 1 -1
BITMAP
00000060F0000000408000000000
000000A0C000000020F040000000
C0FFFFFFFFFFFFFF0080E0200000
202060FF602020200010C0FFFF20
000080FF10000000000000202000
0000A0C0000000000000E0200000
0000F080000000000000FF300000
0030FF400040E0FFFFFFFFFFFF40
0060FF1000E080202020FF402010
20C0E00020FF10000000FF300000
E0E0400020FF00000000FF200000
0000000010FF60000060FF100000
000000000060F0FFFFFF80000000
0000000000000020201000000000
ENDCHAR
STARTCHAR  306B
ENCODING  12395
SWIDTH  1000 0
DWIDTH  16 0
BBX  14 14 1 -1
BITMAP
30FF000000000000000000000000
30FF0000FFFFFFFFFFFFFFFFFF00
30FF000030303030303030303000
30FF000000000000000000000000
30FF000000000000000000000000
30FF000000000000000000000000
30FF000000000000000000000000
30FF000040E02000000000000000
30FF0000A0E00000000000000000
30FF0010FF600000000000000000
30FF0040FF300000000000000000
30FF0010E0FFFFFFFFFFFFFFFFF0
30FF000000203030303030303020
1040000000000000000000000000
ENDCHAR
STARTCHAR  306C
ENCODING  12396
SWIDTH  1000 0
DWIDTH  16 0
BBX  15 14 1 -1
BITMAP
001060100000000000A06000000000
0000F0800000001080F01000000000
0030E0FFFFFFFFFFFFFFFFE0300000
00E0E0FF402020A0E02020A0E00000
20FF20FF600020FF60000010FF2000
30FF00C0C000A0E000000000FF3000
30F00080F030FF4000000000FF3000
30F00020FFE0E00010202020FF6000
30F00000E0FF4080FFFFFFFFFFFF20
30F00000C0C000F080000000FF3000
20FF0040FF4020FF40000010FF3000
20FF40E0C00010FF80000060FF1000
00A0FFC020000080FFFFFFFF800000
000000000000000010202010000000
ENDCHAR
STARTCHAR  306D
ENCODING  12397
SWIDTH  1000 0
DWIDTH  16 0
BBX  15 14 0 -1
BITMAP
00000010FF60000000000000000000
00000010FF60000000000000000000
00102020FF6080E0FFFFFFF0A01000
00C0FFFFFFF0E06030203060E0A000
00001010FFE020000000000080F000
00000000FF6000000000000060FF00
00000000FF6000000000000060FF00
00000040FF6000000020303080FF30
000010E0FF600060F0FFFFFFFFFFFF
0030A0E0FF6000F06000000060FF00
00FFE030FF6010FF2000000080F000
00000000FF6000FF60000020C0C000
00000000FF600080FFFFFFFFE03000
000000003010000010202010000000
ENDCHAR
STARTCHAR  306E
ENCODING  12398
SWIDTH  1000 0
DWIDTH  16 0
BBX  14 14 1 -1
BITMAP
0000000020303030303010000000
0010A0FFFFFFFFFFFFFFFFC02000
00C0E040100010F0601030C0C000
10FF2000000060F010000020FF10
30FF00000000E0A000000000FF30
40F000000040FF2000000000F030
40F0000000C0C00000000000F030
30F0000030FF400000000000F030
30F00000C0C0000000000000FF30
20FF0030FF40000000000000FF20
10FF10C0C000000000000040FF10
00F0A0FF40000000000030E0C000
0080F080000060FFFFFFFFA01000
0000000000001030302010000000
ENDCHAR
STARTCHAR  306F
ENCODING  12399
SWIDTH  1000 0
DWIDTH  16 0
BBX  15 14 1 -1
BITMAP
30FF0000000000000030FF00000000
30FF0000000000000030FF00000000
30FF0000202020202040FF20202000
30FF0020FFFFFFFFFFFFFFFFFFFF00
30FF0000000000000030FF00000000
30FF0000000000000030FF00000000
30FF0000000000000030FF00000000
30FF000030E0FFFFFFFFFFFFFFFF40
30FF0000E0A020202040FF20202000
30FF0000F03000000030FF00000000
30FF0000FF3000000030FF00000000
30FF0000E08000001080E000000000
30FF000040F0FFFFFFF06000000000
002000000000203020000000000000
ENDCHAR
STARTCHAR  3070
ENCODING  12400
SWIDTH  1000 0
DWIDTH  16 0
BBX  15 15 1 -1
BITMAP
001000000000000000001000000000
30FF0000000000000030FF8080E030
30FF0000000000000030FF30F0A0E0
30FF0000202020202040FF20202000
30FF0030FFFFFFFFFFFFFFFFFFFF00
30FF0000000000000030FF00000000
30FF0000000000000030FF00000000
30FF0000000000000030FF00000000
30FF000040E0FFFFFFFFFFFFFFFF40
30FF0000E0A030202040FF20202000
30FF0000FF3000000030FF00000000
30FF0000FF3000000030FF00000000
30FF0000E08000001080F000000000
30FF000060F0FFFFFFF06000000000
103000000000203020000000000000
ENDCHAR
STARTCHAR  3071
ENCODING  12401
SWIDTH  1000 0
DWIDTH  16 0
BBX  14 15 1 -1
BITMAP
000000000000000000000040C060
30FF00000000000000FF30C020E0
30FF00000000000000FF30C020E0
30FF00002020202020FF4060E080
30FF0030FFFFFFFFFFFFFFFFFFFF
30FF00000000000000FF30000000
30FF00000000000000FF30000000
30FF00000000000000FF30000000
30FF000040E0FFFFFFFFFFFFFFE0
30FF0000E0A0202020FF40202010
30FF0000FF30000000FF30000000
30FF0000FF30000000FF20000000
30FF0000E080000060FF10000000
30FF000060F0FFFFFF8000000000
1030000000002020100000000000
ENDCHAR
STARTCHAR  3072
ENCODING  12402
SWIDTH  1000 0
DWIDTH  16 0
BBX  14 15 1 -1
BITMAP
0000000000000000302000000000
80FFFFFFFFFF000080FF30000000
10303040FFA0000010F0E0000000
000010E0A00000000080FF800000
0000A0E0100000000010FFF04010
0030FF40000000000000C0E0FFFF
00A0C00000000000000080A01020
00E0600000000000000040E00000
10FF200000000000000030FF0000
10FF100000000000000040FF0000
00F0400000000000000080E00000
00A0A000000000000020F0800000
0020E0C04010002060E0C0000000
000020A0F0FFFFFFE08000000000
0000000000202010000000000000
ENDCHAR
STARTCHAR  3073
ENCODING  12403
SWIDTH  1000 0
DWIDTH  16 0
BBX  15 15 1 -1
BITMAP
000000000000000020100040204000
103030303030000080F020C060F010
80FFFFFFFFFF000010F0C060F0A0A0
00000060F04000000080FF60000000
000030F0400000000010FFF0300000
0000E080000000000000C0E0FFE000
0060E00000000000000080A0102000
00C0800000000000000040E0000000
00FF300000000000000030F0000000
10FF200000000000000040FF000000
00F0300000000000000080E0000000
00C0A000000000000020F080000000
0020F0A04010002060E0E010000000
000020A0F0FFFFFFE0801000000000
000000000020201000000000000000
ENDCHAR
STARTCHAR  3074
ENCODING  12404
SWIDTH  1000 0
DWIDTH  16 0
BBX  14 14 1 -1
BITMAP
103030303030000060600060E0A0
80FFFFFFFFFF000060FF60C020E0
00000040F080000000C0F060C060
000020F0800000000040FFE01000
0000C0A0000000000000E0E0FFE0
0060F01000000000000080A01020
00C0800000000000000040E00000
00F0400000000000000030FF0000
00FF300000000000000030FF0000
00E0400000000000000060E00000
00A0C000000000000010E0600000
0020E0C04010002060E0C0000000
000010A0F0FFFFFFE08000000000
0000000000202010000000000000
ENDCHAR
STARTCHAR  3075
ENCODING  12405
SWIDTH  1000 0
DWIDTH  16 0
BBX  15 14 1 -1
BITMAP
000030303030303030303030200000
0000FFFFFFFFFFFFFFFFFFFFE00000
00000000000000000040E0E0300000
0000000000000020A0F08000000000
00001060100030F0C0203060000000
000060FF000040FF200040FF100000
000080E0000040FF200010FF400000
0000C0A0000040FF200000E0800000
0000F060000040FF200000A0A00000
0020FF30000040FF20000080E00000
0060F000000040FF20000040FF3000
60FF8000000080FF10000000C0FF40
10200000E0FFFF8000000000002010
000000002020100000000000000000
ENDCHAR
STARTCHAR  3076
ENCODING  12406
SWIDTH  1000 0
DWIDTH  16 0
BBX  15 15 1 -1
BITMAP
000000000000000000000010001000
0000303030303030303030A060C060
0030FFFFFFFFFFFFFFFFFF40F080F0
000000000000000040F04000000000
0000000000000060F0600000000000
00002080100040FF60004040000000
000060F0000060FF000080E0000000
0000A0C0000060FF000040FF100000
0000E080000060FF000010FF400000
0010FF60000060FF000000E0800000
0040FF20000060FF000000A0C00000
0080E000000060FF00000060F01000
80FF8000000080F000000010E0FF30
10100010FFFFFF8000000000002000
000000003020100000000000000000
ENDCHAR
STARTCHAR  3077
ENCODING  12407
SWIDTH  1000 0
DWIDTH  16 0
BBX  15 14 1 -1
BITMAP
000020202020202020202080E08000
0000FFFFFFFFFFFFFFFFFFF010E000
000000000000000020E0A060E06000
0000000000000020E0800000000000
00000080200010F080003060000000
000030FF200030FF000040FF000000
000060F0000030FF000010FF300000
0000A0C0000030FF000000E0600000
0000E080000030FF000000A0A00000
0010FF40000030FF00000060E00000
0060FF10000030FF00000030FF2000
60FFA000000060F000000000C0FF40
10200000E0FFFF8000000000002010
000000002020100000000000000000
ENDCHAR
STARTCHAR  3078
ENCODING  12408
SWIDTH  1000 0
DWIDTH  16 0
BBX  14 10 1 1
BITMAP
00000010A0A00000000000000000
00000060FFFF8000000000000000
000000E0A060FF60000000000000
000060FF2000A0F0300000000000
0000E0A0000000C0E01000000000
0060FF3000000010E0C000000000
E0FFA0000000000030F0A0000000
20200000000000000060FF801000
0000000000000000000080F0FFF0
0000000000000000000000002020
ENDCHAR
STARTCHAR  3079
ENCODING  12409
SWIDTH  1000 0
DWIDTH  16 0
BBX  14 11 1 1
BITMAP
0000000000000000103000300000
00000010E0E0100010F030E06000
00000080FFE0A0000080F080F040
000000E0A040FF80000000000000
000060FF200060FF400000000000
0000E0A0000000A0F02000000000
0040FF3000000010E0E000000000
E0FFA0000000000020F0A0000000
20200000000000000040FF600000
0000000000000000000060FFFFF0
0000000000000000000000102020
ENDCHAR
STARTCHAR  307A
ENCODING  12410
SWIDTH  1000 0
DWIDTH  16 0
BBX  15 10 0 1
BITMAP
0000000030F0A000000040C0600000
00000000A0FFFF600000C030E00000
00000020FF80A0FF3000C030E00000
00000080F01010E0E01030C0600000
000010F080000020F0C00000000000
000080F01000000040FF8000000000
00FFFF80000000000080FF40000000
00301000000000000000A0F0300000
0000000000000000000010C0FFFFA0
000000000000000000000000102010
ENDCHAR
STARTCHAR  307B
ENCODING  12411
SWIDTH  1000 0
DWIDTH  16 0
BBX  15 14 1 -1
BITMAP
40FF20002030303030303030300000
40FF2000E0FFFFFFFFFFFFFFFF0000
40FF2000000000000060FF00000000
40FF2000000000000060FF00000000
40FF2030FFFFFFFFFFFFFFFFFFFF00
40FF2010303030303080FF30303000
40FF2000000000000060FF00000000
40FF2000000020202060FF20202000
40FF200060F0FFFFFFFFFFFFFFFF30
40FF2000F0A000000060FF00000000
40FF2000FF6000000060FF00000000
40FF2000E0A0000010A0E000000000
40FF200060F0FFFFFFF04000000000
104000000000203020000000000000
ENDCHAR
STARTCHAR  307C
ENCODING  12412
SWIDTH  1000 0
DWIDTH  16 0
BBX  15 14 1 -1
BITMAP
20FF00003030303030303030003000
20FF0000FFFFFFFFFFFFFFFF40E010
20FF00000000000000FF30C0F0A0A0
20FF00000000000000FF3000000000
20FF0040FFFFFFFFFFFFFFFFFFFF00
20FF00103030303030FF4020202000
20FF00000000000000FF3000000000
20FF00000010202020FF4020202000
20FF000060F0FFFFFFFFFFFFFFE000
20FF0000E080000000FF3000000000
20FF0000FF30000000FF2000000000
20FF0000E080100060FF1000000000
20FF000060F0FFFFF0800000000000
104000000000202000000000000000
ENDCHAR
STARTCHAR  307D
ENCODING  12413
SWIDTH  1000 0
DWIDTH  16 0
BBX  14 14 1 -1
BITMAP
30FF00002020202020202060E0A0
30FF0000C0FFFFFFFFFFFFFF20E0
30FF0000000000000030FF40C080
30FF0000000000000030FF000000
30FF0040FFFFFFFFFFFFFFFFFFFF
30FF0010202020202040FF202020
30FF0000000000000030FF000000
30FF0000000020202040FF202020
30FF000040E0FFFFFFFFFFFFFFE0
30FF0000E08010000030FF000000
30FF0000FF3000000030FF000000
30FF0000E08010001080E0000000
30FF000040E0FFFFFFE040000000
1030000000002020200000000000
ENDCHAR
STARTCHAR  307E
ENCODING  12414
SWIDTH  1000 0
DWIDTH  16 0
BBX  13 14 2 -1
BITMAP
000000000010C0100000000000
003030303040FF403030303020
10FFFFFFFFFFFFFFFFFFFFFFE0
000000000010FF100000000000
202020202030FF302020202020
FFFFFFFFFFFFFFFFFFFFFFFFFF
000000000010FF100000000000
000000102030FF302020202020
0080FFFFFFFFFFFFFFFFFFFFFF
20FF40101020FF201010101010
30FF00000010FF100000000000
10FF40000040FF100000000000
0080FFFFFFFF80000000000000
00001020201000000000000000
ENDCHAR
STARTCHAR  307F
ENCODING  12415
SWIDTH  1000 0
DWIDTH  16 0
BBX  14 14 1 -1
BITMAP
0020303030303030000000000000
00E0FFFFFFFFFFFF000000104010
00000000000080E000000060FF10
000000000000E080000000A0C000
000000000030FF20000000F08000
000000000080E000000040FF2000
0080F0FFFFFFFFFFFFFFFFFFFFC0
30FF603060FF40303030F0803020
60FF000080E000000040FF300000
60F00000E080000000A0E0000000
60F00020FF30000000E080000000
40FF30A0E000000040FF30000000
10E0FFE04000C0FFFF8000000000
0000100000002020100000000000
ENDCHAR
STARTCHAR  3080
ENCODING  12416
SWIDTH  1000 0
DWIDTH  16 0
BBX  14 15 2 -1
BITMAP
0000000000000000000000000000
0000000000FF3000000000000000
2020202020FF4020202020202000
FFFFFFFFFFFFFFFFFFFFFFFFFF00
0000000000FF3000101000000000
0000001000FF3000E0E000000000
00A0FFFFFFFF300040FF60000000
30FF602040FF400000A0E0000000
60FF000000E040000020FF802000
60FF000000E04000000060E0FF20
30FF803060FF3000000000000000
0080E0F0FFC0000000000060FF00
00000000F0A00000000010A0E000
00000000A0FFFFF0F0FFFFF06000
0000000000102020303020000000
ENDCHAR
STARTCHAR  3081
ENCODING  12417
SWIDTH  1000 0
DWIDTH  16 0
BBX  15 14 1 -1
BITMAP
000030100000000000206010000000
0000E0A0000000000080F000000000
000060F02020202030F08000000000
0000A0FFFFFFFFF0FFFFFFF0A01000
0080E0C0E0000000E0A01040E0A000
00F04040FF400040FF30000060F000
10FF1000E0A000C0C000000020FF10
30FF000080FF40FF4000000020FF10
30FF000020FFF0E00000000020FF10
20FF000000C0FF600000000020FF00
10FF100000A0F0100000000030E000
00F0802060FF800000000020C0A000
0060F0FFF0A00030FFFFFFFFA01000
000000100000000020202010000000
ENDCHAR
STARTCHAR  3082
ENCODING  12418
SWIDTH  1000 0
DWIDTH  16 0
BBX  14 15 1 -1
BITMAP
0000001000000000000000000000
000000FF60000000000000000000
000000FF60000000000000000000
C0FFFFFFFFFFFFFFFFFFFFFF0000
203030FF80303030303030300000
000000FF60000000000000000000
000000FF6000000000000000A010
203030FF8030303030300000FF30
E0FFFFFFFFFFFFFFFFFF0000FF30
000000FF6000000000000000FF30
000000FF6000000000000000FF20
000000FF6000000000000010FF20
000000E0A0100000000020A0E000
00000060FFFFFFFFFFFFFFE03000
0000000010303030202010000000
ENDCHAR
STARTCHAR  3083
ENCODING  12419
SWIDTH  1000 0
DWIDTH  16 0
BBX  12 12 2 -1
BITMAP
000000000010000000000000
0040E00000F0300000000000
0010FF2000C0600000000000
40FFFFFFFFFFFFFFF0C03000
0000A0800040E0001080E000
000060C00010FF100010FF10
000030F00000E0600010FF20
000000F0300060F0A020FF10
000000C0600000000080E000
00000080A000F0F0F0E04000
00000040E000000000000000
000000106000000000000000
ENDCHAR
STARTCHAR  3084
ENCODING  12420
SWIDTH  1000 0
DWIDTH  16 0
BBX  14 14 1 -1
BITMAP
002040000020C020000000000000
0040FF100000F060000000000000
2030FF602020C0A0202010000000
C0FFFFFFFFFFFFFFFFFFFFE04000
0000A0C0000030FF200010A0F010
000060E0000000F060000010FF40
000040FF100000C0A0000000F060
000010FF40000080E0300000FF60
000000E080000020E0FF3010FF60
000000A0C0000000000010A0FF20
00000060E00010FFFFFFFFF06000
00000040FF100020202020000000
00000010FF400000000000000000
0000000060300000000000000000
ENDCHAR
STARTCHAR  3085
ENCODING  12421
SWIDTH  1000 0
DWIDTH  16 0
BBX  11 11 3 0
BITMAP
0000000000601000000000
FF10000000FF3000000000
FF60C0F0F0FFF0E0C03000
FFC0401000FF301080E000
FF10000000FF300010FF10
FF10000000FF300000FF10
FF10000000FF300010FF00
FFC0300000FF300080E000
FF60E0F0F0FFF0F0E04000
FF10000010FF3000000000
200030FFFFC00000000000
ENDCHAR
STARTCHAR  3086
ENCODING  12422
SWIDTH  1000 0
DWIDTH  16 0
BBX  14 14 1 -1
BITMAP
10800000000000FF300000000000
30FF0000002020FF402000000000
30FF40C0FFFFFFFFFFFFFFC02000
30FFE060301000FF300030C0E000
30FF1000000000FF30000030FF10
30FF0000000000FF30000000FF30
30FF0000000000FF30000000FF30
30FF3000000000FF30000030FF10
30FFF080200000FF300030E0C000
30FF40E0FFFFFFFFFFFFFFC02000
30FF0000102020FF402010000000
30FF0000000030FF100000000000
00000000F0FFFFA0000000000000
0000000020201000000000000000
ENDCHAR
STARTCHAR  3087
ENCODING  12423
SWIDTH  1000 0
DWIDTH  16 0
BBX  11 12 2 -1
BITMAP
0000000000401000000000
0000000000FF3000000000
0000000000FF3000000000
0000000000FFFFFFFFFF40
0000000000FF3000000000
0000000000FF3000000000
0000000000FF3000000000
0080F0FFFFFFFFFFFFFFE0
00FF400000FF3000000000
00FF400010FF2000000000
0080F0F0F0C00000000000
0000000000000000000000
ENDCHAR
STARTCHAR  3088
ENCODING  12424
SWIDTH  1000 0
DWIDTH  16 0
BBX  14 14 1 -1
BITMAP
00000000000060E0000000000000
00000000000060FF000000000000
00000000000060FF101010101000
00000000000060FFFFFFFFFFFF40
00000000000060FF202020202010
00000000000060FF000000000000
00000000000060FF000000000000
00001020303080FF303030303020
00A0FFFFFFFFFFFFFFFFFFFFFFE0
10FF8000000060FF000000000000
20FF4000000060FF000000000000
00FF80000000A0F0000000000000
0080FFFFFFFFFF80000000000000
0000002030200000000000000000
ENDCHAR
STARTCHAR  3089
ENCODING  12425
SWIDTH  1000 0
DWIDTH  16 0
BBX  13 15 2 -1
BITMAP
00101000000000000000000000
0060F0E0400000000000000000
000010A0FFA030000000000000
0000000040E0FFFFFFFFFFE000
FF600000000020203030302000
FF600010303030303020000000
FF80E0FFFFFFFFFFFFFFE04000
FFFF8020000000000020C0E000
FFC0000000000000000040FF20
6030000000000000000040FF30
0000000000000000000040FF30
0000000000000000000060FF20
00000000000000000020C0E000
40FFFFFFFFFFFFFFFFFFE03000
00202020202020202020000000
ENDCHAR
STARTCHAR  308A
ENCODING  12426
SWIDTH  1000 0
DWIDTH  16 0
BBX  12 14 2 -1
BITMAP
40E0000000000000000030FF
60FF000000000000000030FF
60FF000000000000000030FF
60FF000000000000000030FF
60FF000000000000000030FF
60FF000000000000000030FF
60FF000000000000000030FF
40FF300000000000000030FF
00C0FFFFFFFF2000000030FF
0000202020200000000030FF
0000000000000000000030FF
00000000000000000020C0C0
000060FFFFFFFFFFFFFFE020
000010303030303030200000
ENDCHAR
STARTCHAR  308B
ENCODING  12427
SWIDTH  1000 0
DWIDTH  16 0
BBX  14 14 1 -1
BITMAP
0030303030303030303030303030
00FFFFFFFFFFFFFFFFFFFFFFFFFF
0000000080E02000000000000000
00000040F0300010100000000000
000010E0E0E0FFFFFFFFF0C02000
0000C0FFA0403020102040C0C000
0080FF400000000000000030FF10
004040102020202020202020FF30
0000A0FFFFFFFFFFFFFFFFFFFF30
0040FF400000000000000000FF30
0060FF000000000000000020FF20
0040FF6010000000000010A0E000
0000A0FFFFFFFFFFFFFFFFE04000
0000001020203030303020000000
ENDCHAR
STARTCHAR  308C
ENCODING  12428
SWIDTH  1000 0
DWIDTH  16 0
BBX  14 14 1 -1
BITMAP
00000060FF000000000000000000
00000060FF000000202000000000
10202080FF30A0F0FFFFF0600000
60FFFFFFFFFFA040101060F01000
00000060FF400000000000FF2000
00000060FF000000000000FF3000
00000060FF000000000000FF3000
000010E0FF000000000000FF3000
0000A0FFFF000000000000FF3000
1040FFA0FF000000000000FF3000
C0FF8060FF000000000000FF3000
10100060FF000000000000FF4000
00000060FF000000000000A0FFF0
0000001040000000000000002020
ENDCHAR
STARTCHAR  308D
ENCODING  12429
SWIDTH  1000 0
DWIDTH  16 0
BBX  13 14 2 -1
BITMAP
30303030303030303030303020
FFFFFFFFFFFFFFFFFFFFFFFFE0
0000000010E0E0100000000000
00000000C0E010000000000000
000000A0E02010101000000000
000080FFE0FFFFFFFFFFE06000
0060FFC0603020202030A0FF20
40F0A00000000000000010FF60
4040000000000000000000F080
0000000000000000000000F080
0000000000000000000000FF60
0000000000000000000060FF30
00FFFFFFFFFFFFFFFFFFFF8000
00203030303030303020100000
ENDCHAR
STARTCHAR  308E
ENCODING  12430
SWIDTH  1000 0
DWIDTH  16 0
BBX  11 12 2 -1
BITMAP
0000003000000000000000
000000FF20000000000000
000000FF40A0F0FFFFC020
60FFFFFFF060100010A0C0
000000FF400000000020FF
000000FF200000000010FF
000030FF200000000010FF
0000E0FF200000000010FF
0080C0FF200000000020FF
A0E020FF2000101010A0E0
000000FF2010FFFFFFC030
0000004000000000000000
ENDCHAR
STARTCHAR  308F
ENCODING  12431
SWIDTH  1000 0
DWIDTH  16 0
BBX  14 14 1 -1
BITMAP
00000060FF000000000000000000
00000060FF000000202010000000
10303080FF30C0F0FFFFFFE03000
40FFFFFFFFFFA030000020A0F010
00000060FF60000000000020FF40
00000060FF00000000000000FF60
00000060FF00000000000000F060
000010E0FF00000000000000F060
0000A0FFFF00000000000000F060
1040FF80FF00000000000000FF60
A0FF8060FF00000000000010FF60
10100060FF000020303030A0F010
00000060FF0000E0FFFFFFE04000
0000001040000000000000000000
ENDCHAR
STARTCHAR  3090
ENCODING  12432
SWIDTH  1000 0
DWIDTH  16 0
BBX  14 14 1 -1
BITMAP
00F0FFFFFFFFFFFF000000000000
00202020202020F0000000000000
00000000000060C0000000000000
000000000010A0A0100000000000
0010A0E0FFFFFFFFFFFFF0A02000
00C0E0402080F010101030C0E000
10FF200000E0800000000020FF20
20FF000040FF200000001010FF30
30FF0000A0C00040E0FFFFFFFF30
30FF0020FF6000E080101020FF30
20FF0080F00000FF30000010FF20
00FF60E0800000E060001080E000
0080F0C010000060FFFFFFE04000
0000000000000000102010000000
ENDCHAR
STARTCHAR  3091
ENCODING  12433
SWIDTH  1000 0
DWIDTH  16 0
BBX  14 14 1 -1
BITMAP
0020202020202020202020202010
00FFFFFFFFFFFFFFFFFFFFFFFF60
0000000020E0E030000000000000
00000030E0A02020202010000000
000040F0FFFFFFFFFFFFFFE04000
0060FFA040200000000010A0E000
208060000000000000000060FF00
000000E0E0100000000010A0E000
000000E0FFFFFFF0F0FFFFF04000
000060FF30102030303020000000
0010F0F0E0FFF080A0F0FFE03000
00A0FF80301080FFA03020C0E000
40FF4000000010F080000030FF60
0000000000000000000000000000
ENDCHAR
STARTCHAR  3092
ENCODING  12434
SWIDTH  1000 0
DWIDTH  16 0
BBX  15 14 1 -1
BITMAP
000000000060C01000000000000000
0020202020E0A02020202020202000
10FFFFFFFFFFFFFFFFFFFFFFFFFF00
00000000C0A0000000000000000000
00000040FF30002010000000000000
000000C0FFE0FFFFFFE04000000000
000040FFE08030101080E000000000
0000C0E0100000202040FF20201000
0040FF400040E0FFFFFFFFFFFFC000
00C0C00000E0A0100030FF00000000
0040200000FF30000010A000000000
0000000000E0801000000000000000
000000000040E0FFFFF0F0F0F0F000
000000000000001020303030302000
ENDCHAR
STARTCHAR  3093
ENCODING  12435
SWIDTH  1000 0
DWIDTH  16 0
BBX  14 14 1 -1
BITMAP
00000010E0400000000000000000
00000060FF100000000000000000
000000A0C0000000000000000000
000000F060000000000000000000
000040FF20000000000000000000
000080E080E0FFF0600000000000
0000E0FFE0603060F01000004010
0020FF8000000000FF200000FF30
0060F00000000000FF300000FF30
00C0A00000000000FF300000FF20
10F0600000000000FF300020FF10
40FF100000000000F0600060F000
A0E000000000000080FFFFFF8000
3020000000000000001020100000
ENDCHAR
STARTCHAR  30A1
ENCODING  12449
SWIDTH  1000 0
DWIDTH  16 0
BBX  11 10 2 0
BITMAP
80FFFFFFFFFFFFFFFFFFFF
00000000000000000030F0
0000000000E060000080A0
0000000000E0400000C060
0000000000F0300020F020
0000000000FFFFFFF08000
0000000010FF1000000000
0000000030FF0000000000
0000000060E00000000000
0060FFFFF0600000000000
ENDCHAR
STARTCHAR  30A2
ENCODING  12450
SWIDTH  1000 0
DWIDTH  16 0
BBX  14 14 1 -1
BITMAP
0030303030303030303030303030
20FFFFFFFFFFFFFFFFFFFFFFFFFF
00000000000000000000000080E0
000000000000A0A000000000E080
000000000000E0A000000020FF40
000000000000E08000000060F000
000000000000F080000010E0A000
000000000010FFFFFFFFFFE02000
000000000020FF60303020000000
000000000030FF30000000000000
000000000040FF20000000000000
0000000000A0F000000000000000
0000FFFFFFF06000000000000000
0000303020100000000000000000
ENDCHAR
STARTCHAR  30A3
ENCODING  12451
SWIDTH  1000 0
DWIDTH  16 0
BBX  12 11 2 -1
BITMAP
000000000000000020C0C010
0000000000000040E0A01000
00000000000060F060000000
0000000010A0FF4000000000
00000030E0E0FF0000000000
10FFFFF08020FF0000000000
000000000020FF0000000000
000000000020FF0000000000
000000000020FF0000000000
000000000020FF0000000000
000000000010A00000000000
ENDCHAR
STARTCHAR  30A4
ENCODING  12452
SWIDTH  1000 0
DWIDTH  16 0
BBX  14 15 1 -1
BITMAP
0000000000000000000000102020
0000000000000000000040F0E030
00000000000000000080FFA01000
0000000000000010C0FF80000000
00000000000040E0E04000000000
000000000080FFFF200000000000
00000030C0F0C0FF100000000000
80FFFFFFC03060FF100000000000
10302010000060FF100000000000
00000000000060FF100000000000
00000000000060FF100000000000
00000000000060FF100000000000
00000000000060FF100000000000
00000000000060FF100000000000
0000000000001020000000000000
ENDCHAR
STARTCHAR  30A5
ENCODING  12453
SWIDTH  1000 0
DWIDTH  16 0
BBX  12 11 2 -1
BITMAP
000000000020E00000000000
001010101030FF1010101000
00FFFFFFFFFFFFFFFFFFFF10
00FF2000000000000010FF10
00FF2000000000000010FF10
00FF2000000000000010FF10
00801000000000000010FF10
00000000000000000010FF10
00000000000000000080F000
000000C0FFFFFFFFFFE06000
000000001010101000000000
ENDCHAR
STARTCHAR  30A6
ENCODING  12454
SWIDTH  1000 0
DWIDTH  16 0
BBX  14 14 1 -1
BITMAP
0000000000006010000000000000
000000000000FF30000000000000
003030303030FF40303030303000
30FFFFFFFFFFFFFFFFFFFFFFFF30
30FF00000000000000000000FF30
30FF00000000000000000000FF30
30FF00000000000000000000FF30
30FF00000000000000000000FF30
20C000000000000000000000FF30
000000000000000000000000FF30
000000000000000000000000FF20
000000000000000000000080F010
000000A0FFFFFFFFFFFFFFF06000
0000002030303030303020000000
ENDCHAR
STARTCHAR  30A7
ENCODING  12455
SWIDTH  1000 0
DWIDTH  16 0
BBX  11 10 3 0
BITMAP
C0FFFFFFFFFFFFFFFFFF00
0000000020FF0000000000
0000000020FF0000000000
0000000020FF0000000000
0000000020FF0000000000
0000000020FF0000000000
0000000020FF0000000000
0000000020FF0000000000
0000000020FF0000000000
FFFFFFFFFFFFFFFFFFFFC0
ENDCHAR
STARTCHAR  30A8
ENCODING  12456
SWIDTH  1000 0
DWIDTH  16 0
BBX  14 13 1 0
BITMAP
0030303030303030303030303000
00FFFFFFFFFFFFFFFFFFFFFFFF30
00000000000040FF100000000000
00000000000040FF100000000000
00000000000040FF100000000000
00000000000040FF100000000000
00000000000040FF100000000000
00000000000040FF100000000000
00000000000040FF100000000000
00000000000040FF100000000000
00000000000040FF100000000000
10303030303060FF303030303030
40FFFFFFFFFFFFFFFFFFFFFFFFFF
ENDCHAR
STARTCHAR  30A9
ENCODING  12457
SWIDTH  1000 0
DWIDTH  16 0
BBX  11 12 3 -1
BITMAP
0000000000000010800000
0000000000000020FF0000
0010101010101020FF1000
E0FFFFFFFFFFFFFFFFFF80
00000060E0000020FF0000
000000C080000020FF0000
000020FF20000020FF0000
000080C000000020FF0000
0000E06000000020FF0000
0040FF1000000040FF0000
FFF0800060FFFFFF800000
0000000000000000000000
ENDCHAR
STARTCHAR  30AA
ENCODING  12458
SWIDTH  1000 0
DWIDTH  16 0
BBX  14 14 1 -1
BITMAP
0000000000000000002060000000
00000000000000000060FF000000
20303030303030303080FF303010
F0FFFFFFFFFFFFFFFFFFFFFFFF30
00000000E0A000000060FF000000
00000020FF6000000060FF000000
00000060FF1000000060FF000000
000000C0C00000000060FF000000
000010F0600000000060FF000000
000040FF200000000060FF000000
0000A0E0000000000060FF000000
3040F0800000000010A0E0000000
FFFFC01000C0FFFFFFF040000000
0000000000203030200000000000
ENDCHAR
STARTCHAR  30AB
ENCODING  12459
SWIDTH  1000 0
DWIDTH  16 0
BBX  14 14 1 -1
BITMAP
0000000000604000000000000000
0000000010F06000000000000000
1030303060FF4030303030303000
60FFFFFFFFFFFFFFFFFFFFFFFF00
00000000C0A0000000000020FF00
00000010FF60000000000020FF00
00000040FF20000000000020FF00
00000080E000000000000020FF00
000000E0A000000000000020FF00
000010FF6000000000000020FF00
000040FF1000000000000030FF00
0010C0E00000000000001080E000
80FFF0400000A0FFFFFFFFF04000
1020000000001030303020000000
ENDCHAR
STARTCHAR  30AC
ENCODING  12460
SWIDTH  1000 0
DWIDTH  16 0
BBX  15 15 1 -1
BITMAP
000000000000000000103000300000
0000000000E080000010F020E02000
0000000020FF4000000080F060F010
1020202060FF302020202020200000
60FFFFFFFFFFFFFFFFFFFFFFFF0000
00101010E0A0101010101030FF0000
00000020FF40000000000020FF0000
00000060FF10000000000020FF0000
000000A0E000000000000020FF0000
000000E08000000000000020FF0000
000020FF4000000000000020FF0000
000060FF1000000000000020FF0000
0000A0E00000000000000080E00000
80FFF0400000A0FFFFFFFFF0400000
102010000000203030302000000000
ENDCHAR
STARTCHAR  30AD
ENCODING  12461
SWIDTH  1000 0
DWIDTH  16 0
BBX  14 14 1 -1
BITMAP
000000000060A000000000000000
000000000060F000000000000000
002020202060FF30202020202000
00F0FFFFFFFFFFFFFFFFFFFFFF00
000000000000FF60000000000000
000000000000E080000000000000
000000000000C0A0000000000000
002020202020A0C0202020202020
20FFFFFFFFFFFFFFFFFFFFFFFFFF
00101010101060FF101010101010
00000000000030FF300000000000
00000000000000FF400000000000
00000000000000E0800000000000
0000000000000040300000000000
ENDCHAR
STARTCHAR  30AE
ENCODING  12462
SWIDTH  1000 0
DWIDTH  16 0
BBX  14 15 1 -1
BITMAP
0000000000000000103000300000
0000000000A0C00010F040E04000
000000000080E0000060F080F000
002020202080F020202020202000
00FFFFFFFFFFFFFFFFFFFFFFF000
000000000010FF40000000000000
000000000000F060000000000000
000000000000E080000000000000
202020202020C0C0202020202000
F0FFFFFFFFFFFFFFFFFFFFFFFF40
10101010101060F0101010101000
00000000000040FF100000000000
00000000000010FF400000000000
00000000000000F0600000000000
0000000000000040300000000000
ENDCHAR
STARTCHAR  30AF
ENCODING  12463
SWIDTH  1000 0
DWIDTH  16 0
BBX  14 14 1 -1
BITMAP
00000000A0C00000000000000000
00000020FF600000000000000000
00000080FFFFFFFFFFFFFFFFFF80
000010F08020202020202040FF60
000060F01000000000000080E000
0000E0A000000000000010F08000
1060FF3000000000000060F01000
80F08000000000000000E0A00000
00000000000000000040FF200000
000000000000000000C0C0000000
000000000000000030FF40000000
0000000000000040E0E000000000
0060FFFFFFFFFFFFC02000000000
0010202020202000000000000000
ENDCHAR
ENDFONT
